<?xml version="1.0" encoding="UTF-8"?>
<!DOCTYPE svg PUBLIC "-//W3C//DTD SVG 1.1//EN" "http://www.w3.org/Graphics/SVG/1.1/DTD/svg11.dtd">
<svg xmlns="http://www.w3.org/2000/svg" version="1.1" width="200px" height="200px" style="shape-rendering:geometricPrecision; text-rendering:geometricPrecision; image-rendering:optimizeQuality; fill-rule:evenodd; clip-rule:evenodd" xmlns:xlink="http://www.w3.org/1999/xlink">
<g><path style="opacity:1" fill="#fcfdfd" d="M -0.5,-0.5 C 14.5,-0.5 29.5,-0.5 44.5,-0.5C 44.5,-0.166667 44.5,0.166667 44.5,0.5C 42.9826,0.510559 41.8159,1.17723 41,2.5C 37.3333,12.5 33.6667,22.5 30,32.5C 10.6115,54.4828 3.1115,79.8162 7.5,108.5C 8.90433,124.389 14.2377,138.722 23.5,151.5C 19.8333,152.167 16.1667,152.833 12.5,153.5C 6.22731,155.441 1.89397,159.441 -0.5,165.5C -0.5,110.167 -0.5,54.8333 -0.5,-0.5 Z"/></g>
<g><path style="opacity:1" fill="#e9f1f4" d="M 44.5,0.5 C 44.5,0.166667 44.5,-0.166667 44.5,-0.5C 61.8333,-0.5 79.1667,-0.5 96.5,-0.5C 88.0321,3.53732 79.0321,6.20399 69.5,7.5C 69.4506,4.9009 68.4506,2.73423 66.5,1C 59.1742,0.500344 51.8409,0.333677 44.5,0.5 Z"/></g>
<g><path style="opacity:1" fill="#cedbe2" d="M 109.5,-0.5 C 128.833,-0.5 148.167,-0.5 167.5,-0.5C 167.5,-0.166667 167.5,0.166667 167.5,0.5C 154.829,0.333449 142.162,0.500115 129.5,1C 128.887,3.14736 128.221,5.31403 127.5,7.5C 122.135,3.14559 116.135,0.478924 109.5,-0.5 Z"/></g>
<g><path style="opacity:1" fill="#fcfdfd" d="M 167.5,0.5 C 167.5,0.166667 167.5,-0.166667 167.5,-0.5C 178.167,-0.5 188.833,-0.5 199.5,-0.5C 199.5,52.1667 199.5,104.833 199.5,157.5C 198.251,155.864 196.584,154.697 194.5,154C 187.285,153.746 180.285,152.913 173.5,151.5C 188.484,131.018 194.318,108.018 191,82.5C 188.237,64.855 181.237,49.1883 170,35.5C 171.099,24.6539 171.433,13.6539 171,2.5C 170.29,1.02674 169.124,0.360072 167.5,0.5 Z"/></g>
<g><path style="opacity:1" fill="#1d3e51" d="M 96.5,-0.5 C 100.833,-0.5 105.167,-0.5 109.5,-0.5C 116.135,0.478924 122.135,3.14559 127.5,7.5C 128.221,5.31403 128.887,3.14736 129.5,1C 142.162,0.500115 154.829,0.333449 167.5,0.5C 169.124,0.360072 170.29,1.02674 171,2.5C 171.433,13.6539 171.099,24.6539 170,35.5C 181.237,49.1883 188.237,64.855 191,82.5C 194.318,108.018 188.484,131.018 173.5,151.5C 173.762,150.022 173.429,148.689 172.5,147.5C 165.165,153.191 160.498,160.691 158.5,170C 159.889,172.556 160.222,175.056 159.5,177.5C 157.725,173.614 156.892,169.28 157,164.5C 153.111,158.283 147.944,156.95 141.5,160.5C 138.579,159.593 135.579,159.26 132.5,159.5C 132.116,161.665 132.783,163.332 134.5,164.5C 135.492,168.783 135.826,173.116 135.5,177.5C 134.041,177.433 132.708,177.766 131.5,178.5C 130.817,176.824 129.483,176.157 127.5,176.5C 127.994,179.922 127.661,181.589 126.5,181.5C 126.67,180.178 126.337,179.011 125.5,178C 122.518,177.502 119.518,177.335 116.5,177.5C 116.5,171.5 116.5,165.5 116.5,159.5C 117.489,164.975 117.822,170.642 117.5,176.5C 122.518,176.387 127.518,176.053 132.5,175.5C 132.806,172.615 132.473,169.948 131.5,167.5C 130.542,167.047 129.708,166.381 129,165.5C 128.179,162.446 128.345,159.446 129.5,156.5C 137.114,155.261 144.781,154.761 152.5,155C 154.762,156.047 156.929,157.213 159,158.5C 163.099,153.305 167.432,148.305 172,143.5C 172.989,141.03 174.155,138.697 175.5,136.5C 176.339,134.219 177.339,131.885 178.5,129.5C 177.758,128.713 176.925,128.047 176,127.5C 174.612,128.554 173.112,128.72 171.5,128C 173.893,125.322 176.726,124.822 180,126.5C 181.03,126.164 181.53,125.497 181.5,124.5C 181.5,124.167 181.5,123.833 181.5,123.5C 182.708,122.766 184.041,122.433 185.5,122.5C 184.11,119.07 184.276,115.736 186,112.5C 186.667,99.5 186.667,86.5 186,73.5C 185.667,73.8333 185.333,74.1667 185,74.5C 184.878,72.563 184.045,71.2297 182.5,70.5C 181.773,67.3783 180.273,64.7116 178,62.5C 175.775,63.096 173.608,63.7626 171.5,64.5C 170.5,64.5 169.5,64.5 168.5,64.5C 166.058,64.8808 165.391,64.2141 166.5,62.5C 158.862,61.5025 151.196,61.1692 143.5,61.5C 143.843,63.4832 143.176,64.8166 141.5,65.5C 138.275,64.0497 135.608,61.8831 133.5,59C 131.655,57.872 129.655,57.372 127.5,57.5C 125.412,51.8726 121.412,50.0392 115.5,52C 113.536,53.451 112.203,55.2843 111.5,57.5C 108.626,56.6365 105.959,55.3032 103.5,53.5C 99.4428,56.5174 95.4428,59.5174 91.5,62.5C 89.5,63.5 87.5,64.5 85.5,65.5C 83.0876,65.756 81.4209,64.756 80.5,62.5C 72.5104,61.6864 64.8437,60.8531 57.5,60C 60.1446,58.7135 61.1446,56.5468 60.5,53.5C 55.2103,54.2589 50.5436,52.9255 46.5,49.5C 51.7921,48.5052 57.1254,48.1718 62.5,48.5C 62.363,51.8122 63.363,54.6455 65.5,57C 70.7746,57.9007 75.7746,57.4007 80.5,55.5C 74.7761,39.164 68.9428,22.8306 63,6.5C 57.3333,5.16667 51.6667,5.16667 46,6.5C 40.2651,22.5383 34.4317,38.5383 28.5,54.5C 33.6523,55.8137 38.6523,55.8137 43.5,54.5C 44.4822,53.8592 45.4822,53.1925 46.5,52.5C 47.3832,54.7383 47.0499,56.905 45.5,59C 46.3081,59.3076 46.9747,59.8076 47.5,60.5C 46.3717,61.2621 45.2051,61.9288 44,62.5C 36.9578,60.2616 29.7911,59.9283 22.5,61.5C 22.1826,65.1716 23.8493,66.8383 27.5,66.5C 27.162,68.854 26.662,71.1873 26,73.5C 25.51,72.2068 25.3433,70.8734 25.5,69.5C 23.5,69.5 21.5,69.5 19.5,69.5C 19.6633,71.8568 19.4966,74.1902 19,76.5C 17.6012,77.2266 16.1012,77.7266 14.5,78C 15.3802,79.3561 15.7135,80.8561 15.5,82.5C 18.8333,82.5 22.1667,82.5 25.5,82.5C 25.5,80.8333 25.5,79.1667 25.5,77.5C 24.1266,77.6567 22.7932,77.49 21.5,77C 21.4513,74.9538 21.7846,72.7871 22.5,70.5C 23.4519,72.0453 23.7852,73.712 23.5,75.5C 26.1178,75.2208 28.6178,74.5541 31,73.5C 31.6708,74.2524 32.5041,74.5858 33.5,74.5C 33.5,75.5 33.5,76.5 33.5,77.5C 31.631,79.6353 30.9644,82.3019 31.5,85.5C 26.1667,85.5 20.8333,85.5 15.5,85.5C 15.3097,90.017 14.9764,94.6836 14.5,99.5C 20.0452,97.9785 25.7119,97.3118 31.5,97.5C 31.5,98.5 31.5,99.5 31.5,100.5C 26.1667,100.833 20.8333,101.167 15.5,101.5C 15.7135,103.144 15.3802,104.644 14.5,106C 18.1875,106.45 21.8542,106.283 25.5,105.5C 22.0476,107.173 18.2143,108.173 14,108.5C 13.3333,111.167 13.3333,113.833 14,116.5C 15.53,121.961 17.3634,127.295 19.5,132.5C 17.3935,131.434 15.8935,129.767 15,127.5C 12.4456,121.467 10.779,115.134 10,108.5C 9.33333,106.5 9.33333,104.5 10,102.5C 11.3561,103.38 12.8561,103.714 14.5,103.5C 14.2407,99.9319 12.2407,98.5985 8.5,99.5C 7.84128,102.455 7.50795,105.455 7.5,108.5C 3.1115,79.8162 10.6115,54.4828 30,32.5C 33.6667,22.5 37.3333,12.5 41,2.5C 41.8159,1.17723 42.9826,0.510559 44.5,0.5C 51.8409,0.333677 59.1742,0.500344 66.5,1C 68.4506,2.73423 69.4506,4.9009 69.5,7.5C 79.0321,6.20399 88.0321,3.53732 96.5,-0.5 Z"/></g>
<g><path style="opacity:1" fill="#f8fbfb" d="M 80.5,55.5 C 75.5,55.5 70.5,55.5 65.5,55.5C 65.2475,48.6119 61.5809,45.9452 54.5,47.5C 51.5,47.6667 48.5,47.8333 45.5,48C 44.6028,50.0871 43.9361,52.2537 43.5,54.5C 38.6523,55.8137 33.6523,55.8137 28.5,54.5C 34.4317,38.5383 40.2651,22.5383 46,6.5C 51.6667,5.16667 57.3333,5.16667 63,6.5C 68.9428,22.8306 74.7761,39.164 80.5,55.5 Z"/></g>
<g><path style="opacity:1" fill="#fdfefe" d="M 165.5,16.5 C 159.5,16.5 153.5,16.5 147.5,16.5C 147.5,19.5 147.5,22.5 147.5,25.5C 152.833,25.5 158.167,25.5 163.5,25.5C 163.5,28.8333 163.5,32.1667 163.5,35.5C 158.167,35.5 152.833,35.5 147.5,35.5C 147.5,38.5 147.5,41.5 147.5,44.5C 153.31,45.4896 159.31,45.8229 165.5,45.5C 165.5,48.8333 165.5,52.1667 165.5,55.5C 155.167,55.5 144.833,55.5 134.5,55.5C 134.5,39.1667 134.5,22.8333 134.5,6.5C 144.833,6.5 155.167,6.5 165.5,6.5C 165.5,9.83333 165.5,13.1667 165.5,16.5 Z"/></g>
<g><path style="opacity:1" fill="#f6f9fa" d="M 128.5,22.5 C 123.695,23.4872 118.695,23.8205 113.5,23.5C 110.366,18.8809 106.032,17.3809 100.5,19C 98.714,19.7845 97.214,20.9512 96,22.5C 94.4548,27.0466 94.1215,31.7133 95,36.5C 100.4,44.9861 106.567,45.6527 113.5,38.5C 118.456,37.5059 123.456,37.1725 128.5,37.5C 128.349,41.4665 126.849,44.7998 124,47.5C 121.547,46.5071 119.047,46.3405 116.5,47C 114.167,48.5 111.833,50 109.5,51.5C 103.676,48.114 98.8425,49.114 95,54.5C 84.8556,49.8314 79.6889,41.8314 79.5,30.5C 83.3664,8.39378 96.0331,0.893781 117.5,8C 123.294,11.2847 126.961,16.118 128.5,22.5 Z"/></g>
<g><path style="opacity:1" fill="#758a97" d="M 128.5,22.5 C 129.043,22.56 129.376,22.8933 129.5,23.5C 124.014,24.8147 118.68,24.8147 113.5,23.5C 118.695,23.8205 123.695,23.4872 128.5,22.5 Z"/></g>
<g><path style="opacity:1" fill="#768993" d="M 165.5,16.5 C 160.025,17.4889 154.358,17.8222 148.5,17.5C 148.5,19.8333 148.5,22.1667 148.5,24.5C 153.695,24.1795 158.695,24.5128 163.5,25.5C 158.167,25.5 152.833,25.5 147.5,25.5C 147.5,22.5 147.5,19.5 147.5,16.5C 153.5,16.5 159.5,16.5 165.5,16.5 Z"/></g>
<g><path style="opacity:1" fill="#2a4657" d="M 53.5,22.5 C 56.6271,26.8461 58.6271,31.8461 59.5,37.5C 56.1667,37.5 52.8333,37.5 49.5,37.5C 50.8333,32.5 52.1667,27.5 53.5,22.5 Z"/></g>
<g><path style="opacity:1" fill="#acbdc7" d="M 165.5,16.5 C 165.5,13.1667 165.5,9.83333 165.5,6.5C 155.167,6.5 144.833,6.5 134.5,6.5C 134.5,22.8333 134.5,39.1667 134.5,55.5C 144.833,55.5 155.167,55.5 165.5,55.5C 155.013,56.4944 144.346,56.8278 133.5,56.5C 133.5,39.5 133.5,22.5 133.5,5.5C 144.5,5.5 155.5,5.5 166.5,5.5C 166.815,9.37141 166.482,13.0381 165.5,16.5 Z"/></g>
<g><path style="opacity:1" fill="#566874" d="M 163.5,35.5 C 158.695,36.4872 153.695,36.8205 148.5,36.5C 148.5,39.1667 148.5,41.8333 148.5,44.5C 148.167,44.5 147.833,44.5 147.5,44.5C 147.5,41.5 147.5,38.5 147.5,35.5C 152.833,35.5 158.167,35.5 163.5,35.5 Z"/></g>
<g><path style="opacity:1" fill="#afc0cb" d="M 147.5,44.5 C 147.833,44.5 148.167,44.5 148.5,44.5C 154.5,44.5 160.5,44.5 166.5,44.5C 166.815,48.3714 166.482,52.0381 165.5,55.5C 165.5,52.1667 165.5,48.8333 165.5,45.5C 159.31,45.8229 153.31,45.4896 147.5,44.5 Z"/></g>
<g><path style="opacity:1" fill="#3b725a" d="M 127.5,57.5 C 125.386,55.2129 122.886,53.5463 120,52.5C 116.537,53.1366 113.704,54.8033 111.5,57.5C 112.203,55.2843 113.536,53.451 115.5,52C 121.412,50.0392 125.412,51.8726 127.5,57.5 Z"/></g>
<g><path style="opacity:1" fill="#396e56" d="M 111.5,57.5 C 110.878,58.6266 110.045,59.6266 109,60.5C 106.21,54.9784 103.044,54.4784 99.5,59C 96.6902,59.9064 94.0236,61.0731 91.5,62.5C 95.4428,59.5174 99.4428,56.5174 103.5,53.5C 105.959,55.3032 108.626,56.6365 111.5,57.5 Z"/></g>
<g><path style="opacity:1" fill="#1e5048" d="M 127.5,57.5 C 129.655,57.372 131.655,57.872 133.5,59C 135.608,61.8831 138.275,64.0497 141.5,65.5C 142.502,67.0109 143.169,68.6776 143.5,70.5C 138.494,65.6769 133.161,61.3435 127.5,57.5 Z"/></g>
<g><path style="opacity:1" fill="#1b4450" d="M 168.5,64.5 C 167.833,65.5 167.167,66.5 166.5,67.5C 162.299,71.5381 157.465,74.5381 152,76.5C 148.23,75.9071 145.397,73.9071 143.5,70.5C 143.169,68.6776 142.502,67.0109 141.5,65.5C 143.176,64.8166 143.843,63.4832 143.5,61.5C 151.196,61.1692 158.862,61.5025 166.5,62.5C 165.391,64.2141 166.058,64.8808 168.5,64.5 Z"/></g>
<g><path style="opacity:1" fill="#8fe1a3" d="M 127.5,57.5 C 133.161,61.3435 138.494,65.6769 143.5,70.5C 145.397,73.9071 148.23,75.9071 152,76.5C 157.465,74.5381 162.299,71.5381 166.5,67.5C 168.674,67.2503 170.341,66.2503 171.5,64.5C 173.608,63.7626 175.775,63.096 178,62.5C 180.273,64.7116 181.773,67.3783 182.5,70.5C 186.723,88.2565 186.39,105.923 181.5,123.5C 179.473,123.662 177.473,123.495 175.5,123C 174.874,122.25 174.374,121.416 174,120.5C 173.338,121.984 172.504,123.317 171.5,124.5C 169.866,125.161 168.033,125.494 166,125.5C 162.335,125.519 158.835,124.852 155.5,123.5C 155.167,123.5 154.833,123.5 154.5,123.5C 150.808,120.953 147.475,121.62 144.5,125.5C 148.914,129.58 148.247,132.247 142.5,133.5C 141.833,133.167 141.167,132.833 140.5,132.5C 137.289,127.227 138.289,122.893 143.5,119.5C 144.683,118.496 146.016,117.662 147.5,117C 152.823,116.501 158.156,116.334 163.5,116.5C 162.544,111.034 162.21,105.701 162.5,100.5C 160.188,105.356 159.855,110.356 161.5,115.5C 158.15,115.665 154.817,115.498 151.5,115C 149.963,113.293 148.296,111.793 146.5,110.5C 142.284,110.316 138.284,109.316 134.5,107.5C 129.566,104.363 124.232,102.363 118.5,101.5C 117.081,100.549 115.415,100.216 113.5,100.5C 114.058,99.2101 115.058,98.3768 116.5,98C 121.383,96.9278 126.05,95.2612 130.5,93C 133.265,90.0052 134.098,86.5052 133,82.5C 132.973,86.3856 131.473,89.5523 128.5,92C 122.441,93.8438 116.774,96.3438 111.5,99.5C 107.313,102.172 102.98,104.672 98.5,107C 96.5273,107.495 94.5273,107.662 92.5,107.5C 92.1667,107.5 91.8333,107.5 91.5,107.5C 91.5,105.5 91.5,103.5 91.5,101.5C 100.882,97.6296 108.716,91.6296 115,83.5C 116.128,81.6547 116.628,79.6547 116.5,77.5C 110.908,77.0866 105.908,78.5866 101.5,82C 94.8417,82.4996 88.175,82.6663 81.5,82.5C 80.242,78.8663 80.242,75.1996 81.5,71.5C 82.4411,69.2279 83.7745,67.2279 85.5,65.5C 87.5,64.5 89.5,63.5 91.5,62.5C 94.0236,61.0731 96.6902,59.9064 99.5,59C 103.044,54.4784 106.21,54.9784 109,60.5C 110.045,59.6266 110.878,58.6266 111.5,57.5C 113.704,54.8033 116.537,53.1366 120,52.5C 122.886,53.5463 125.386,55.2129 127.5,57.5 Z"/></g>
<g><path style="opacity:1" fill="#408b4f" d="M 91.5,66.5 C 92.2389,66.369 92.9056,66.5357 93.5,67C 91.4148,68.0414 89.7481,69.5414 88.5,71.5C 87.479,70.9984 87.3123,70.3317 88,69.5C 89.1451,68.3636 90.3117,67.3636 91.5,66.5 Z"/></g>
<g><path style="opacity:1" fill="#2c5f4f" d="M 168.5,64.5 C 169.5,64.5 170.5,64.5 171.5,64.5C 170.341,66.2503 168.674,67.2503 166.5,67.5C 167.167,66.5 167.833,65.5 168.5,64.5 Z"/></g>
<g><path style="opacity:1" fill="#eafef1" d="M 117.5,62.5 C 120.173,62.6845 120.84,63.8511 119.5,66C 114.197,66.5775 113.531,65.4108 117.5,62.5 Z"/></g>
<g><path style="opacity:1" fill="#1b4353" d="M 80.5,55.5 C 75.7746,57.4007 70.7746,57.9007 65.5,57C 63.363,54.6455 62.363,51.8122 62.5,48.5C 57.1254,48.1718 51.7921,48.5052 46.5,49.5C 50.5436,52.9255 55.2103,54.2589 60.5,53.5C 61.1446,56.5468 60.1446,58.7135 57.5,60C 64.8437,60.8531 72.5104,61.6864 80.5,62.5C 81.4209,64.756 83.0876,65.756 85.5,65.5C 83.7745,67.2279 82.4411,69.2279 81.5,71.5C 80.2132,72.8714 79.5465,74.7047 79.5,77C 79.5649,79.2254 79.8982,81.3921 80.5,83.5C 86.5592,83.8632 92.2258,84.8632 97.5,86.5C 96.8333,87.5 96.1667,88.5 95.5,89.5C 90.0773,89.5185 84.744,90.1851 79.5,91.5C 79.719,92.675 79.3857,93.675 78.5,94.5C 72.5967,91.5857 67.2634,87.919 62.5,83.5C 60.8361,82.2568 59.6695,80.5902 59,78.5C 58.6667,78.8333 58.3333,79.1667 58,79.5C 50.3228,74.7377 42.4894,70.071 34.5,65.5C 33.5159,68.4281 33.1826,71.4281 33.5,74.5C 32.5041,74.5858 31.6708,74.2524 31,73.5C 28.6178,74.5541 26.1178,75.2208 23.5,75.5C 23.7852,73.712 23.4519,72.0453 22.5,70.5C 21.7846,72.7871 21.4513,74.9538 21.5,77C 22.7932,77.49 24.1266,77.6567 25.5,77.5C 25.5,79.1667 25.5,80.8333 25.5,82.5C 22.1667,82.5 18.8333,82.5 15.5,82.5C 15.7135,80.8561 15.3802,79.3561 14.5,78C 16.1012,77.7266 17.6012,77.2266 19,76.5C 19.4966,74.1902 19.6633,71.8568 19.5,69.5C 21.5,69.5 23.5,69.5 25.5,69.5C 25.3433,70.8734 25.51,72.2068 26,73.5C 26.662,71.1873 27.162,68.854 27.5,66.5C 23.8493,66.8383 22.1826,65.1716 22.5,61.5C 29.7911,59.9283 36.9578,60.2616 44,62.5C 45.2051,61.9288 46.3717,61.2621 47.5,60.5C 46.9747,59.8076 46.3081,59.3076 45.5,59C 47.0499,56.905 47.3832,54.7383 46.5,52.5C 45.4822,53.1925 44.4822,53.8592 43.5,54.5C 43.9361,52.2537 44.6028,50.0871 45.5,48C 48.5,47.8333 51.5,47.6667 54.5,47.5C 61.5809,45.9452 65.2475,48.6119 65.5,55.5C 70.5,55.5 75.5,55.5 80.5,55.5 Z"/></g>
<g><path style="opacity:1" fill="#1f4d45" d="M 81.5,71.5 C 80.242,75.1996 80.242,78.8663 81.5,82.5C 87.3465,83.1666 93.3465,83.8332 99.5,84.5C 99.1445,85.5223 98.4778,86.189 97.5,86.5C 92.2258,84.8632 86.5592,83.8632 80.5,83.5C 79.8982,81.3921 79.5649,79.2254 79.5,77C 79.5465,74.7047 80.2132,72.8714 81.5,71.5 Z"/></g>
<g><path style="opacity:1" fill="#438751" d="M 113.5,100.5 C 112.833,100.167 112.167,99.8333 111.5,99.5C 116.774,96.3438 122.441,93.8438 128.5,92C 131.473,89.5523 132.973,86.3856 133,82.5C 134.098,86.5052 133.265,90.0052 130.5,93C 126.05,95.2612 121.383,96.9278 116.5,98C 115.058,98.3768 114.058,99.2101 113.5,100.5 Z"/></g>
<g><path style="opacity:1" fill="#222f34" d="M 62.5,83.5 C 53.6151,78.9641 44.9484,73.9641 36.5,68.5C 35.8933,68.6236 35.56,68.9569 35.5,69.5C 34.8333,80.5 34.1667,91.5 33.5,102.5C 33.3611,94.2921 33.3611,85.9588 33.5,77.5C 33.5,76.5 33.5,75.5 33.5,74.5C 33.1826,71.4281 33.5159,68.4281 34.5,65.5C 42.4894,70.071 50.3228,74.7377 58,79.5C 58.3333,79.1667 58.6667,78.8333 59,78.5C 59.6695,80.5902 60.8361,82.2568 62.5,83.5 Z"/></g>
<g><path style="opacity:1" fill="#6b654b" d="M 95.5,90.5 C 93.9144,92.6254 92.0811,94.6254 90,96.5C 89.5172,97.448 89.3505,98.448 89.5,99.5C 88.2905,99.0679 87.2905,98.4013 86.5,97.5C 90.3521,95.5449 90.3521,93.8783 86.5,92.5C 89.2727,91.3428 92.2727,90.6761 95.5,90.5 Z"/></g>
<g><path style="opacity:1" fill="#1b4752" d="M 33.5,77.5 C 33.3611,85.9588 33.3611,94.2921 33.5,102.5C 30.9796,103.918 28.3129,104.918 25.5,105.5C 21.8542,106.283 18.1875,106.45 14.5,106C 15.3802,104.644 15.7135,103.144 15.5,101.5C 20.8333,101.167 26.1667,100.833 31.5,100.5C 31.5,99.5 31.5,98.5 31.5,97.5C 25.7119,97.3118 20.0452,97.9785 14.5,99.5C 14.9764,94.6836 15.3097,90.017 15.5,85.5C 20.8333,85.5 26.1667,85.5 31.5,85.5C 30.9644,82.3019 31.631,79.6353 33.5,77.5 Z"/></g>
<g><path style="opacity:1" fill="#454544" d="M 35.5,69.5 C 35.56,68.9569 35.8933,68.6236 36.5,68.5C 44.9484,73.9641 53.6151,78.9641 62.5,83.5C 67.2634,87.919 72.5967,91.5857 78.5,94.5C 79.3857,93.675 79.719,92.675 79.5,91.5C 84.744,90.1851 90.0773,89.5185 95.5,89.5C 95.5,89.8333 95.5,90.1667 95.5,90.5C 92.2727,90.6761 89.2727,91.3428 86.5,92.5C 84.4357,92.687 82.4357,93.187 80.5,94C 82.0931,94.9487 83.4264,96.1154 84.5,97.5C 85.0577,98.7899 86.0577,99.6232 87.5,100C 69.2407,100.132 54.074,93.2984 42,79.5C 40.0583,75.9311 37.8916,72.5978 35.5,69.5 Z"/></g>
<g><path style="opacity:1" fill="#373636" d="M 35.5,69.5 C 37.8916,72.5978 40.0583,75.9311 42,79.5C 54.074,93.2984 69.2407,100.132 87.5,100C 86.0577,99.6232 85.0577,98.7899 84.5,97.5C 85.1667,97.5 85.8333,97.5 86.5,97.5C 87.2905,98.4013 88.2905,99.0679 89.5,99.5C 89.8333,100.5 90.5,101.167 91.5,101.5C 91.5,103.5 91.5,105.5 91.5,107.5C 91.5,108.167 91.5,108.833 91.5,109.5C 91.5,121.167 91.5,132.833 91.5,144.5C 83.9184,143.695 76.9184,141.195 70.5,137C 68.9632,135.89 68.2965,134.39 68.5,132.5C 66.6963,125.177 62.3629,120.177 55.5,117.5C 53.3921,117.86 51.3921,118.527 49.5,119.5C 50.2427,120.182 50.9094,120.849 51.5,121.5C 41.4717,120.81 35.4717,115.477 33.5,105.5C 30.8333,105.5 28.1667,105.5 25.5,105.5C 28.3129,104.918 30.9796,103.918 33.5,102.5C 34.1667,91.5 34.8333,80.5 35.5,69.5 Z"/></g>
<g><path style="opacity:1" fill="#825d4b" d="M 86.5,92.5 C 90.3521,93.8783 90.3521,95.5449 86.5,97.5C 85.8333,97.5 85.1667,97.5 84.5,97.5C 83.4264,96.1154 82.0931,94.9487 80.5,94C 82.4357,93.187 84.4357,92.687 86.5,92.5 Z"/></g>
<g><path style="opacity:1" fill="#44754e" d="M 91.5,101.5 C 90.5,101.167 89.8333,100.5 89.5,99.5C 89.3505,98.448 89.5172,97.448 90,96.5C 92.0811,94.6254 93.9144,92.6254 95.5,90.5C 95.5,90.1667 95.5,89.8333 95.5,89.5C 96.1667,88.5 96.8333,87.5 97.5,86.5C 98.4778,86.189 99.1445,85.5223 99.5,84.5C 93.3465,83.8332 87.3465,83.1666 81.5,82.5C 88.175,82.6663 94.8417,82.4996 101.5,82C 105.908,78.5866 110.908,77.0866 116.5,77.5C 116.628,79.6547 116.128,81.6547 115,83.5C 108.716,91.6296 100.882,97.6296 91.5,101.5 Z"/></g>
<g><path style="opacity:1" fill="#36413a" d="M 118.5,101.5 C 124.232,102.363 129.566,104.363 134.5,107.5C 135.116,109.417 136.45,110.584 138.5,111C 137.207,111.49 135.873,111.657 134.5,111.5C 128.855,108.677 123.522,105.344 118.5,101.5 Z"/></g>
<g><path style="opacity:1" fill="#61704b" d="M 111.5,99.5 C 112.167,99.8333 112.833,100.167 113.5,100.5C 115.415,100.216 117.081,100.549 118.5,101.5C 115.482,101.335 112.482,101.502 109.5,102C 104.717,107.208 99.0507,109.041 92.5,107.5C 94.5273,107.662 96.5273,107.495 98.5,107C 102.98,104.672 107.313,102.172 111.5,99.5 Z"/></g>
<g><path style="opacity:1" fill="#835f4a" d="M 25.5,105.5 C 28.1667,105.5 30.8333,105.5 33.5,105.5C 35.4717,115.477 41.4717,120.81 51.5,121.5C 52.2249,125.138 51.8915,128.805 50.5,132.5C 45.9185,133.979 41.2518,135.145 36.5,136C 35.572,136.388 34.9054,137.055 34.5,138C 41.6609,143.081 48.9943,147.915 56.5,152.5C 53.7131,153.477 50.7131,153.81 47.5,153.5C 39.8725,148.013 31.8725,143.013 23.5,138.5C 21.7484,136.754 20.4151,134.754 19.5,132.5C 17.3634,127.295 15.53,121.961 14,116.5C 13.3333,113.833 13.3333,111.167 14,108.5C 18.2143,108.173 22.0476,107.173 25.5,105.5 Z"/></g>
<g><path style="opacity:1" fill="#365b48" d="M 134.5,107.5 C 138.284,109.316 142.284,110.316 146.5,110.5C 144.5,111.167 142.5,111.833 140.5,112.5C 138.246,113.415 136.246,114.748 134.5,116.5C 134.5,116.167 134.5,115.833 134.5,115.5C 134.953,114.542 135.619,113.708 136.5,113C 135.584,112.722 134.918,112.222 134.5,111.5C 135.873,111.657 137.207,111.49 138.5,111C 136.45,110.584 135.116,109.417 134.5,107.5 Z"/></g>
<g><path style="opacity:1" fill="#835f4a" d="M 118.5,101.5 C 123.522,105.344 128.855,108.677 134.5,111.5C 134.918,112.222 135.584,112.722 136.5,113C 135.619,113.708 134.953,114.542 134.5,115.5C 132.967,114.569 131.3,113.902 129.5,113.5C 122.957,115.535 116.29,117.035 109.5,118C 108.269,119.183 108.269,120.349 109.5,121.5C 121.365,129.715 133.699,137.049 146.5,143.5C 153.092,141.685 159.759,140.185 166.5,139C 166.957,138.586 167.291,138.086 167.5,137.5C 161.696,132.428 155.362,128.095 148.5,124.5C 150.265,123.539 152.265,123.205 154.5,123.5C 154.833,123.5 155.167,123.5 155.5,123.5C 158.628,126.766 162.295,129.599 166.5,132C 169.983,132.765 172.983,134.265 175.5,136.5C 174.155,138.697 172.989,141.03 172,143.5C 167.432,148.305 163.099,153.305 159,158.5C 156.929,157.213 154.762,156.047 152.5,155C 144.781,154.761 137.114,155.261 129.5,156.5C 128.345,159.446 128.179,162.446 129,165.5C 129.708,166.381 130.542,167.047 131.5,167.5C 131.5,169.833 131.5,172.167 131.5,174.5C 127.562,174.687 124.062,173.687 121,171.5C 120.554,163.149 119.888,154.815 119,146.5C 114.934,145.536 110.767,145.203 106.5,145.5C 105.883,145.611 105.383,145.944 105,146.5C 104.503,149.146 104.336,151.813 104.5,154.5C 103.167,154.5 101.833,154.5 100.5,154.5C 100.5,151.5 100.5,148.5 100.5,145.5C 99.5,145.5 98.5,145.5 97.5,145.5C 96.0813,144.549 94.4147,144.216 92.5,144.5C 92.8283,132.655 92.4949,120.988 91.5,109.5C 91.5,108.833 91.5,108.167 91.5,107.5C 91.8333,107.5 92.1667,107.5 92.5,107.5C 99.0507,109.041 104.717,107.208 109.5,102C 112.482,101.502 115.482,101.335 118.5,101.5 Z"/></g>
<g><path style="opacity:1" fill="#204e50" d="M 182.5,70.5 C 184.045,71.2297 184.878,72.563 185,74.5C 185.333,74.1667 185.667,73.8333 186,73.5C 186.667,86.5 186.667,99.5 186,112.5C 184.276,115.736 184.11,119.07 185.5,122.5C 184.041,122.433 182.708,122.766 181.5,123.5C 186.39,105.923 186.723,88.2565 182.5,70.5 Z"/></g>
<g><path style="opacity:1" fill="#383431" d="M 111.5,107.5 C 114.187,107.336 116.854,107.503 119.5,108C 121.515,109.555 121.848,111.389 120.5,113.5C 115.88,115.83 111.213,115.997 106.5,114C 105.549,113.282 105.383,112.449 106,111.5C 107.812,110.023 109.645,108.69 111.5,107.5 Z"/></g>
<g><path style="opacity:1" fill="#4e975d" d="M 143.5,119.5 C 143.5,118.833 143.5,118.167 143.5,117.5C 145.359,116.406 147.359,115.573 149.5,115C 146.983,112.749 143.983,111.916 140.5,112.5C 142.5,111.833 144.5,111.167 146.5,110.5C 148.296,111.793 149.963,113.293 151.5,115C 154.817,115.498 158.15,115.665 161.5,115.5C 159.855,110.356 160.188,105.356 162.5,100.5C 162.21,105.701 162.544,111.034 163.5,116.5C 158.156,116.334 152.823,116.501 147.5,117C 146.016,117.662 144.683,118.496 143.5,119.5 Z"/></g>
<g><path style="opacity:1" fill="#90dda1" d="M 140.5,112.5 C 143.983,111.916 146.983,112.749 149.5,115C 147.359,115.573 145.359,116.406 143.5,117.5C 141.071,117.585 139.071,118.585 137.5,120.5C 137.833,121.167 138.167,121.833 138.5,122.5C 138.229,125.047 137.229,127.047 135.5,128.5C 133.261,126.523 131.927,124.023 131.5,121C 131.522,118.817 132.522,117.317 134.5,116.5C 136.246,114.748 138.246,113.415 140.5,112.5 Z"/></g>
<g><path style="opacity:1" fill="#406a46" d="M 143.5,117.5 C 143.5,118.167 143.5,118.833 143.5,119.5C 138.289,122.893 137.289,127.227 140.5,132.5C 138.174,131.855 136.507,130.522 135.5,128.5C 137.229,127.047 138.229,125.047 138.5,122.5C 138.167,121.833 137.833,121.167 137.5,120.5C 139.071,118.585 141.071,117.585 143.5,117.5 Z"/></g>
<g><path style="opacity:1" fill="#2e634c" d="M 181.5,123.5 C 181.5,123.833 181.5,124.167 181.5,124.5C 178.167,124.5 174.833,124.5 171.5,124.5C 172.504,123.317 173.338,121.984 174,120.5C 174.374,121.416 174.874,122.25 175.5,123C 177.473,123.495 179.473,123.662 181.5,123.5 Z"/></g>
<g><path style="opacity:1" fill="#35322f" d="M 134.5,115.5 C 134.5,115.833 134.5,116.167 134.5,116.5C 132.522,117.317 131.522,118.817 131.5,121C 131.927,124.023 133.261,126.523 135.5,128.5C 136.507,130.522 138.174,131.855 140.5,132.5C 141.167,132.833 141.833,133.167 142.5,133.5C 145.628,135.231 147.961,134.398 149.5,131C 148.577,128.959 148.244,126.792 148.5,124.5C 155.362,128.095 161.696,132.428 167.5,137.5C 167.291,138.086 166.957,138.586 166.5,139C 159.759,140.185 153.092,141.685 146.5,143.5C 133.699,137.049 121.365,129.715 109.5,121.5C 108.269,120.349 108.269,119.183 109.5,118C 116.29,117.035 122.957,115.535 129.5,113.5C 131.3,113.902 132.967,114.569 134.5,115.5 Z"/></g>
<g><path style="opacity:1" fill="#21434a" d="M 155.5,123.5 C 158.835,124.852 162.335,125.519 166,125.5C 168.033,125.494 169.866,125.161 171.5,124.5C 174.833,124.5 178.167,124.5 181.5,124.5C 181.53,125.497 181.03,126.164 180,126.5C 176.726,124.822 173.893,125.322 171.5,128C 173.112,128.72 174.612,128.554 176,127.5C 176.925,128.047 177.758,128.713 178.5,129.5C 177.339,131.885 176.339,134.219 175.5,136.5C 172.983,134.265 169.983,132.765 166.5,132C 162.295,129.599 158.628,126.766 155.5,123.5 Z"/></g>
<g><path style="opacity:1" fill="#3f5f43" d="M 154.5,123.5 C 152.265,123.205 150.265,123.539 148.5,124.5C 148.244,126.792 148.577,128.959 149.5,131C 147.961,134.398 145.628,135.231 142.5,133.5C 148.247,132.247 148.914,129.58 144.5,125.5C 147.475,121.62 150.808,120.953 154.5,123.5 Z"/></g>
<g><path style="opacity:1" fill="#785c4c" d="M 91.5,109.5 C 92.4949,120.988 92.8283,132.655 92.5,144.5C 94.4147,144.216 96.0813,144.549 97.5,145.5C 92.8215,145.334 88.1548,145.501 83.5,146C 81.946,148.224 80.946,150.724 80.5,153.5C 74.4107,154.621 69.5774,157.621 66,162.5C 65.1482,161.429 64.3149,160.429 63.5,159.5C 59.8676,156.604 55.7009,154.937 51,154.5C 45.9049,155.899 40.7382,156.899 35.5,157.5C 35.385,155.053 34.385,153.053 32.5,151.5C 33.8333,151.5 35.1667,151.5 36.5,151.5C 36.0847,153.948 37.0847,155.281 39.5,155.5C 42.022,154.238 44.6887,153.571 47.5,153.5C 50.7131,153.81 53.7131,153.477 56.5,152.5C 58.0332,153.431 59.6998,154.098 61.5,154.5C 67.5478,153.291 73.5478,151.958 79.5,150.5C 79.719,149.325 79.3857,148.325 78.5,147.5C 73.0229,143.994 67.3562,140.994 61.5,138.5C 61.2046,135.266 61.8713,132.266 63.5,129.5C 65.3604,130.26 67.027,131.26 68.5,132.5C 68.2965,134.39 68.9632,135.89 70.5,137C 76.9184,141.195 83.9184,143.695 91.5,144.5C 91.5,132.833 91.5,121.167 91.5,109.5 Z"/></g>
<g><path style="opacity:1" fill="#34312f" d="M 68.5,132.5 C 67.027,131.26 65.3604,130.26 63.5,129.5C 61.8713,132.266 61.2046,135.266 61.5,138.5C 67.3562,140.994 73.0229,143.994 78.5,147.5C 79.3857,148.325 79.719,149.325 79.5,150.5C 73.5478,151.958 67.5478,153.291 61.5,154.5C 59.6998,154.098 58.0332,153.431 56.5,152.5C 48.9943,147.915 41.6609,143.081 34.5,138C 34.9054,137.055 35.572,136.388 36.5,136C 41.2518,135.145 45.9185,133.979 50.5,132.5C 51.8915,128.805 52.2249,125.138 51.5,121.5C 50.9094,120.849 50.2427,120.182 49.5,119.5C 51.3921,118.527 53.3921,117.86 55.5,117.5C 62.3629,120.177 66.6963,125.177 68.5,132.5 Z"/></g>
<g><path style="opacity:1" fill="#263e4e" d="M 97.5,145.5 C 98.4721,154.75 98.8055,164.083 98.5,173.5C 101.5,173.5 104.5,173.5 107.5,173.5C 107.5,171.833 107.5,170.167 107.5,168.5C 105.784,168.371 104.117,168.038 102.5,167.5C 102.167,167.5 101.833,167.5 101.5,167.5C 98.9698,163.765 98.9698,159.932 101.5,156C 102.793,155.51 104.127,155.343 105.5,155.5C 105.342,152.098 105.676,148.764 106.5,145.5C 110.767,145.203 114.934,145.536 119,146.5C 119.888,154.815 120.554,163.149 121,171.5C 124.062,173.687 127.562,174.687 131.5,174.5C 131.5,172.167 131.5,169.833 131.5,167.5C 132.473,169.948 132.806,172.615 132.5,175.5C 127.518,176.053 122.518,176.387 117.5,176.5C 117.822,170.642 117.489,164.975 116.5,159.5C 112.486,159.334 108.486,159.501 104.5,160C 103.167,161.333 103.167,162.667 104.5,164C 106.81,164.497 109.143,164.663 111.5,164.5C 111.5,168.833 111.5,173.167 111.5,177.5C 108.482,177.335 105.482,177.502 102.5,178C 101.272,179.49 101.272,180.99 102.5,182.5C 100.602,183.096 98.9354,183.096 97.5,182.5C 99.2838,179.192 98.2838,177.525 94.5,177.5C 94.5,168.167 94.5,158.833 94.5,149.5C 91.4816,149.335 88.4816,149.502 85.5,150C 83.9907,153.669 85.3241,155.169 89.5,154.5C 89.7989,156.604 89.4656,158.604 88.5,160.5C 81.6186,157.105 75.6186,158.105 70.5,163.5C 69.7784,163.082 69.2784,162.416 69,161.5C 67.5557,163.155 65.7224,163.822 63.5,163.5C 63.5,164.5 63.5,165.5 63.5,166.5C 60.9805,162.322 57.3139,159.655 52.5,158.5C 56.5295,156.739 59.8629,157.739 62.5,161.5C 63.2975,161.043 63.6309,160.376 63.5,159.5C 64.3149,160.429 65.1482,161.429 66,162.5C 69.5774,157.621 74.4107,154.621 80.5,153.5C 80.946,150.724 81.946,148.224 83.5,146C 88.1548,145.501 92.8215,145.334 97.5,145.5 Z"/></g>
<g><path style="opacity:1" fill="#6f4a33" d="M 23.5,138.5 C 31.8725,143.013 39.8725,148.013 47.5,153.5C 44.6887,153.571 42.022,154.238 39.5,155.5C 37.0847,155.281 36.0847,153.948 36.5,151.5C 35.1667,151.5 33.8333,151.5 32.5,151.5C 28.7629,147.698 25.7629,143.365 23.5,138.5 Z"/></g>
<g><path style="opacity:1" fill="#687b88" d="M 23.5,151.5 C 24.0431,151.56 24.3764,151.893 24.5,152.5C 20.5546,153.491 16.5546,153.824 12.5,153.5C 16.1667,152.833 19.8333,152.167 23.5,151.5 Z"/></g>
<g><path style="opacity:1" fill="#eff3f4" d="M 199.5,166.5 C 199.5,177.5 199.5,188.5 199.5,199.5C 193.833,199.5 188.167,199.5 182.5,199.5C 187.876,198.552 191.709,195.552 194,190.5C 194.169,183.476 194.669,176.476 195.5,169.5C 196.852,168.476 198.185,167.476 199.5,166.5 Z"/></g>
<g><path style="opacity:1" fill="#75655c" d="M 97.5,145.5 C 98.5,145.5 99.5,145.5 100.5,145.5C 100.5,148.5 100.5,151.5 100.5,154.5C 101.833,154.5 103.167,154.5 104.5,154.5C 104.336,151.813 104.503,149.146 105,146.5C 105.383,145.944 105.883,145.611 106.5,145.5C 105.676,148.764 105.342,152.098 105.5,155.5C 104.127,155.343 102.793,155.51 101.5,156C 98.9698,159.932 98.9698,163.765 101.5,167.5C 99.744,168.552 99.0773,170.219 99.5,172.5C 101.924,172.808 104.257,172.474 106.5,171.5C 105.133,170.16 103.8,168.827 102.5,167.5C 104.117,168.038 105.784,168.371 107.5,168.5C 107.5,170.167 107.5,171.833 107.5,173.5C 104.5,173.5 101.5,173.5 98.5,173.5C 98.8055,164.083 98.4721,154.75 97.5,145.5 Z"/></g>
<g><path style="opacity:1" fill="#203f52" d="M 19.5,132.5 C 20.4151,134.754 21.7484,136.754 23.5,138.5C 25.7629,143.365 28.7629,147.698 32.5,151.5C 34.385,153.053 35.385,155.053 35.5,157.5C 40.7382,156.899 45.9049,155.899 51,154.5C 55.7009,154.937 59.8676,156.604 63.5,159.5C 63.6309,160.376 63.2975,161.043 62.5,161.5C 59.8629,157.739 56.5295,156.739 52.5,158.5C 41.8378,157.997 36.6711,162.997 37,173.5C 38.6389,179.971 42.8056,183.304 49.5,183.5C 60.5981,182.922 65.2648,177.255 63.5,166.5C 63.5,165.5 63.5,164.5 63.5,163.5C 65.7224,163.822 67.5557,163.155 69,161.5C 69.2784,162.416 69.7784,163.082 70.5,163.5C 66.29,169.769 66.9566,175.603 72.5,181C 74.9,182.701 77.5666,183.534 80.5,183.5C 86.1404,182.707 91.807,182.374 97.5,182.5C 98.9354,183.096 100.602,183.096 102.5,182.5C 110.586,182.801 118.586,182.467 126.5,181.5C 127.661,181.589 127.994,179.922 127.5,176.5C 129.483,176.157 130.817,176.824 131.5,178.5C 131.33,179.822 131.663,180.989 132.5,182C 136.167,182.667 139.833,182.667 143.5,182C 145.161,178.85 144.161,177.35 140.5,177.5C 140.335,174.15 140.502,170.817 141,167.5C 147.219,161.333 150.719,162.499 151.5,171C 151.218,174.884 150.385,178.384 149,181.5C 152.409,182.622 155.909,182.789 159.5,182C 160.728,180.51 160.728,179.01 159.5,177.5C 160.222,175.056 159.889,172.556 158.5,170C 160.498,160.691 165.165,153.191 172.5,147.5C 173.429,148.689 173.762,150.022 173.5,151.5C 180.285,152.913 187.285,153.746 194.5,154C 196.584,154.697 198.251,155.864 199.5,157.5C 199.5,160.5 199.5,163.5 199.5,166.5C 198.185,167.476 196.852,168.476 195.5,169.5C 194.669,176.476 194.169,183.476 194,190.5C 191.709,195.552 187.876,198.552 182.5,199.5C 177.5,199.5 172.5,199.5 167.5,199.5C 165.856,198.684 164.69,197.35 164,195.5C 163.818,192.774 163.318,190.107 162.5,187.5C 135.302,187.687 107.968,188.354 80.5,189.5C 74.7979,189.545 69.9645,187.545 66,183.5C 56.4754,190.668 46.4754,191.335 36,185.5C 25.856,190.489 15.6893,190.655 5.5,186C 3.10896,183.363 1.10896,180.53 -0.5,177.5C -0.5,173.5 -0.5,169.5 -0.5,165.5C 1.89397,159.441 6.22731,155.441 12.5,153.5C 16.5546,153.824 20.5546,153.491 24.5,152.5C 24.3764,151.893 24.0431,151.56 23.5,151.5C 14.2377,138.722 8.90433,124.389 7.5,108.5C 7.50795,105.455 7.84128,102.455 8.5,99.5C 12.2407,98.5985 14.2407,99.9319 14.5,103.5C 12.8561,103.714 11.3561,103.38 10,102.5C 9.33333,104.5 9.33333,106.5 10,108.5C 10.779,115.134 12.4456,121.467 15,127.5C 15.8935,129.767 17.3935,131.434 19.5,132.5 Z"/></g>
<g><path style="opacity:1" fill="#846148" d="M 101.5,167.5 C 101.833,167.5 102.167,167.5 102.5,167.5C 103.8,168.827 105.133,170.16 106.5,171.5C 104.257,172.474 101.924,172.808 99.5,172.5C 99.0773,170.219 99.744,168.552 101.5,167.5 Z"/></g>
<g><path style="opacity:1" fill="#ccdeeb" d="M 18.5,169.5 C 20.0481,169.821 20.7148,170.821 20.5,172.5C 17.7524,172.598 17.0857,171.598 18.5,169.5 Z"/></g>
<g><path style="opacity:1" fill="#f2f7f9" d="M 14.5,158.5 C 20.1149,158.556 25.6149,159.223 31,160.5C 31.7772,163.429 31.6105,166.263 30.5,169C 29.8333,169.167 29.1667,169.333 28.5,169.5C 26.5998,168.553 25.2665,167.053 24.5,165C 17.4092,161.615 12.7426,163.615 10.5,171C 10.6983,174.401 12.3649,176.734 15.5,178C 21.1134,178.548 26.4468,177.881 31.5,176C 32.8602,177.938 32.5268,179.604 30.5,181C 22.6338,184.761 15.1338,184.261 8,179.5C 3.0396,170.113 5.20626,163.113 14.5,158.5 Z"/></g>
<g><path style="opacity:1" fill="#f1f7f8" d="M 159.5,177.5 C 160.728,179.01 160.728,180.51 159.5,182C 155.909,182.789 152.409,182.622 149,181.5C 150.385,178.384 151.218,174.884 151.5,171C 150.719,162.499 147.219,161.333 141,167.5C 140.502,170.817 140.335,174.15 140.5,177.5C 144.161,177.35 145.161,178.85 143.5,182C 139.833,182.667 136.167,182.667 132.5,182C 131.663,180.989 131.33,179.822 131.5,178.5C 132.708,177.766 134.041,177.433 135.5,177.5C 135.826,173.116 135.492,168.783 134.5,164.5C 132.783,163.332 132.116,161.665 132.5,159.5C 135.579,159.26 138.579,159.593 141.5,160.5C 147.944,156.95 153.111,158.283 157,164.5C 156.892,169.28 157.725,173.614 159.5,177.5 Z"/></g>
<g><path style="opacity:1" fill="#f0f5f7" d="M 52.5,158.5 C 57.3139,159.655 60.9805,162.322 63.5,166.5C 65.2648,177.255 60.5981,182.922 49.5,183.5C 42.8056,183.304 38.6389,179.971 37,173.5C 36.6711,162.997 41.8378,157.997 52.5,158.5 Z"/></g>
<g><path style="opacity:1" fill="#234153" d="M 47.5,163.5 C 57.1073,163.258 60.1073,167.424 56.5,176C 50.8821,179.81 46.0487,178.977 42,173.5C 41.477,168.88 43.3103,165.547 47.5,163.5 Z"/></g>
<g><path style="opacity:1" fill="#eff5f7" d="M 171.5,158.5 C 175.712,158.078 179.712,158.744 183.5,160.5C 186.438,159.425 189.438,159.259 192.5,160C 194.161,163.15 193.161,164.65 189.5,164.5C 189.666,171.841 189.5,179.174 189,186.5C 188.167,190 186,192.167 182.5,193C 178.5,193.667 174.5,193.667 170.5,193C 169.167,191.667 169.167,190.333 170.5,189C 174.167,188.667 177.833,188.333 181.5,188C 183.396,186.192 183.896,184.025 183,181.5C 170.254,185.622 163.921,180.955 164,167.5C 165.642,163.7 168.142,160.7 171.5,158.5 Z"/></g>
<g><path style="opacity:1" fill="#203e50" d="M 173.5,163.5 C 183.694,164.158 186.028,168.658 180.5,177C 172.173,179.003 168.673,175.836 170,167.5C 171.376,166.295 172.542,164.962 173.5,163.5 Z"/></g>
<g><path style="opacity:1" fill="#f9fdfd" d="M 116.5,159.5 C 116.5,165.5 116.5,171.5 116.5,177.5C 119.518,177.335 122.518,177.502 125.5,178C 126.337,179.011 126.67,180.178 126.5,181.5C 118.586,182.467 110.586,182.801 102.5,182.5C 101.272,180.99 101.272,179.49 102.5,178C 105.482,177.502 108.482,177.335 111.5,177.5C 111.5,173.167 111.5,168.833 111.5,164.5C 109.143,164.663 106.81,164.497 104.5,164C 103.167,162.667 103.167,161.333 104.5,160C 108.486,159.501 112.486,159.334 116.5,159.5 Z"/></g>
<g><path style="opacity:1" fill="#f2f7f9" d="M 97.5,182.5 C 91.807,182.374 86.1404,182.707 80.5,183.5C 77.5666,183.534 74.9,182.701 72.5,181C 66.9566,175.603 66.29,169.769 70.5,163.5C 75.6186,158.105 81.6186,157.105 88.5,160.5C 89.4656,158.604 89.7989,156.604 89.5,154.5C 85.3241,155.169 83.9907,153.669 85.5,150C 88.4816,149.502 91.4816,149.335 94.5,149.5C 94.5,158.833 94.5,168.167 94.5,177.5C 98.2838,177.525 99.2838,179.192 97.5,182.5 Z"/></g>
<g><path style="opacity:1" fill="#273f4f" d="M 78.5,163.5 C 88.1721,163.986 90.8388,168.486 86.5,177C 82.1319,179.292 78.1319,178.792 74.5,175.5C 72.4693,170.294 73.8026,166.294 78.5,163.5 Z"/></g>
<g><path style="opacity:1" fill="#726053" d="M 79.5,167.5 C 83.485,167.629 84.8183,169.463 83.5,173C 77.5456,174.227 76.2123,172.394 79.5,167.5 Z"/></g>
<g><path style="opacity:1" fill="#829dad" d="M 109.5,149.5 C 111.607,148.532 113.941,148.198 116.5,148.5C 116.795,150.735 116.461,152.735 115.5,154.5C 115.5,152.833 115.5,151.167 115.5,149.5C 113.5,149.5 111.5,149.5 109.5,149.5 Z"/></g>
<g><path style="opacity:1" fill="#f0f8f9" d="M 109.5,149.5 C 111.5,149.5 113.5,149.5 115.5,149.5C 115.5,151.167 115.5,152.833 115.5,154.5C 113.5,154.5 111.5,154.5 109.5,154.5C 109.5,152.833 109.5,151.167 109.5,149.5 Z"/></g>
<g><path style="opacity:1" fill="#fcfdfe" d="M -0.5,177.5 C 1.10896,180.53 3.10896,183.363 5.5,186C 15.6893,190.655 25.856,190.489 36,185.5C 46.4754,191.335 56.4754,190.668 66,183.5C 69.9645,187.545 74.7979,189.545 80.5,189.5C 107.968,188.354 135.302,187.687 162.5,187.5C 163.318,190.107 163.818,192.774 164,195.5C 164.69,197.35 165.856,198.684 167.5,199.5C 111.5,199.5 55.5,199.5 -0.5,199.5C -0.5,192.167 -0.5,184.833 -0.5,177.5 Z"/></g>
</svg>
