<?xml version="1.0" encoding="UTF-8"?>
<!DOCTYPE svg PUBLIC "-//W3C//DTD SVG 1.1//EN" "http://www.w3.org/Graphics/SVG/1.1/DTD/svg11.dtd">
<svg xmlns="http://www.w3.org/2000/svg" version="1.1" width="200px" height="200px" style="shape-rendering:geometricPrecision; text-rendering:geometricPrecision; image-rendering:optimizeQuality; fill-rule:evenodd; clip-rule:evenodd" xmlns:xlink="http://www.w3.org/1999/xlink">
<g><path style="opacity:1" fill="#fbfbfb" d="M -0.5,-0.5 C 66.1667,-0.5 132.833,-0.5 199.5,-0.5C 199.5,66.1667 199.5,132.833 199.5,199.5C 132.833,199.5 66.1667,199.5 -0.5,199.5C -0.5,132.833 -0.5,66.1667 -0.5,-0.5 Z"/></g>
<g><path style="opacity:1" fill="#252525" d="M 89.5,54.5 C 96.1667,57.1667 102.833,57.1667 109.5,54.5C 109.334,50.4862 109.501,46.4862 110,42.5C 114.522,37.9782 119.022,33.4782 123.5,29C 120.938,18.2281 124.938,14.2281 135.5,17C 141.205,22.8143 140.538,27.8143 133.5,32C 130.764,32.4217 128.098,32.4217 125.5,32C 121.333,36.1667 117.167,40.3333 113,44.5C 112.502,47.8168 112.335,51.1501 112.5,54.5C 115.187,54.6641 117.854,54.4974 120.5,54C 124.682,49.6513 129.015,45.4846 133.5,41.5C 144.833,40.8333 156.167,40.1667 167.5,39.5C 172.584,31.9394 178.084,31.6061 184,38.5C 184.976,48.0241 180.81,51.6908 171.5,49.5C 169.973,47.8067 168.64,45.9734 167.5,44C 156.833,43.3333 146.167,43.3333 135.5,44C 132.167,47.3333 128.833,50.6667 125.5,54C 132.632,53.1525 138.132,55.6525 142,61.5C 143.275,70.065 143.942,78.7316 144,87.5C 148.833,82.6667 153.667,77.8333 158.5,73C 161.553,72.8214 164.553,72.3214 167.5,71.5C 172.452,63.8748 177.952,63.5415 184,70.5C 184.944,80.2286 180.777,83.7286 171.5,81C 169.787,79.6218 168.453,77.9552 167.5,76C 164.833,75.3333 162.167,75.3333 159.5,76C 155,81.1667 150.167,86 145,90.5C 143.798,92.6775 143.298,95.0108 143.5,97.5C 151.528,97.831 159.528,97.4977 167.5,96.5C 171.166,89.9964 176.166,88.8298 182.5,93C 186.18,100.473 184.013,105.306 176,107.5C 172.023,106.859 169.189,104.692 167.5,101C 159.507,100.5 151.507,100.334 143.5,100.5C 143.34,102.199 143.506,103.866 144,105.5C 149.348,110.681 154.515,116.015 159.5,121.5C 162.167,122.833 164.833,122.833 167.5,121.5C 169.827,116.171 173.827,114.338 179.5,116C 185.747,120.514 186.08,125.514 180.5,131C 174.625,133.569 170.292,131.902 167.5,126C 164.5,125.667 161.5,125.333 158.5,125C 153.667,120.167 148.833,115.333 144,110.5C 143.911,119.242 143.244,127.909 142,136.5C 137.808,141.632 132.308,143.965 125.5,143.5C 128.345,146.844 131.345,150.011 134.5,153C 145.5,153.667 156.5,153.667 167.5,153C 171.752,146.773 176.919,145.94 183,150.5C 185.879,160.625 182.046,164.792 171.5,163C 169.393,161.736 168.393,159.903 168.5,157.5C 157.162,157.667 145.828,157.5 134.5,157C 129.965,152.297 125.298,147.797 120.5,143.5C 118.052,142.527 115.385,142.194 112.5,142.5C 112.185,146.371 112.518,150.038 113.5,153.5C 117.296,157.798 121.296,161.964 125.5,166C 131.638,163.962 136.138,165.795 139,171.5C 138.998,180.088 134.832,183.255 126.5,181C 125.333,179.833 124.167,178.667 123,177.5C 122.631,174.123 122.631,170.79 123,167.5C 118.667,163.167 114.333,158.833 110,154.5C 109.501,150.514 109.334,146.514 109.5,142.5C 106.833,142.5 104.167,142.5 101.5,142.5C 101.5,151.167 101.5,159.833 101.5,168.5C 103.903,168.393 105.736,169.393 107,171.5C 109,181.164 105.167,185.331 95.5,184C 91.7973,180.604 90.6306,176.437 92,171.5C 93.129,169.859 94.629,168.859 96.5,168.5C 97.8255,164.555 98.4921,160.222 98.5,155.5C 98.4991,150.987 98.1657,146.653 97.5,142.5C 94.8333,142.5 92.1667,142.5 89.5,142.5C 89.6655,146.514 89.4988,150.514 89,154.5C 84.6667,158.833 80.3333,163.167 76,167.5C 78.1658,179.003 73.6658,183.17 62.5,180C 58.2244,174.698 58.8911,170.031 64.5,166C 67.5716,165.544 70.5716,165.544 73.5,166C 77.7036,161.964 81.7036,157.798 85.5,153.5C 86.4816,150.038 86.815,146.371 86.5,142.5C 83.6146,142.194 80.9479,142.527 78.5,143.5C 73.7021,147.797 69.0355,152.297 64.5,157C 53.1716,157.5 41.8382,157.667 30.5,157.5C 29.767,161.893 27.1003,164.226 22.5,164.5C 15.432,162.135 13.2653,157.468 16,150.5C 22.0811,145.94 27.2477,146.773 31.5,153C 42.5,153.667 53.5,153.667 64.5,153C 67.6549,150.011 70.6549,146.844 73.5,143.5C 66.7365,143.96 61.2365,141.626 57,136.5C 55.7559,127.909 55.0892,119.242 55,110.5C 50.1667,115.333 45.3333,120.167 40.5,125C 37.5,125.333 34.5,125.667 31.5,126C 26.1676,134.406 20.6676,134.573 15,126.5C 13.9995,117.837 17.8329,114.337 26.5,116C 29.0327,117.033 30.6994,118.867 31.5,121.5C 34.1667,122.833 36.8333,122.833 39.5,121.5C 44.485,116.015 49.6516,110.681 55,105.5C 55.4935,103.866 55.6602,102.199 55.5,100.5C 47.4931,100.334 39.4931,100.5 31.5,101C 27.3069,108.441 22.1402,109.274 16,103.5C 12.9304,93.8993 16.4304,89.7326 26.5,91C 28.6922,92.3587 30.3589,94.1921 31.5,96.5C 39.4723,97.4977 47.4723,97.831 55.5,97.5C 55.7022,95.0108 55.2022,92.6775 54,90.5C 49.1396,85.6396 44.3063,80.8063 39.5,76C 36.8333,75.3333 34.1667,75.3333 31.5,76C 26.0834,84.3305 20.5834,84.4971 15,76.5C 13.6896,71.8064 15.1896,68.3064 19.5,66C 25.0511,64.6753 29.0511,66.5087 31.5,71.5C 34.4465,72.3214 37.4465,72.8214 40.5,73C 45.3333,77.8333 50.1667,82.6667 55,87.5C 55.0579,78.7316 55.7245,70.065 57,61.5C 60.8681,55.6525 66.3681,53.1525 73.5,54C 70.1667,50.6667 66.8333,47.3333 63.5,44C 52.8333,43.3333 42.1667,43.3333 31.5,44C 29.0826,49.2087 25.0826,51.2087 19.5,50C 12.936,44.6343 12.936,39.301 19.5,34C 24.8435,32.8376 28.8435,34.6709 31.5,39.5C 42.8187,40.3325 54.152,40.8325 65.5,41C 69.8333,45.3333 74.1667,49.6667 78.5,54C 81.146,54.4974 83.8127,54.6641 86.5,54.5C 86.665,51.1501 86.4983,47.8168 86,44.5C 81.8333,40.3333 77.6667,36.1667 73.5,32C 67.4089,34.037 62.9089,32.2036 60,26.5C 60.545,15.6343 65.545,12.9676 75,18.5C 76.7721,21.9118 76.9388,25.4118 75.5,29C 79.9782,33.4782 84.4782,37.9782 89,42.5C 89.4988,46.4862 89.6655,50.4862 89.5,54.5 Z"/></g>
<g><path style="opacity:1" fill="#efefef" d="M 173.5,118.5 C 180.628,118.706 182.294,121.873 178.5,128C 170.408,128.09 168.741,124.923 173.5,118.5 Z"/></g>
<g><path style="opacity:1" fill="#eaeaea" d="M 20.5,118.5 C 27.5244,118.489 29.5244,121.489 26.5,127.5C 20.6972,129.518 17.8639,127.518 18,121.5C 19.045,120.627 19.8783,119.627 20.5,118.5 Z"/></g>
<g><path style="opacity:1" fill="#e6e6e6" d="M 20.5,93.5 C 27.7454,93.5552 29.7454,96.7218 26.5,103C 21.6433,104.753 18.6433,103.253 17.5,98.5C 18.0924,96.5775 19.0924,94.9108 20.5,93.5 Z"/></g>
<g><path style="opacity:1" fill="#e9e9e9" d="M 173.5,93.5 C 180.745,93.5552 182.745,96.7218 179.5,103C 174.643,104.753 171.643,103.253 170.5,98.5C 171.092,96.5775 172.092,94.9108 173.5,93.5 Z"/></g>
<g><path style="opacity:1" fill="#e7e7e7" d="M 20.5,68.5 C 27.8071,68.606 29.8071,71.7727 26.5,78C 21.749,80.7245 18.749,79.3912 17.5,74C 18.1242,71.9149 19.1242,70.0816 20.5,68.5 Z"/></g>
<g><path style="opacity:1" fill="#e3e3e3" d="M 174.5,68.5 C 179.283,68.4486 181.45,70.7819 181,75.5C 177.76,80.7007 174.426,80.7007 171,75.5C 170.176,72.1604 171.343,69.827 174.5,68.5 Z"/></g>
<g><path style="opacity:1" fill="#fafafa" d="M 63.5,58.5 C 87.169,58.3334 110.836,58.5 134.5,59C 137,60.1667 138.833,62 140,64.5C 140.667,87.1667 140.667,109.833 140,132.5C 139.167,136 137,138.167 133.5,139C 110.5,139.667 87.5,139.667 64.5,139C 61.6193,137.749 59.786,135.583 59,132.5C 58.3333,109.833 58.3333,87.1667 59,64.5C 60.332,62.34 61.832,60.34 63.5,58.5 Z"/></g>
<g><path style="opacity:1" fill="#a0a0a0" d="M 109.5,120.5 C 110.043,120.56 110.376,120.893 110.5,121.5C 108.027,122.797 105.693,122.797 103.5,121.5C 105.735,121.795 107.735,121.461 109.5,120.5 Z"/></g>
<g><path style="opacity:1" fill="#9f9f9f" d="M 78.5,120.5 C 77.8478,121.725 76.6811,122.392 75,122.5C 73.6153,122.486 72.4486,122.152 71.5,121.5C 73.9496,121.702 76.283,121.369 78.5,120.5 Z"/></g>
<g><path style="opacity:1" fill="#797979" d="M 122.5,121.5 C 120.735,122.461 118.735,122.795 116.5,122.5C 116.5,106.833 116.5,91.1667 116.5,75.5C 118.833,75.5 121.167,75.5 123.5,75.5C 123.83,91.0091 123.496,106.342 122.5,121.5 Z"/></g>
<g><path style="opacity:1" fill="#020202" d="M 122.5,121.5 C 120.833,121.5 119.167,121.5 117.5,121.5C 117.5,106.5 117.5,91.5 117.5,76.5C 119.167,76.5 120.833,76.5 122.5,76.5C 122.5,91.5 122.5,106.5 122.5,121.5 Z"/></g>
<g><path style="opacity:1" fill="#141414" d="M 109.5,120.5 C 107.735,121.461 105.735,121.795 103.5,121.5C 102.462,117.087 101.128,112.753 99.5,108.5C 93.8333,107.167 88.1667,107.167 82.5,108.5C 80.5621,112.314 79.2287,116.314 78.5,120.5C 76.283,121.369 73.9496,121.702 71.5,121.5C 76.5624,106.48 81.7291,91.4799 87,76.5C 89.6667,75.1667 92.3333,75.1667 95,76.5C 99.9403,91.154 104.774,105.821 109.5,120.5 Z"/></g>
<g><path style="opacity:1" fill="#efefef" d="M 90.5,81.5 C 92.7988,88.0577 95.1321,94.7244 97.5,101.5C 93.2172,102.492 88.8839,102.826 84.5,102.5C 86.1039,95.3588 88.1039,88.3588 90.5,81.5 Z"/></g>
<g><path style="opacity:1" fill="#545454" d="M 97.5,32.5 C 98.1666,40.0104 98.8333,47.6771 99.5,55.5C 100.167,47.6771 100.833,40.0104 101.5,32.5C 101.5,39.8333 101.5,47.1667 101.5,54.5C 104.167,54.5 106.833,54.5 109.5,54.5C 102.833,57.1667 96.1667,57.1667 89.5,54.5C 92.1667,54.5 94.8333,54.5 97.5,54.5C 97.5,47.1667 97.5,39.8333 97.5,32.5 Z"/></g>
<g><path style="opacity:1" fill="#e5e5e5" d="M 174.5,36.5 C 179.757,36.688 181.924,39.3547 181,44.5C 174.412,49.5091 171.078,47.8424 171,39.5C 172.145,38.3636 173.312,37.3636 174.5,36.5 Z"/></g>
<g><path style="opacity:1" fill="#e6e6e6" d="M 21.5,36.5 C 28.9996,37.668 30.3329,41.168 25.5,47C 20.1597,47.9888 17.6597,45.8222 18,40.5C 18.6897,38.6498 19.8564,37.3164 21.5,36.5 Z"/></g>
<g><path style="opacity:1" fill="#242424" d="M 101.5,32.5 C 100.833,40.0104 100.167,47.6771 99.5,55.5C 98.8333,47.6771 98.1666,40.0104 97.5,32.5C 91.9356,29.9359 90.1023,25.6026 92,19.5C 97,14.1667 102,14.1667 107,19.5C 108.896,25.5655 107.062,29.8988 101.5,32.5 Z"/></g>
<g><path style="opacity:1" fill="#f1f1f1" d="M 127.5,19.5 C 135.877,19.2743 137.544,22.441 132.5,29C 125.474,28.7595 123.807,25.5928 127.5,19.5 Z"/></g>
<g><path style="opacity:1" fill="#f1f1f1" d="M 98.5,18.5 C 103.335,19.1605 105.168,21.8271 104,26.5C 99.4991,30.9162 96.3324,30.0829 94.5,24C 94.9009,21.44 96.2342,19.6066 98.5,18.5 Z"/></g>
<g><path style="opacity:1" fill="#eeeeee" d="M 65.5,19.5 C 73.8773,19.2743 75.544,22.441 70.5,29C 63.4877,28.8125 61.821,25.6458 65.5,19.5 Z"/></g>
<g><path style="opacity:1" fill="#b8b8b8" d="M 78.5,143.5 C 80.9479,142.527 83.6146,142.194 86.5,142.5C 86.815,146.371 86.4816,150.038 85.5,153.5C 85.5,150.167 85.5,146.833 85.5,143.5C 83.1667,143.5 80.8333,143.5 78.5,143.5 Z"/></g>
<g><path style="opacity:1" fill="#626262" d="M 97.5,142.5 C 98.1657,146.653 98.4991,150.987 98.5,155.5C 98.4921,160.222 97.8255,164.555 96.5,168.5C 97.4699,159.918 97.8032,151.251 97.5,142.5 Z"/></g>
<g><path style="opacity:1" fill="#b8b8b8" d="M 120.5,143.5 C 118.167,143.5 115.833,143.5 113.5,143.5C 113.5,146.833 113.5,150.167 113.5,153.5C 112.518,150.038 112.185,146.371 112.5,142.5C 115.385,142.194 118.052,142.527 120.5,143.5 Z"/></g>
<g><path style="opacity:1" fill="#f0f0f0" d="M 20.5,150.5 C 25.8351,150.005 28.3351,152.338 28,157.5C 24.6667,161.5 21.3333,161.5 18,157.5C 17.3333,156.167 17.3333,154.833 18,153.5C 19.045,152.627 19.8783,151.627 20.5,150.5 Z"/></g>
<g><path style="opacity:1" fill="#ededed" d="M 173.5,150.5 C 178.835,150.005 181.335,152.338 181,157.5C 177.667,161.5 174.333,161.5 171,157.5C 170.333,156.167 170.333,154.833 171,153.5C 172.045,152.627 172.878,151.627 173.5,150.5 Z"/></g>
<g><path style="opacity:1" fill="#efefef" d="M 65.5,168.5 C 72.8027,168.602 74.8027,171.769 71.5,178C 63.424,178.805 61.424,175.638 65.5,168.5 Z"/></g>
<g><path style="opacity:1" fill="#f0f0f0" d="M 128.5,168.5 C 135.632,168.789 137.298,171.956 133.5,178C 125.03,178.531 123.364,175.364 128.5,168.5 Z"/></g>
<g><path style="opacity:1" fill="#f3f3f3" d="M 96.5,171.5 C 104.877,171.274 106.544,174.441 101.5,181C 94.4741,180.759 92.8074,177.593 96.5,171.5 Z"/></g>
</svg>
