<?xml version="1.0" encoding="UTF-8"?>
<!DOCTYPE svg PUBLIC "-//W3C//DTD SVG 1.1//EN" "http://www.w3.org/Graphics/SVG/1.1/DTD/svg11.dtd">
<svg xmlns="http://www.w3.org/2000/svg" version="1.1" width="280px" height="280px" style="shape-rendering:geometricPrecision; text-rendering:geometricPrecision; image-rendering:optimizeQuality; fill-rule:evenodd; clip-rule:evenodd" xmlns:xlink="http://www.w3.org/1999/xlink">
<g><path style="opacity:0.999" fill="#355ba8" d="M -0.5,-0.5 C 92.8333,-0.5 186.167,-0.5 279.5,-0.5C 279.5,92.8333 279.5,186.167 279.5,279.5C 186.167,279.5 92.8333,279.5 -0.5,279.5C -0.5,186.167 -0.5,92.8333 -0.5,-0.5 Z"/></g>
<g><path style="opacity:1" fill="#f6f8fb" d="M 46.5,200.5 C 45.8333,200.5 45.5,200.167 45.5,199.5C 71.2244,188.14 95.891,174.974 119.5,160C 156.97,133.868 193.304,106.201 228.5,77C 234,71.5 239.5,66 245,60.5C 245.667,61.1667 245.667,61.8333 245,62.5C 239.609,69.5592 234.609,76.8926 230,84.5C 225.966,94.5898 228.466,102.423 237.5,108C 241.714,110.274 246.047,112.274 250.5,114C 239.951,112.977 230.784,108.81 223,101.5C 222.288,99.1526 221.121,97.1526 219.5,95.5C 187.15,121.351 153.817,145.851 119.5,169C 161.814,169.763 203.814,166.43 245.5,159C 254.185,158.14 254.518,156.473 246.5,154C 234.09,150.392 221.424,148.559 208.5,148.5C 208.967,154.535 206.134,157.535 200,157.5C 192.97,156.968 189.137,153.301 188.5,146.5C 184.154,146.666 179.821,146.499 175.5,146C 174.366,144.984 174.699,144.317 176.5,144C 201.614,141.458 226.614,142.458 251.5,147C 267.998,151.809 268.665,158.142 253.5,166C 240.159,170.168 226.493,172.501 212.5,173C 190.177,173.985 167.843,174.651 145.5,175C 125.318,175.409 105.651,178.742 86.5,185C 73.2567,190.457 59.9233,195.624 46.5,200.5 Z"/></g>
<g><path style="opacity:1" fill="#4565ae" d="M 193.5,146.5 C 195.989,146.298 198.323,146.798 200.5,148C 203.372,150.532 203.039,152.365 199.5,153.5C 195.304,152.975 193.304,150.641 193.5,146.5 Z"/></g>
<g><path style="opacity:1" fill="#a8b8d9" d="M 45.5,199.5 C 45.5,200.167 45.8333,200.5 46.5,200.5C 42.48,202.896 38.1467,204.396 33.5,205C 37.5717,203.257 41.5717,201.424 45.5,199.5 Z"/></g>
</svg>
