<?xml version="1.0" encoding="UTF-8"?>
<!DOCTYPE svg PUBLIC "-//W3C//DTD SVG 1.1//EN" "http://www.w3.org/Graphics/SVG/1.1/DTD/svg11.dtd">
<svg xmlns="http://www.w3.org/2000/svg" version="1.1" width="503px" height="283px" style="shape-rendering:geometricPrecision; text-rendering:geometricPrecision; image-rendering:optimizeQuality; fill-rule:evenodd; clip-rule:evenodd" xmlns:xlink="http://www.w3.org/1999/xlink">
<g><path style="opacity:0.787" fill="#060303" d="M 254.5,9.5 C 254.334,15.8421 254.5,22.1754 255,28.5C 255.333,28.1667 255.667,27.8333 256,27.5C 258.621,28.9915 261.455,29.6582 264.5,29.5C 264.833,31.5 265.167,33.5 265.5,35.5C 264.5,35.5 263.5,35.5 262.5,35.5C 261.5,34.1667 260.5,34.1667 259.5,35.5C 258.833,35.5 258.5,35.8333 258.5,36.5C 257.833,36.5 257.5,36.8333 257.5,37.5C 255.688,39.7896 254.355,42.4563 253.5,45.5C 253.667,46.5 253.833,47.5 254,48.5C 254.333,46.8333 254.667,45.1667 255,43.5C 258.555,45.0651 262.388,46.0651 266.5,46.5C 262.789,46.3397 259.123,46.8397 255.5,48C 259.486,48.4988 263.486,48.6655 267.5,48.5C 267.5,50.1667 267.5,51.8333 267.5,53.5C 266.596,54.209 266.263,55.209 266.5,56.5C 265.833,56.5 265.5,56.8333 265.5,57.5C 264.662,57.8417 264.328,58.5084 264.5,59.5C 263.833,59.5 263.5,59.8333 263.5,60.5C 262.833,60.5 262.5,60.8333 262.5,61.5C 261.833,61.5 261.5,61.8333 261.5,62.5C 260.508,62.3284 259.842,62.6618 259.5,63.5C 258.508,63.3284 257.842,63.6618 257.5,64.5C 256.508,64.3284 255.842,64.6618 255.5,65.5C 253.775,65.8425 253.275,66.8425 254,68.5C 254.278,67.5842 254.778,66.9175 255.5,66.5C 257.969,67.3171 260.635,67.8171 263.5,68C 260.833,68.3333 258.167,68.6667 255.5,69C 263.797,69.6255 271.797,71.4588 279.5,74.5C 284.131,77.1514 288.798,79.8181 293.5,82.5C 293.5,83.1667 293.833,83.5 294.5,83.5C 296.142,84.803 297.809,86.1363 299.5,87.5C 300.167,88.8333 300.833,88.8333 301.5,87.5C 302.833,86.8333 302.833,86.1667 301.5,85.5C 299.287,82.0295 297.954,78.1962 297.5,74C 297.525,70.1054 299.192,67.2721 302.5,65.5C 305.57,65.3677 308.57,65.701 311.5,66.5C 310.833,65.1667 309.833,64.1667 308.5,63.5C 308.5,62.8333 308.167,62.5 307.5,62.5C 305.189,59.853 302.856,57.1864 300.5,54.5C 301,54.1667 301.5,53.8333 302,53.5C 303.011,54.0556 303.844,54.7222 304.5,55.5C 304.5,56.1667 304.833,56.5 305.5,56.5C 305.5,57.1667 305.833,57.5 306.5,57.5C 306.5,58.1667 306.833,58.5 307.5,58.5C 307.5,59.1667 307.833,59.5 308.5,59.5C 308.5,60.1667 308.833,60.5 309.5,60.5C 309.5,61.1667 309.833,61.5 310.5,61.5C 310.5,62.1667 310.833,62.5 311.5,62.5C 311.5,63.1667 311.833,63.5 312.5,63.5C 312.5,64.1667 312.833,64.5 313.5,64.5C 313.5,65.1667 313.833,65.5 314.5,65.5C 314.5,66.1667 314.833,66.5 315.5,66.5C 315.5,67.1667 315.833,67.5 316.5,67.5C 316.5,68.1667 316.833,68.5 317.5,68.5C 317.783,69.2891 318.283,69.9558 319,70.5C 325.762,64.2437 331.929,57.577 337.5,50.5C 340.932,50.2479 341.932,51.5812 340.5,54.5C 334.014,60.4852 327.681,66.6519 321.5,73C 326.702,78.3697 332.035,83.5364 337.5,88.5C 337.5,89.8333 336.833,90.5 335.5,90.5C 333.833,88.1667 331.833,86.1667 329.5,84.5C 329.5,83.8333 329.167,83.5 328.5,83.5C 328.5,82.8333 328.167,82.5 327.5,82.5C 327.167,81.5 326.5,80.8333 325.5,80.5C 325.263,81.791 325.596,82.791 326.5,83.5C 326.326,85.861 325.993,88.1944 325.5,90.5C 324.833,90.5 324.5,90.8333 324.5,91.5C 323.833,91.5 323.5,91.8333 323.5,92.5C 322.833,92.5 322.5,92.8333 322.5,93.5C 321.508,93.3284 320.842,93.6618 320.5,94.5C 317.482,94.2962 314.482,93.9629 311.5,93.5C 311.027,92.0937 310.027,91.427 308.5,91.5C 308.158,90.6618 307.492,90.3284 306.5,90.5C 305.833,89.1667 305.167,89.1667 304.5,90.5C 303.167,91.1667 303.167,91.8333 304.5,92.5C 305.864,94.1911 307.197,95.8577 308.5,97.5C 308.5,98.1667 308.833,98.5 309.5,98.5C 311.515,101.869 313.515,105.202 315.5,108.5C 318.26,115.117 320.593,121.784 322.5,128.5C 323.833,136.833 323.833,145.167 322.5,153.5C 321.549,154.919 321.216,156.585 321.5,158.5C 320.596,159.209 320.263,160.209 320.5,161.5C 319.596,162.209 319.263,163.209 319.5,164.5C 318.596,165.209 318.263,166.209 318.5,167.5C 317.662,167.842 317.328,168.508 317.5,169.5C 316.326,170.514 315.66,171.847 315.5,173.5C 314.662,173.842 314.328,174.508 314.5,175.5C 313.662,175.842 313.328,176.508 313.5,177.5C 312.662,177.842 312.328,178.508 312.5,179.5C 311.833,179.5 311.5,179.833 311.5,180.5C 310.662,180.842 310.328,181.508 310.5,182.5C 309.833,182.5 309.5,182.833 309.5,183.5C 308.833,183.5 308.5,183.833 308.5,184.5C 307.662,184.842 307.328,185.508 307.5,186.5C 306.833,186.5 306.5,186.833 306.5,187.5C 305.833,187.5 305.5,187.833 305.5,188.5C 304.833,188.5 304.5,188.833 304.5,189.5C 303.833,189.5 303.5,189.833 303.5,190.5C 302.167,190.833 302.167,191.167 303.5,191.5C 303.5,192.167 303.833,192.5 304.5,192.5C 315.167,203.833 326.167,214.833 337.5,225.5C 337.5,226.833 336.833,227.5 335.5,227.5C 324.833,216.167 313.833,205.167 302.5,194.5C 302.5,193.833 302.167,193.5 301.5,193.5C 301.167,192.167 300.833,192.167 300.5,193.5C 299.833,193.5 299.5,193.833 299.5,194.5C 298.833,194.5 298.5,194.833 298.5,195.5C 297.833,195.5 297.5,195.833 297.5,196.5C 296.833,196.5 296.5,196.833 296.5,197.5C 295.508,197.328 294.842,197.662 294.5,198.5C 293.833,198.5 293.5,198.833 293.5,199.5C 292.833,199.5 292.5,199.833 292.5,200.5C 291.508,200.328 290.842,200.662 290.5,201.5C 289.833,201.5 289.5,201.833 289.5,202.5C 288.508,202.328 287.842,202.662 287.5,203.5C 286.508,203.328 285.842,203.662 285.5,204.5C 284.508,204.328 283.842,204.662 283.5,205.5C 282.833,205.5 282.5,205.833 282.5,206.5C 281.209,206.263 280.209,206.596 279.5,207.5C 278.508,207.328 277.842,207.662 277.5,208.5C 276.209,208.263 275.209,208.596 274.5,209.5C 273.209,209.263 272.209,209.596 271.5,210.5C 270.209,210.263 269.209,210.596 268.5,211.5C 266.585,211.216 264.919,211.549 263.5,212.5C 260.428,212.183 257.428,212.516 254.5,213.5C 254.624,214.107 254.957,214.44 255.5,214.5C 254.682,230.093 254.182,245.759 254,261.5C 253.667,245.167 253.333,228.833 253,212.5C 252.5,229.163 252.333,245.83 252.5,262.5C 251.5,262.5 250.5,262.5 249.5,262.5C 249.667,245.83 249.5,229.163 249,212.5C 248.667,228.833 248.333,245.167 248,261.5C 247.818,245.759 247.318,230.093 246.5,214.5C 247.043,214.44 247.376,214.107 247.5,213.5C 244.572,212.516 241.572,212.183 238.5,212.5C 231.784,210.593 225.117,208.26 218.5,205.5C 215.202,203.515 211.869,201.515 208.5,199.5C 208.5,198.833 208.167,198.5 207.5,198.5C 205.858,197.197 204.191,195.864 202.5,194.5C 202.5,193.833 202.167,193.5 201.5,193.5C 201.167,192.167 200.833,192.167 200.5,193.5C 199.833,193.5 199.5,193.833 199.5,194.5C 198.833,194.5 198.5,194.833 198.5,195.5C 197.833,195.5 197.5,195.833 197.5,196.5C 196.833,196.5 196.5,196.833 196.5,197.5C 195.833,197.5 195.5,197.833 195.5,198.5C 194.833,198.5 194.5,198.833 194.5,199.5C 193.833,199.5 193.5,199.833 193.5,200.5C 192.833,200.5 192.5,200.833 192.5,201.5C 191.833,201.5 191.5,201.833 191.5,202.5C 190.833,202.5 190.5,202.833 190.5,203.5C 189.833,203.5 189.5,203.833 189.5,204.5C 188.833,204.5 188.5,204.833 188.5,205.5C 187.833,205.5 187.5,205.833 187.5,206.5C 186.833,206.5 186.5,206.833 186.5,207.5C 185.833,207.5 185.5,207.833 185.5,208.5C 184.833,208.5 184.5,208.833 184.5,209.5C 183.833,209.5 183.5,209.833 183.5,210.5C 182.833,210.5 182.5,210.833 182.5,211.5C 181.833,211.5 181.5,211.833 181.5,212.5C 180.833,212.5 180.5,212.833 180.5,213.5C 179.833,213.5 179.5,213.833 179.5,214.5C 178.833,214.5 178.5,214.833 178.5,215.5C 177.833,215.5 177.5,215.833 177.5,216.5C 176.833,216.5 176.5,216.833 176.5,217.5C 175.833,217.5 175.5,217.833 175.5,218.5C 174.833,218.5 174.5,218.833 174.5,219.5C 173.833,219.5 173.5,219.833 173.5,220.5C 172.833,220.5 172.5,220.833 172.5,221.5C 171.833,221.5 171.5,221.833 171.5,222.5C 170.833,222.5 170.5,222.833 170.5,223.5C 169.833,223.5 169.5,223.833 169.5,224.5C 168.833,224.5 168.5,224.833 168.5,225.5C 167.833,225.5 167.5,225.833 167.5,226.5C 166.833,226.5 166.5,226.833 166.5,227.5C 164.972,227.483 164.472,226.816 165,225.5C 176.035,214.632 186.869,203.632 197.5,192.5C 198.167,192.5 198.5,192.167 198.5,191.5C 199.833,191.167 199.833,190.833 198.5,190.5C 198.5,189.833 198.167,189.5 197.5,189.5C 196.136,187.809 194.803,186.142 193.5,184.5C 193.5,183.833 193.167,183.5 192.5,183.5C 189.818,178.798 187.151,174.131 184.5,169.5C 175.234,144.494 177.901,120.827 192.5,98.5C 193.167,98.5 193.5,98.1667 193.5,97.5C 194.803,95.8577 196.136,94.1911 197.5,92.5C 198.833,91.8333 198.833,91.1667 197.5,90.5C 196.5,89.1667 195.5,89.1667 194.5,90.5C 192.847,90.6596 191.514,91.3263 190.5,92.5C 187.167,92.5 183.833,92.5 180.5,92.5C 178.537,91.1798 176.537,89.8465 174.5,88.5C 174.5,87.8333 174.167,87.5 173.5,87.5C 173.167,86.5 172.5,85.8333 171.5,85.5C 171.5,84.8333 171.167,84.5 170.5,84.5C 162.986,74.7878 159.82,63.7878 161,51.5C 162.011,50.6634 163.178,50.33 164.5,50.5C 171.073,58.578 178.24,66.2447 186,73.5C 186.717,72.9558 187.217,72.2891 187.5,71.5C 189.191,70.1363 190.858,68.803 192.5,67.5C 193.167,67.5 193.5,67.1667 193.5,66.5C 194.815,65.5244 196.148,64.5244 197.5,63.5C 201.955,68.2837 203.622,73.9504 202.5,80.5C 201.596,81.209 201.263,82.209 201.5,83.5C 200.833,83.5 200.5,83.8333 200.5,84.5C 199.167,85.5 199.167,86.5 200.5,87.5C 201.167,88.8333 201.833,88.8333 202.5,87.5C 204.191,86.1363 205.858,84.803 207.5,83.5C 208.167,83.5 208.5,83.1667 208.5,82.5C 219.967,74.7325 232.633,70.2325 246.5,69C 243.833,68.6667 241.167,68.3333 238.5,68C 241.365,67.8171 244.031,67.3171 246.5,66.5C 247.222,66.9175 247.722,67.5842 248,68.5C 248.725,66.8425 248.225,65.8425 246.5,65.5C 238.141,62.0812 234.474,56.0812 235.5,47.5C 239.634,48.4849 243.968,48.8182 248.5,48.5C 248.5,46.5 248.5,44.5 248.5,42.5C 245.276,42.7965 242.276,42.1298 239.5,40.5C 238.571,39.3112 238.238,37.9778 238.5,36.5C 241.005,36.9802 243.338,37.9802 245.5,39.5C 246.167,39.1667 246.833,38.8333 247.5,38.5C 249.286,34.3557 250.286,30.0224 250.5,25.5C 249.667,20.511 249.5,15.511 250,10.5C 250.308,9.69194 250.808,9.02527 251.5,8.5C 252.417,9.12723 253.417,9.46056 254.5,9.5 Z M 164.5,50.5 C 171.887,57.8909 179.554,64.8909 187.5,71.5C 187.217,72.2891 186.717,72.9558 186,73.5C 178.24,66.2447 171.073,58.578 164.5,50.5 Z M 337.5,50.5 C 331.929,57.577 325.762,64.2437 319,70.5C 318.283,69.9558 317.783,69.2891 317.5,68.5C 318.492,68.6716 319.158,68.3382 319.5,67.5C 325.5,61.8333 331.5,56.1667 337.5,50.5 Z M 164.5,57.5 C 163.833,57.5 163.5,57.8333 163.5,58.5C 162.427,57.7494 162.26,56.7494 163,55.5C 163.717,56.0442 164.217,56.7109 164.5,57.5 Z M 164.5,57.5 C 170.465,62.9638 176.298,68.6304 182,74.5C 182.692,75.4368 182.525,76.1034 181.5,76.5C 181.5,75.8333 181.167,75.5 180.5,75.5C 180.5,74.8333 180.167,74.5 179.5,74.5C 179.5,73.8333 179.167,73.5 178.5,73.5C 178.5,72.8333 178.167,72.5 177.5,72.5C 177.5,71.8333 177.167,71.5 176.5,71.5C 176.5,70.8333 176.167,70.5 175.5,70.5C 175.5,69.8333 175.167,69.5 174.5,69.5C 174.5,68.8333 174.167,68.5 173.5,68.5C 173.5,67.8333 173.167,67.5 172.5,67.5C 172.5,66.8333 172.167,66.5 171.5,66.5C 171.5,65.8333 171.167,65.5 170.5,65.5C 170.5,64.8333 170.167,64.5 169.5,64.5C 169.5,63.8333 169.167,63.5 168.5,63.5C 168.5,62.8333 168.167,62.5 167.5,62.5C 166.322,59.7835 165.322,59.4501 164.5,61.5C 163.596,60.791 163.263,59.791 163.5,58.5C 164.167,58.5 164.5,58.1667 164.5,57.5 Z M 168.5,63.5 C 169.167,63.5 169.5,63.8333 169.5,64.5C 170.167,64.5 170.5,64.8333 170.5,65.5C 171.167,65.5 171.5,65.8333 171.5,66.5C 172.167,66.5 172.5,66.8333 172.5,67.5C 173.167,67.5 173.5,67.8333 173.5,68.5C 174.167,68.5 174.5,68.8333 174.5,69.5C 175.167,69.5 175.5,69.8333 175.5,70.5C 176.167,70.5 176.5,70.8333 176.5,71.5C 177.167,71.5 177.5,71.8333 177.5,72.5C 178.167,72.5 178.5,72.8333 178.5,73.5C 179.167,73.5 179.5,73.8333 179.5,74.5C 180.167,74.5 180.5,74.8333 180.5,75.5C 178.911,76.6211 177.244,76.4544 175.5,75C 172.639,72.106 170.139,68.9393 168,65.5C 167.308,64.5632 167.475,63.8966 168.5,63.5 Z M 308.5,63.5 C 309.833,64.1667 310.833,65.1667 311.5,66.5C 308.57,65.701 305.57,65.3677 302.5,65.5C 302.5,65.1667 302.5,64.8333 302.5,64.5C 304.735,64.7947 306.735,64.4614 308.5,63.5 Z M 246.5,66.5 C 246.5,66.1667 246.5,65.8333 246.5,65.5C 248.225,65.8425 248.725,66.8425 248,68.5C 247.722,67.5842 247.222,66.9175 246.5,66.5 Z M 255.5,65.5 C 255.5,65.8333 255.5,66.1667 255.5,66.5C 254.778,66.9175 254.278,67.5842 254,68.5C 253.275,66.8425 253.775,65.8425 255.5,65.5 Z M 303.5,69.5 C 306.969,69.5465 310.302,70.2132 313.5,71.5C 313.5,72.1667 313.5,72.8333 313.5,73.5C 312.833,73.5 312.5,73.8333 312.5,74.5C 311.833,74.5 311.5,74.8333 311.5,75.5C 310.833,75.5 310.5,75.8333 310.5,76.5C 309.5,77.1667 308.5,77.8333 307.5,78.5C 305.5,76.1667 303.5,73.8333 301.5,71.5C 302.5,71.1667 303.167,70.5 303.5,69.5 Z M 315.5,71.5 C 316.525,71.8966 316.692,72.5632 316,73.5C 314.296,75.3734 312.463,77.0401 310.5,78.5C 310.5,77.8333 310.5,77.1667 310.5,76.5C 311.167,76.5 311.5,76.1667 311.5,75.5C 312.167,75.5 312.5,75.1667 312.5,74.5C 313.167,74.5 313.5,74.1667 313.5,73.5C 314.5,73.1667 315.167,72.5 315.5,71.5 Z M 318.5,76.5 C 319.623,75.2426 320.289,75.5759 320.5,77.5C 319.833,77.1667 319.167,76.8333 318.5,76.5 Z M 318.5,76.5 C 318.5,77.1667 318.5,77.8333 318.5,78.5C 317.833,78.5 317.5,78.8333 317.5,79.5C 316.833,79.5 316.167,79.5 315.5,79.5C 316.167,78.1667 317.167,77.1667 318.5,76.5 Z M 318.5,78.5 C 319.167,78.5 319.833,78.5 320.5,78.5C 320.833,81.1667 321.167,81.1667 321.5,78.5C 322.404,79.209 322.737,80.209 322.5,81.5C 321.527,83.9479 321.194,86.6146 321.5,89.5C 320.448,89.6495 319.448,89.4828 318.5,89C 316.963,87.2927 315.296,85.7927 313.5,84.5C 314.167,83.5 314.833,82.5 315.5,81.5C 316.5,81.1667 317.167,80.5 317.5,79.5C 318.167,79.5 318.5,79.1667 318.5,78.5 Z M 315.5,79.5 C 315.5,80.1667 315.5,80.8333 315.5,81.5C 314.833,81.5 314.167,81.5 313.5,81.5C 313.833,80.5 314.5,79.8333 315.5,79.5 Z M 325.5,80.5 C 326.5,80.8333 327.167,81.5 327.5,82.5C 326.833,82.5 326.5,82.8333 326.5,83.5C 325.596,82.791 325.263,81.791 325.5,80.5 Z M 238.5,212.5 C 241.572,212.183 244.572,212.516 247.5,213.5C 247.376,214.107 247.043,214.44 246.5,214.5C 243.833,213.833 241.167,213.167 238.5,212.5 Z M 263.5,212.5 C 260.833,213.167 258.167,213.833 255.5,214.5C 254.957,214.44 254.624,214.107 254.5,213.5C 257.428,212.516 260.428,212.183 263.5,212.5 Z"/></g>
<g><path style="opacity:0.004" fill="#000000" d="M 255.5,9.5 C 254.833,8.16667 254.833,8.16667 255.5,9.5 Z"/></g>
<g><path style="opacity:0.01" fill="#000000" d="M 255.5,9.5 C 256.65,14.3158 256.816,19.3158 256,24.5C 255.501,19.5111 255.334,14.5111 255.5,9.5 Z"/></g>
<g><path style="opacity:0.011" fill="#000000" d="M 247.5,10.5 C 248.638,13.3035 248.805,16.3035 248,19.5C 247.502,16.5184 247.335,13.5184 247.5,10.5 Z"/></g>
<g><path style="opacity:0.009" fill="#000000" d="M 266.5,35.5 C 266.351,34.448 266.517,33.448 267,32.5C 267.74,33.7494 267.573,34.7494 266.5,35.5 Z"/></g>
<g><path style="opacity:0.008" fill="#000000" d="M 259.5,35.5 C 260.5,35.5 261.5,35.5 262.5,35.5C 262.5,35.8333 262.5,36.1667 262.5,36.5C 260.629,36.8588 259.129,37.8588 258,39.5C 257.536,38.9056 257.369,38.2389 257.5,37.5C 258.167,37.5 258.5,37.1667 258.5,36.5C 259.167,36.5 259.5,36.1667 259.5,35.5 Z"/></g>
<g><path style="opacity:0.004" fill="#000100" d="M 265.5,35.5 C 265.833,35.5 266.167,35.5 266.5,35.5C 266.315,36.1701 265.981,36.1701 265.5,35.5 Z"/></g>
<g><path style="opacity:0.008" fill="#000000" d="M 262.5,36.5 C 263.5,36.5 264.5,36.5 265.5,36.5C 264.5,37.8333 263.5,37.8333 262.5,36.5 Z"/></g>
<g><path style="opacity:0.004" fill="#000000" d="M 235.5,47.5 C 238.701,45.7397 242.367,44.9064 246.5,45C 241.459,43.9924 241.792,43.4924 247.5,43.5C 247.762,44.9778 247.429,46.3112 246.5,47.5C 242.488,47.1604 238.822,47.1604 235.5,47.5 Z"/></g>
<g><path style="opacity:0.01" fill="#000000" d="M 232.5,48.5 C 233.613,49.9464 233.78,51.6131 233,53.5C 232.506,51.8659 232.34,50.1992 232.5,48.5 Z"/></g>
<g><path style="opacity:0.01" fill="#000000" d="M 268.5,53.5 C 268.34,51.8008 268.506,50.1341 269,48.5C 269.78,50.3869 269.613,52.0536 268.5,53.5 Z"/></g>
<g><path style="opacity:0.006" fill="#000000" d="M 301.5,52.5 C 301.897,51.475 302.563,51.3083 303.5,52C 302.906,52.4643 302.239,52.631 301.5,52.5 Z"/></g>
<g><path style="opacity:0.007" fill="#000000" d="M 342.5,51.5 C 343.573,52.2506 343.74,53.2506 343,54.5C 342.517,53.552 342.351,52.552 342.5,51.5 Z"/></g>
<g><path style="opacity:0.007" fill="#000100" d="M 267.5,53.5 C 267.833,53.5 268.167,53.5 268.5,53.5C 268.737,54.791 268.404,55.791 267.5,56.5C 267.5,55.5 267.5,54.5 267.5,53.5 Z"/></g>
<g><path style="opacity:0.008" fill="#000000" d="M 319.5,67.5 C 319.158,68.3382 318.492,68.6716 317.5,68.5C 316.833,68.5 316.5,68.1667 316.5,67.5C 315.833,67.5 315.5,67.1667 315.5,66.5C 314.833,66.5 314.5,66.1667 314.5,65.5C 313.833,65.5 313.5,65.1667 313.5,64.5C 312.833,64.5 312.5,64.1667 312.5,63.5C 311.833,63.5 311.5,63.1667 311.5,62.5C 310.833,62.5 310.5,62.1667 310.5,61.5C 309.833,61.5 309.5,61.1667 309.5,60.5C 308.833,60.5 308.5,60.1667 308.5,59.5C 307.833,59.5 307.5,59.1667 307.5,58.5C 306.833,58.5 306.5,58.1667 306.5,57.5C 305.833,57.5 305.5,57.1667 305.5,56.5C 304.833,56.5 304.5,56.1667 304.5,55.5C 304.369,54.7611 304.536,54.0944 305,53.5C 309.702,58.3699 314.535,63.0366 319.5,67.5 Z"/></g>
<g><path style="opacity:0.004" fill="#000000" d="M 298.5,54.5 C 299.833,55.1667 299.833,55.1667 298.5,54.5 Z"/></g>
<g><path style="opacity:0.012" fill="#000100" d="M 266.5,56.5 C 266.833,56.5 267.167,56.5 267.5,56.5C 267.315,57.1701 266.981,57.1701 266.5,56.5 Z"/></g>
<g><path style="opacity:0.006" fill="#000000" d="M 265.5,57.5 C 265.833,57.5 266.167,57.5 266.5,57.5C 266.672,58.4916 266.338,59.1583 265.5,59.5C 265.5,58.8333 265.5,58.1667 265.5,57.5 Z"/></g>
<g><path style="opacity:0.011" fill="#000000" d="M 167.5,62.5 C 166.833,62.8333 166.167,63.1667 165.5,63.5C 165.672,62.5084 165.338,61.8417 164.5,61.5C 165.322,59.4501 166.322,59.7835 167.5,62.5 Z"/></g>
<g><path style="opacity:0.012" fill="#000000" d="M 264.5,59.5 C 264.833,59.5 265.167,59.5 265.5,59.5C 265.315,60.1701 264.981,60.1701 264.5,59.5 Z"/></g>
<g><path style="opacity:0.016" fill="#000000" d="M 263.5,60.5 C 263.833,60.5 264.167,60.5 264.5,60.5C 264.315,61.1701 263.981,61.1701 263.5,60.5 Z"/></g>
<g><path style="opacity:0.012" fill="#000100" d="M 262.5,61.5 C 262.833,61.5 263.167,61.5 263.5,61.5C 263.315,62.1701 262.981,62.1701 262.5,61.5 Z"/></g>
<g><path style="opacity:0.012" fill="#000100" d="M 261.5,62.5 C 261.833,62.5 262.167,62.5 262.5,62.5C 262.315,63.1701 261.981,63.1701 261.5,62.5 Z"/></g>
<g><path style="opacity:0.013" fill="#000000" d="M 307.5,62.5 C 308.167,62.5 308.5,62.8333 308.5,63.5C 306.735,64.4614 304.735,64.7947 302.5,64.5C 304.028,63.6908 305.694,63.0241 307.5,62.5 Z"/></g>
<g><path style="opacity:0.008" fill="#000100" d="M 259.5,64.5 C 259.5,64.1667 259.5,63.8333 259.5,63.5C 260.167,63.5 260.833,63.5 261.5,63.5C 261.158,64.3382 260.492,64.6716 259.5,64.5 Z"/></g>
<g><path style="opacity:0.008" fill="#010101" d="M 257.5,64.5 C 258.167,64.5 258.833,64.5 259.5,64.5C 258.833,65.8333 258.167,65.8333 257.5,64.5 Z"/></g>
<g><path style="opacity:0.007" fill="#000000" d="M 193.5,66.5 C 192.833,66.5 192.5,66.8333 192.5,67.5C 190.025,67.2533 190.025,66.5866 192.5,65.5C 193.107,65.6236 193.44,65.9569 193.5,66.5 Z"/></g>
<g><path style="opacity:0.01" fill="#000000" d="M 301.5,69.5 C 302.167,69.5 302.833,69.5 303.5,69.5C 303.167,70.5 302.5,71.1667 301.5,71.5C 301.5,70.8333 301.5,70.1667 301.5,69.5 Z"/></g>
<g><path style="opacity:0.011" fill="#000000" d="M 203.5,80.5 C 203.335,77.1501 203.502,73.8168 204,70.5C 204.808,74.0267 204.641,77.3601 203.5,80.5 Z"/></g>
<g><path style="opacity:0.008" fill="#000000" d="M 313.5,71.5 C 314.167,71.5 314.833,71.5 315.5,71.5C 315.167,72.5 314.5,73.1667 313.5,73.5C 313.5,72.8333 313.5,72.1667 313.5,71.5 Z"/></g>
<g><path style="opacity:1" fill="#6424a4" d="M 240.5,72.5 C 243.5,72.5 246.5,72.5 249.5,72.5C 249.5,81.5 249.5,90.5 249.5,99.5C 236.496,99.6666 223.496,99.4999 210.5,99C 208.167,96.6667 205.833,94.3333 203.5,92C 213.94,81.7816 226.273,75.2816 240.5,72.5 Z"/></g>
<g><path style="opacity:1" fill="#6524a4" d="M 252.5,72.5 C 270.358,73.268 285.691,79.768 298.5,92C 296.167,94.3333 293.833,96.6667 291.5,99C 278.504,99.4999 265.504,99.6666 252.5,99.5C 252.5,90.5 252.5,81.5 252.5,72.5 Z"/></g>
<g><path style="opacity:0.01" fill="#000000" d="M 279.5,74.5 C 279.897,73.475 280.563,73.3083 281.5,74C 280.906,74.4643 280.239,74.631 279.5,74.5 Z"/></g>
<g><path style="opacity:0.012" fill="#000100" d="M 218.5,74.5 C 219.833,75.1667 219.833,75.1667 218.5,74.5 Z"/></g>
<g><path style="opacity:0.012" fill="#000000" d="M 282.5,74.5 C 283.833,75.1667 283.833,75.1667 282.5,74.5 Z"/></g>
<g><path style="opacity:0.009" fill="#010101" d="M 310.5,76.5 C 310.5,77.1667 310.5,77.8333 310.5,78.5C 309.833,78.5 309.5,78.8333 309.5,79.5C 308.833,79.5 308.167,79.5 307.5,79.5C 307.5,79.1667 307.5,78.8333 307.5,78.5C 308.5,77.8333 309.5,77.1667 310.5,76.5 Z"/></g>
<g><path style="opacity:0.008" fill="#000000" d="M 318.5,76.5 C 319.167,76.8333 319.833,77.1667 320.5,77.5C 320.5,77.8333 320.5,78.1667 320.5,78.5C 319.833,78.5 319.167,78.5 318.5,78.5C 318.5,77.8333 318.5,77.1667 318.5,76.5 Z"/></g>
<g><path style="opacity:0.007" fill="#010101" d="M 315.5,79.5 C 316.167,79.5 316.833,79.5 317.5,79.5C 317.167,80.5 316.5,81.1667 315.5,81.5C 315.5,80.8333 315.5,80.1667 315.5,79.5 Z"/></g>
<g><path style="opacity:0.008" fill="#000000" d="M 202.5,80.5 C 202.833,80.5 203.167,80.5 203.5,80.5C 203.737,81.791 203.404,82.791 202.5,83.5C 202.5,82.5 202.5,81.5 202.5,80.5 Z"/></g>
<g><path style="opacity:0.008" fill="#000000" d="M 208.5,82.5 C 207.833,82.5 207.5,82.8333 207.5,83.5C 205.025,83.2533 205.025,82.5866 207.5,81.5C 208.107,81.6236 208.44,81.9569 208.5,82.5 Z"/></g>
<g><path style="opacity:0.008" fill="#000000" d="M 293.5,82.5 C 294.497,81.2875 295.497,81.4542 296.5,83C 295.906,83.4643 295.239,83.631 294.5,83.5C 293.833,83.5 293.5,83.1667 293.5,82.5 Z"/></g>
<g><path style="opacity:0.008" fill="#000000" d="M 313.5,81.5 C 314.167,81.5 314.833,81.5 315.5,81.5C 314.833,82.5 314.167,83.5 313.5,84.5C 313.167,84.5 312.833,84.5 312.5,84.5C 312.5,83.8333 312.5,83.1667 312.5,82.5C 313.167,82.5 313.5,82.1667 313.5,81.5 Z"/></g>
<g><path style="opacity:0.012" fill="#000000" d="M 201.5,83.5 C 201.833,83.5 202.167,83.5 202.5,83.5C 202.315,84.1701 201.981,84.1701 201.5,83.5 Z"/></g>
<g><path style="opacity:0.008" fill="#000000" d="M 328.5,83.5 C 329.167,83.5 329.5,83.8333 329.5,84.5C 329.013,85.4734 328.513,86.4734 328,87.5C 327.235,85.9343 327.402,84.6009 328.5,83.5 Z"/></g>
<g><path style="opacity:0.007" fill="#000000" d="M 170.5,84.5 C 171.167,84.5 171.5,84.8333 171.5,85.5C 171.5,86.1667 171.5,86.8333 171.5,87.5C 169.618,86.779 169.285,85.779 170.5,84.5 Z"/></g>
<g><path style="opacity:0.011" fill="#000000" d="M 200.5,84.5 C 200.833,84.5 201.167,84.5 201.5,84.5C 201.557,85.609 201.89,86.609 202.5,87.5C 201.833,87.5 201.167,87.5 200.5,87.5C 200.5,86.5 200.5,85.5 200.5,84.5 Z"/></g>
<g><path style="opacity:0.014" fill="#000100" d="M 301.5,85.5 C 301.5,86.1667 301.5,86.8333 301.5,87.5C 300.833,87.5 300.167,87.5 299.5,87.5C 299.833,86.5 300.5,85.8333 301.5,85.5 Z"/></g>
<g><path style="opacity:0.006" fill="#000000" d="M 171.5,87.5 C 172.167,87.5 172.833,87.5 173.5,87.5C 174.167,87.5 174.5,87.8333 174.5,88.5C 173.221,89.7152 172.221,89.3818 171.5,87.5 Z"/></g>
<g><path style="opacity:0.004" fill="#040504" d="M 338.5,88.5 C 337.833,87.1667 337.833,87.1667 338.5,88.5 Z"/></g>
<g><path style="opacity:0.012" fill="#000000" d="M 326.5,90.5 C 326.369,89.7611 326.536,89.0944 327,88.5C 327.692,89.4368 327.525,90.1034 326.5,90.5 Z"/></g>
<g><path style="opacity:0.004" fill="#000100" d="M 338.5,88.5 C 339.833,89.1667 339.833,89.1667 338.5,88.5 Z"/></g>
<g><path style="opacity:0.011" fill="#010101" d="M 194.5,91.5 C 194.5,91.1667 194.5,90.8333 194.5,90.5C 195.5,90.5 196.5,90.5 197.5,90.5C 197.5,91.1667 197.5,91.8333 197.5,92.5C 196.609,91.8902 195.609,91.5569 194.5,91.5 Z"/></g>
<g><path style="opacity:0.013" fill="#000000" d="M 304.5,90.5 C 305.167,90.5 305.833,90.5 306.5,90.5C 306.5,90.8333 306.5,91.1667 306.5,91.5C 305.833,91.8333 305.167,92.1667 304.5,92.5C 304.5,91.8333 304.5,91.1667 304.5,90.5 Z"/></g>
<g><path style="opacity:0.012" fill="#000100" d="M 325.5,90.5 C 325.833,90.5 326.167,90.5 326.5,90.5C 326.315,91.1701 325.981,91.1701 325.5,90.5 Z"/></g>
<g><path style="opacity:0.004" fill="#000100" d="M 335.5,90.5 C 335.5,90.8333 335.5,91.1667 335.5,91.5C 334.83,91.0187 334.83,90.6853 335.5,90.5 Z"/></g>
<g><path style="opacity:0.012" fill="#000000" d="M 194.5,91.5 C 193.833,92.1667 193.833,92.1667 194.5,91.5 Z"/></g>
<g><path style="opacity:0.008" fill="#000000" d="M 306.5,91.5 C 307.167,91.5 307.833,91.5 308.5,91.5C 308.5,91.8333 308.5,92.1667 308.5,92.5C 307.508,92.6716 306.842,92.3382 306.5,91.5 Z"/></g>
<g><path style="opacity:0.008" fill="#010201" d="M 324.5,91.5 C 324.833,91.5 325.167,91.5 325.5,91.5C 325.315,92.1701 324.981,92.1701 324.5,91.5 Z"/></g>
<g><path style="opacity:0.004" fill="#010201" d="M 335.5,91.5 C 336.833,92.1667 336.833,92.1667 335.5,91.5 Z"/></g>
<g><path style="opacity:0.01" fill="#000000" d="M 180.5,92.5 C 180.103,93.525 179.437,93.6917 178.5,93C 179.094,92.5357 179.761,92.369 180.5,92.5 Z"/></g>
<g><path style="opacity:0.012" fill="#000000" d="M 190.5,93.5 C 190.5,93.1667 190.5,92.8333 190.5,92.5C 193.167,92.8333 193.167,93.1667 190.5,93.5 Z"/></g>
<g><path style="opacity:0.012" fill="#000100" d="M 308.5,92.5 C 309.833,93.1667 309.833,93.1667 308.5,92.5 Z"/></g>
<g><path style="opacity:0.008" fill="#000100" d="M 323.5,92.5 C 323.833,92.5 324.167,92.5 324.5,92.5C 324.315,93.1701 323.981,93.1701 323.5,92.5 Z"/></g>
<g><path style="opacity:0.01" fill="#000000" d="M 190.5,93.5 C 187.696,94.6378 184.696,94.8045 181.5,94C 184.482,93.502 187.482,93.3354 190.5,93.5 Z"/></g>
<g><path style="opacity:0.012" fill="#000000" d="M 311.5,93.5 C 310.833,94.1667 310.833,94.1667 311.5,93.5 Z"/></g>
<g><path style="opacity:0.012" fill="#000100" d="M 322.5,93.5 C 322.833,93.5 323.167,93.5 323.5,93.5C 323.315,94.1701 322.981,94.1701 322.5,93.5 Z"/></g>
<g><path style="opacity:0.012" fill="#000000" d="M 320.5,95.5 C 320.5,95.1667 320.5,94.8333 320.5,94.5C 321.167,94.5 321.833,94.5 322.5,94.5C 322.158,95.3382 321.492,95.6716 320.5,95.5 Z"/></g>
<g><path style="opacity:0.008" fill="#000100" d="M 193.5,97.5 C 192.833,97.5 192.5,97.8333 192.5,98.5C 191.287,97.5029 191.454,96.5029 193,95.5C 193.464,96.0944 193.631,96.7611 193.5,97.5 Z"/></g>
<g><path style="opacity:0.008" fill="#000000" d="M 309.5,98.5 C 308.833,98.5 308.5,98.1667 308.5,97.5C 308.747,95.0248 309.413,95.0248 310.5,97.5C 310.376,98.1067 310.043,98.44 309.5,98.5 Z"/></g>
<g><path style="opacity:0.006" fill="#000000" d="M 320.5,95.5 C 319.054,96.6129 317.387,96.7796 315.5,96C 317.134,95.5065 318.801,95.3398 320.5,95.5 Z"/></g>
<g><path style="opacity:1" fill="#6524a5" d="M 205.5,97.5 C 204.177,113.265 204.177,128.931 205.5,144.5C 205.269,155.493 208.936,164.827 216.5,172.5C 216.649,173.552 216.483,174.552 216,175.5C 211.63,179.702 207.463,184.036 203.5,188.5C 200.944,187.457 198.777,185.79 197,183.5C 180.169,159.381 178.169,134.048 191,107.5C 194.184,102.47 197.851,97.8036 202,93.5C 203.376,94.7051 204.542,96.0384 205.5,97.5 Z"/></g>
<g><path style="opacity:1" fill="#6424a4" d="M 298.5,188.5 C 294.143,183.148 289.81,177.814 285.5,172.5C 291.847,166.617 295.347,159.284 296,150.5C 296.167,142 296.333,133.5 296.5,125C 296.485,116.102 295.818,107.435 294.5,99C 297.84,93.3177 301.34,93.151 305,98.5C 324.257,126.809 324.257,155.142 305,183.5C 303.223,185.79 301.056,187.457 298.5,188.5 Z"/></g>
<g><path style="opacity:1" fill="#cda600" d="M 251.5,102.5 C 251.5,105.167 251.5,107.833 251.5,110.5C 249.901,110.232 248.568,110.566 247.5,111.5C 244.94,118.287 242.106,124.953 239,131.5C 237.722,127.835 236.556,124.168 235.5,120.5C 233.167,120.5 230.833,120.5 228.5,120.5C 230.53,127.423 232.863,134.257 235.5,141C 232.863,147.743 230.53,154.577 228.5,161.5C 230.792,161.756 232.959,161.423 235,160.5C 235.942,157.007 237.275,153.674 239,150.5C 241.922,157.092 244.756,163.758 247.5,170.5C 248.689,171.429 250.022,171.762 251.5,171.5C 251.5,179.5 251.5,187.5 251.5,195.5C 251.565,195.938 251.399,196.272 251,196.5C 241.9,190.366 233.067,183.866 224.5,177C 218.511,171.346 213.677,164.846 210,157.5C 208.553,139.222 208.053,120.889 208.5,102.5C 222.833,102.5 237.167,102.5 251.5,102.5 Z"/></g>
<g><path style="opacity:1" fill="#bc8f11" d="M 251.5,102.5 C 265.5,102.5 279.5,102.5 293.5,102.5C 293.961,120.902 293.461,139.235 292,157.5C 288.66,164.508 284.16,170.674 278.5,176C 269.795,183.009 260.795,189.509 251.5,195.5C 251.5,187.5 251.5,179.5 251.5,171.5C 252.675,171.719 253.675,171.386 254.5,170.5C 257.075,163.687 259.909,157.021 263,150.5C 264.674,154.021 265.84,157.687 266.5,161.5C 268.833,161.5 271.167,161.5 273.5,161.5C 271.374,154.456 269.041,147.456 266.5,140.5C 269.237,133.954 271.571,127.288 273.5,120.5C 271.208,120.244 269.041,120.577 267,121.5C 265.667,124.833 264.333,128.167 263,131.5C 259.802,125.069 257.302,118.402 255.5,111.5C 252.833,111.5 250.167,111.5 247.5,111.5C 248.568,110.566 249.901,110.232 251.5,110.5C 251.5,107.833 251.5,105.167 251.5,102.5 Z"/></g>
<g><path style="opacity:0.008" fill="#010101" d="M 316.5,108.5 C 316.167,108.5 315.833,108.5 315.5,108.5C 315.833,105.833 316.167,105.833 316.5,108.5 Z"/></g>
<g><path style="opacity:0.012" fill="#000000" d="M 184.5,108.5 C 185.833,109.167 185.833,109.167 184.5,108.5 Z"/></g>
<g><path style="opacity:0.012" fill="#000000" d="M 316.5,108.5 C 317.833,109.167 317.833,109.167 316.5,108.5 Z"/></g>
<g><path style="opacity:1" fill="#9a6800" d="M 247.5,111.5 C 250.167,111.5 252.833,111.5 255.5,111.5C 257.302,118.402 259.802,125.069 263,131.5C 264.333,128.167 265.667,124.833 267,121.5C 269.041,120.577 271.208,120.244 273.5,120.5C 271.571,127.288 269.237,133.954 266.5,140.5C 269.041,147.456 271.374,154.456 273.5,161.5C 271.167,161.5 268.833,161.5 266.5,161.5C 265.84,157.687 264.674,154.021 263,150.5C 259.909,157.021 257.075,163.687 254.5,170.5C 253.675,171.386 252.675,171.719 251.5,171.5C 250.022,171.762 248.689,171.429 247.5,170.5C 244.756,163.758 241.922,157.092 239,150.5C 237.275,153.674 235.942,157.007 235,160.5C 232.959,161.423 230.792,161.756 228.5,161.5C 230.53,154.577 232.863,147.743 235.5,141C 232.863,134.257 230.53,127.423 228.5,120.5C 230.833,120.5 233.167,120.5 235.5,120.5C 236.556,124.168 237.722,127.835 239,131.5C 242.106,124.953 244.94,118.287 247.5,111.5 Z"/></g>
<g><path style="opacity:1" fill="#42166f" d="M 205.5,97.5 C 206.289,97.7828 206.956,98.2828 207.5,99C 205.526,113.924 204.859,129.091 205.5,144.5C 204.177,128.931 204.177,113.265 205.5,97.5 Z"/></g>
<g><path style="opacity:0.009" fill="#000000" d="M 322.5,128.5 C 322.34,126.801 322.506,125.134 323,123.5C 323.78,125.387 323.613,127.054 322.5,128.5 Z"/></g>
<g><path style="opacity:1" fill="#bb8e11" d="M 251.5,118.5 C 254.335,125.664 257.002,132.997 259.5,140.5C 257.199,147.75 254.533,154.75 251.5,161.5C 251.5,147.167 251.5,132.833 251.5,118.5 Z"/></g>
<g><path style="opacity:1" fill="#cba401" d="M 251.5,118.5 C 251.5,132.833 251.5,147.167 251.5,161.5C 251.657,162.873 251.49,164.207 251,165.5C 248.264,157.124 245.43,148.791 242.5,140.5C 245.037,132.723 247.87,125.057 251,117.5C 251.399,117.728 251.565,118.062 251.5,118.5 Z"/></g>
<g><path style="opacity:0.009" fill="#000000" d="M 177.5,129.5 C 178.634,131.966 178.801,134.633 178,137.5C 177.503,134.854 177.336,132.187 177.5,129.5 Z"/></g>
<g><path style="opacity:0.008" fill="#000000" d="M 323.5,129.5 C 324.634,131.966 324.801,134.633 324,137.5C 323.503,134.854 323.336,132.187 323.5,129.5 Z"/></g>
<g><path style="opacity:0.004" fill="#000000" d="M 176.5,139.5 C 177.573,140.251 177.74,141.251 177,142.5C 176.517,141.552 176.351,140.552 176.5,139.5 Z"/></g>
<g><path style="opacity:0.004" fill="#000100" d="M 324.5,139.5 C 325.573,140.251 325.74,141.251 325,142.5C 324.517,141.552 324.351,140.552 324.5,139.5 Z"/></g>
<g><path style="opacity:0.008" fill="#000000" d="M 177.5,144.5 C 178.634,146.966 178.801,149.633 178,152.5C 177.503,149.854 177.336,147.187 177.5,144.5 Z"/></g>
<g><path style="opacity:0.009" fill="#000000" d="M 323.5,144.5 C 324.634,146.966 324.801,149.633 324,152.5C 323.503,149.854 323.336,147.187 323.5,144.5 Z"/></g>
<g><path style="opacity:0.009" fill="#000000" d="M 322.5,153.5 C 323.833,155.167 323.833,156.833 322.5,158.5C 322.5,156.833 322.5,155.167 322.5,153.5 Z"/></g>
<g><path style="opacity:0.009" fill="#000000" d="M 321.5,158.5 C 321.833,158.5 322.167,158.5 322.5,158.5C 322.737,159.791 322.404,160.791 321.5,161.5C 321.5,160.5 321.5,159.5 321.5,158.5 Z"/></g>
<g><path style="opacity:0.008" fill="#000000" d="M 354.5,160.5 C 354.897,159.475 355.563,159.308 356.5,160C 355.906,160.464 355.239,160.631 354.5,160.5 Z"/></g>
<g><path style="opacity:0.004" fill="#000100" d="M 155.5,160.5 C 156.833,161.167 156.833,161.167 155.5,160.5 Z"/></g>
<g><path style="opacity:0.661" fill="#000000" d="M 162.5,166.5 C 164.703,174.558 167.703,182.225 171.5,189.5C 172.833,190.833 174.167,192.167 175.5,193.5C 170.056,194.108 165.056,193.442 160.5,191.5C 161.833,191.5 163.167,191.5 164.5,191.5C 164.768,189.901 164.434,188.568 163.5,187.5C 163.737,186.209 163.404,185.209 162.5,184.5C 162.5,183.5 162.5,182.5 162.5,181.5C 158.833,181.5 155.167,181.5 151.5,181.5C 151.5,182.5 151.5,183.5 151.5,184.5C 150.596,185.209 150.263,186.209 150.5,187.5C 149.167,188.5 149.167,189.5 150.5,190.5C 151.718,191.161 153.051,191.828 154.5,192.5C 150.5,193.833 146.5,193.833 142.5,192.5C 145.256,190.909 147.089,188.576 148,185.5C 150.631,176.766 154.131,168.433 158.5,160.5C 160.017,162.397 161.35,164.397 162.5,166.5 Z M 157.5,173.5 C 157.328,174.492 157.662,175.158 158.5,175.5C 157.5,176.833 156.5,176.833 155.5,175.5C 156.167,174.833 156.833,174.167 157.5,173.5 Z M 154.5,175.5 C 154.791,176.649 155.624,177.316 157,177.5C 158.376,177.316 159.209,176.649 159.5,175.5C 160.404,176.209 160.737,177.209 160.5,178.5C 158.167,178.5 155.833,178.5 153.5,178.5C 153.263,177.209 153.596,176.209 154.5,175.5 Z M 162.5,184.5 C 162.167,184.5 161.833,184.5 161.5,184.5C 160.486,183.235 158.986,182.569 157,182.5C 155.014,182.569 153.514,183.235 152.5,184.5C 152.167,184.5 151.833,184.5 151.5,184.5C 151.5,183.5 151.5,182.5 151.5,181.5C 155.167,181.5 158.833,181.5 162.5,181.5C 162.5,182.5 162.5,183.5 162.5,184.5 Z M 163.5,187.5 C 164.434,188.568 164.768,189.901 164.5,191.5C 163.167,191.5 161.833,191.5 160.5,191.5C 160.5,191.167 160.5,190.833 160.5,190.5C 161.5,190.5 162.5,190.5 163.5,190.5C 163.5,189.5 163.5,188.5 163.5,187.5 Z"/></g>
<g><path style="opacity:0.687" fill="#000000" d="M 354.5,161.5 C 355.496,161.414 356.329,161.748 357,162.5C 357.498,165.817 357.665,169.15 357.5,172.5C 355.116,169.609 352.449,166.776 349.5,164C 346.633,163.199 343.966,163.366 341.5,164.5C 339.5,164.5 338.5,165.5 338.5,167.5C 334.17,175.046 334.837,182.212 340.5,189C 341.745,189.791 343.078,190.291 344.5,190.5C 347.618,192.007 350.285,191.34 352.5,188.5C 353.833,188.5 354.5,187.833 354.5,186.5C 355.482,185.859 356.482,185.193 357.5,184.5C 358.298,184.957 358.631,185.624 358.5,186.5C 357.833,186.5 357.5,186.833 357.5,187.5C 356.662,187.842 356.328,188.508 356.5,189.5C 354.205,190.475 352.205,191.808 350.5,193.5C 347.833,193.833 345.167,194.167 342.5,194.5C 329.602,189.347 326.102,180.347 332,167.5C 337.777,160.806 344.777,159.139 353,162.5C 353.765,162.43 354.265,162.097 354.5,161.5 Z M 341.5,164.5 C 340.833,165.833 339.833,166.833 338.5,167.5C 338.5,165.5 339.5,164.5 341.5,164.5 Z M 354.5,186.5 C 354.5,187.833 353.833,188.5 352.5,188.5C 352.833,187.5 353.5,186.833 354.5,186.5 Z"/></g>
<g><path style="opacity:0.008" fill="#000100" d="M 354.5,160.5 C 354.5,160.833 354.5,161.167 354.5,161.5C 353.83,161.019 353.83,160.685 354.5,160.5 Z"/></g>
<g><path style="opacity:0.01" fill="#000000" d="M 320.5,161.5 C 320.833,161.5 321.167,161.5 321.5,161.5C 321.737,162.791 321.404,163.791 320.5,164.5C 320.5,163.5 320.5,162.5 320.5,161.5 Z"/></g>
<g><path style="opacity:0.012" fill="#000000" d="M 335.5,161.5 C 336.833,162.167 336.833,162.167 335.5,161.5 Z"/></g>
<g><path style="opacity:0.008" fill="#000000" d="M 358.5,172.5 C 358.335,169.15 358.502,165.817 359,162.5C 359.808,166.027 359.641,169.36 358.5,172.5 Z"/></g>
<g><path style="opacity:0.01" fill="#000000" d="M 163.5,166.5 C 163.167,166.5 162.833,166.5 162.5,166.5C 162.833,163.833 163.167,163.833 163.5,166.5 Z"/></g>
<g><path style="opacity:0.008" fill="#000000" d="M 319.5,164.5 C 319.833,164.5 320.167,164.5 320.5,164.5C 320.737,165.791 320.404,166.791 319.5,167.5C 319.5,166.5 319.5,165.5 319.5,164.5 Z"/></g>
<g><path style="opacity:0.01" fill="#000000" d="M 152.5,166.5 C 153.525,166.897 153.692,167.563 153,168.5C 152.536,167.906 152.369,167.239 152.5,166.5 Z"/></g>
<g><path style="opacity:0.008" fill="#000100" d="M 163.5,166.5 C 164.525,166.897 164.692,167.563 164,168.5C 163.536,167.906 163.369,167.239 163.5,166.5 Z"/></g>
<g><path style="opacity:0.01" fill="#000000" d="M 318.5,167.5 C 318.833,167.5 319.167,167.5 319.5,167.5C 319.672,168.492 319.338,169.158 318.5,169.5C 318.5,168.833 318.5,168.167 318.5,167.5 Z"/></g>
<g><path style="opacity:0.01" fill="#000000" d="M 184.5,169.5 C 184.631,170.239 184.464,170.906 184,171.5C 183.308,170.563 183.475,169.897 184.5,169.5 Z"/></g>
<g><path style="opacity:0.01" fill="#000000" d="M 317.5,169.5 C 317.833,169.5 318.167,169.5 318.5,169.5C 318.167,172.167 317.833,172.167 317.5,169.5 Z"/></g>
<g><path style="opacity:0.011" fill="#000000" d="M 156.5,170.5 C 156.833,170.5 157.167,170.5 157.5,170.5C 157.5,171.5 157.5,172.5 157.5,173.5C 156.833,174.167 156.167,174.833 155.5,175.5C 155.5,174.5 155.5,173.5 155.5,172.5C 156.338,172.158 156.672,171.492 156.5,170.5 Z"/></g>
<g><path style="opacity:0.012" fill="#000000" d="M 184.5,172.5 C 185.833,173.167 185.833,173.167 184.5,172.5 Z"/></g>
<g><path style="opacity:0.012" fill="#000000" d="M 316.5,172.5 C 317.833,173.167 317.833,173.167 316.5,172.5 Z"/></g>
<g><path style="opacity:0.004" fill="#000000" d="M 357.5,172.5 C 357.833,172.5 358.167,172.5 358.5,172.5C 358.315,173.17 357.981,173.17 357.5,172.5 Z"/></g>
<g><path style="opacity:1" fill="#281140" d="M 285.5,172.5 C 289.81,177.814 294.143,183.148 298.5,188.5C 292.833,184.833 288.167,180.167 284.5,174.5C 284.328,173.508 284.662,172.842 285.5,172.5 Z"/></g>
<g><path style="opacity:0.008" fill="#000000" d="M 315.5,173.5 C 315.833,173.5 316.167,173.5 316.5,173.5C 316.672,174.492 316.338,175.158 315.5,175.5C 315.5,174.833 315.5,174.167 315.5,173.5 Z"/></g>
<g><path style="opacity:0.008" fill="#000000" d="M 357.5,173.5 C 357.103,174.525 356.437,174.692 355.5,174C 356.094,173.536 356.761,173.369 357.5,173.5 Z"/></g>
<g><path style="opacity:0.01" fill="#000000" d="M 149.5,174.5 C 150.525,174.897 150.692,175.563 150,176.5C 149.536,175.906 149.369,175.239 149.5,174.5 Z"/></g>
<g><path style="opacity:0.01" fill="#000000" d="M 154.5,175.5 C 154.833,175.5 155.167,175.5 155.5,175.5C 156.5,176.833 157.5,176.833 158.5,175.5C 158.833,175.5 159.167,175.5 159.5,175.5C 159.209,176.649 158.376,177.316 157,177.5C 155.624,177.316 154.791,176.649 154.5,175.5 Z"/></g>
<g><path style="opacity:0.008" fill="#000000" d="M 314.5,175.5 C 314.833,175.5 315.167,175.5 315.5,175.5C 315.672,176.492 315.338,177.158 314.5,177.5C 314.5,176.833 314.5,176.167 314.5,175.5 Z"/></g>
<g><path style="opacity:1" fill="#6424a4" d="M 218.5,175.5 C 228.839,183.668 239.339,191.668 250,199.5C 250.498,202.817 250.665,206.15 250.5,209.5C 231.887,209.417 216.221,202.751 203.5,189.5C 208.5,184.833 213.5,180.167 218.5,175.5 Z"/></g>
<g><path style="opacity:1" fill="#6524a5" d="M 284.5,174.5 C 288.167,180.167 292.833,184.833 298.5,188.5C 297.457,191.056 295.79,193.223 293.5,195C 281.037,204.12 267.037,208.954 251.5,209.5C 251.335,206.15 251.502,202.817 252,199.5C 262.995,191.334 273.828,183.001 284.5,174.5 Z"/></g>
<g><path style="opacity:0.008" fill="#000100" d="M 313.5,177.5 C 313.833,177.5 314.167,177.5 314.5,177.5C 314.672,178.492 314.338,179.158 313.5,179.5C 313.5,178.833 313.5,178.167 313.5,177.5 Z"/></g>
<g><path style="opacity:0.016" fill="#000100" d="M 312.5,179.5 C 312.833,179.5 313.167,179.5 313.5,179.5C 313.315,180.17 312.981,180.17 312.5,179.5 Z"/></g>
<g><path style="opacity:0.01" fill="#000000" d="M 311.5,180.5 C 311.833,180.5 312.167,180.5 312.5,180.5C 312.672,181.492 312.338,182.158 311.5,182.5C 311.5,181.833 311.5,181.167 311.5,180.5 Z"/></g>
<g><path style="opacity:0.016" fill="#000000" d="M 161.5,184.5 C 158.5,183.167 155.5,183.167 152.5,184.5C 153.514,183.235 155.014,182.569 157,182.5C 158.986,182.569 160.486,183.235 161.5,184.5 Z"/></g>
<g><path style="opacity:0.016" fill="#000000" d="M 310.5,182.5 C 310.833,182.5 311.167,182.5 311.5,182.5C 311.315,183.17 310.981,183.17 310.5,182.5 Z"/></g>
<g><path style="opacity:0.006" fill="#000100" d="M 355.5,183.5 C 355.897,182.475 356.563,182.308 357.5,183C 356.906,183.464 356.239,183.631 355.5,183.5 Z"/></g>
<g><path style="opacity:0.008" fill="#000000" d="M 192.5,183.5 C 193.167,183.5 193.5,183.833 193.5,184.5C 193.253,186.975 192.587,186.975 191.5,184.5C 191.624,183.893 191.957,183.56 192.5,183.5 Z"/></g>
<g><path style="opacity:0.008" fill="#000000" d="M 309.5,183.5 C 309.833,183.5 310.167,183.5 310.5,183.5C 310.573,185.027 309.906,186.027 308.5,186.5C 308.5,185.833 308.5,185.167 308.5,184.5C 309.167,184.5 309.5,184.167 309.5,183.5 Z"/></g>
<g><path style="opacity:1" fill="#2a1144" d="M 216.5,172.5 C 217.401,173.29 218.068,174.29 218.5,175.5C 213.5,180.167 208.5,184.833 203.5,189.5C 203.5,189.167 203.5,188.833 203.5,188.5C 207.463,184.036 211.63,179.702 216,175.5C 216.483,174.552 216.649,173.552 216.5,172.5 Z"/></g>
<g><path style="opacity:0.006" fill="#000000" d="M 359.5,186.5 C 359.369,185.761 359.536,185.094 360,184.5C 360.692,185.437 360.525,186.103 359.5,186.5 Z"/></g>
<g><path style="opacity:0.012" fill="#000100" d="M 307.5,186.5 C 307.833,186.5 308.167,186.5 308.5,186.5C 308.315,187.17 307.981,187.17 307.5,186.5 Z"/></g>
<g><path style="opacity:0.012" fill="#000100" d="M 358.5,186.5 C 358.833,186.5 359.167,186.5 359.5,186.5C 359.315,187.17 358.981,187.17 358.5,186.5 Z"/></g>
<g><path style="opacity:0.012" fill="#000000" d="M 150.5,187.5 C 151.309,188.469 152.309,189.302 153.5,190C 152.552,190.483 151.552,190.649 150.5,190.5C 150.5,189.5 150.5,188.5 150.5,187.5 Z"/></g>
<g><path style="opacity:0.014" fill="#000000" d="M 163.5,187.5 C 163.5,188.5 163.5,189.5 163.5,190.5C 162.5,190.5 161.5,190.5 160.5,190.5C 161.5,189.5 162.5,188.5 163.5,187.5 Z"/></g>
<g><path style="opacity:0.012" fill="#000000" d="M 172.5,189.5 C 172.167,189.5 171.833,189.5 171.5,189.5C 171.833,186.833 172.167,186.833 172.5,189.5 Z"/></g>
<g><path style="opacity:0.016" fill="#000100" d="M 306.5,187.5 C 306.833,187.5 307.167,187.5 307.5,187.5C 307.315,188.17 306.981,188.17 306.5,187.5 Z"/></g>
<g><path style="opacity:0.006" fill="#000000" d="M 357.5,187.5 C 357.833,187.5 358.167,187.5 358.5,187.5C 358.672,188.492 358.338,189.158 357.5,189.5C 357.5,188.833 357.5,188.167 357.5,187.5 Z"/></g>
<g><path style="opacity:0.016" fill="#000100" d="M 305.5,188.5 C 305.833,188.5 306.167,188.5 306.5,188.5C 306.315,189.17 305.981,189.17 305.5,188.5 Z"/></g>
<g><path style="opacity:0.016" fill="#000000" d="M 172.5,189.5 C 173.239,189.369 173.906,189.536 174.5,190C 173.563,190.692 172.897,190.525 172.5,189.5 Z"/></g>
<g><path style="opacity:0.014" fill="#000000" d="M 197.5,189.5 C 198.167,189.5 198.5,189.833 198.5,190.5C 198.5,190.833 198.5,191.167 198.5,191.5C 197.833,191.5 197.5,191.833 197.5,192.5C 196.167,191.5 196.167,190.5 197.5,189.5 Z"/></g>
<g><path style="opacity:0.014" fill="#000000" d="M 304.5,189.5 C 304.833,189.5 305.167,189.5 305.5,189.5C 305.737,190.791 305.404,191.791 304.5,192.5C 303.833,192.5 303.5,192.167 303.5,191.5C 303.5,191.167 303.5,190.833 303.5,190.5C 304.167,190.5 304.5,190.167 304.5,189.5 Z"/></g>
<g><path style="opacity:0.01" fill="#000000" d="M 344.5,190.5 C 345.601,189.402 346.934,189.235 348.5,190C 347.207,190.49 345.873,190.657 344.5,190.5 Z"/></g>
<g><path style="opacity:0.008" fill="#000000" d="M 356.5,189.5 C 356.833,189.5 357.167,189.5 357.5,189.5C 357.315,190.17 356.981,190.17 356.5,189.5 Z"/></g>
<g><path style="opacity:0.004" fill="#000000" d="M 140.5,191.5 C 141.833,192.167 141.833,192.167 140.5,191.5 Z"/></g>
<g><path style="opacity:0.004" fill="#000000" d="M 176.5,193.5 C 176.369,192.761 176.536,192.094 177,191.5C 177.692,192.437 177.525,193.103 176.5,193.5 Z"/></g>
<g><path style="opacity:0.004" fill="#000000" d="M 155.5,192.5 C 156.833,193.167 156.833,193.167 155.5,192.5 Z"/></g>
<g><path style="opacity:0.004" fill="#000000" d="M 175.5,193.5 C 175.833,193.5 176.167,193.5 176.5,193.5C 176.315,194.17 175.981,194.17 175.5,193.5 Z"/></g>
<g><path style="opacity:0.014" fill="#000000" d="M 200.5,193.5 C 200.833,193.5 201.167,193.5 201.5,193.5C 202.167,193.5 202.5,193.833 202.5,194.5C 201.791,195.404 200.791,195.737 199.5,195.5C 199.5,195.167 199.5,194.833 199.5,194.5C 200.167,194.5 200.5,194.167 200.5,193.5 Z"/></g>
<g><path style="opacity:0.014" fill="#000000" d="M 300.5,193.5 C 300.833,193.5 301.167,193.5 301.5,193.5C 302.167,193.5 302.5,193.833 302.5,194.5C 301.791,195.404 300.791,195.737 299.5,195.5C 299.5,195.167 299.5,194.833 299.5,194.5C 300.167,194.5 300.5,194.167 300.5,193.5 Z"/></g>
<g><path style="opacity:0.01" fill="#000000" d="M 350.5,194.5 C 350.5,194.167 350.5,193.833 350.5,193.5C 353.167,193.833 353.167,194.167 350.5,194.5 Z"/></g>
<g><path style="opacity:0.014" fill="#000000" d="M 142.5,195.5 C 145.976,194.357 149.642,194.19 153.5,195C 149.848,195.499 146.182,195.665 142.5,195.5 Z"/></g>
<g><path style="opacity:0.013" fill="#000000" d="M 175.5,194.5 C 170.684,195.65 165.684,195.816 160.5,195C 165.489,194.501 170.489,194.334 175.5,194.5 Z"/></g>
<g><path style="opacity:0.009" fill="#000000" d="M 342.5,194.5 C 341.749,195.573 340.749,195.74 339.5,195C 340.448,194.517 341.448,194.351 342.5,194.5 Z"/></g>
<g><path style="opacity:0.009" fill="#000000" d="M 350.5,194.5 C 349.749,195.573 348.749,195.74 347.5,195C 348.448,194.517 349.448,194.351 350.5,194.5 Z"/></g>
<g><path style="opacity:0.016" fill="#000000" d="M 198.5,195.5 C 198.833,195.5 199.167,195.5 199.5,195.5C 199.315,196.17 198.981,196.17 198.5,195.5 Z"/></g>
<g><path style="opacity:0.016" fill="#000100" d="M 298.5,195.5 C 298.833,195.5 299.167,195.5 299.5,195.5C 299.315,196.17 298.981,196.17 298.5,195.5 Z"/></g>
<g><path style="opacity:0.004" fill="#000000" d="M 343.5,196.5 C 344.251,195.427 345.251,195.26 346.5,196C 345.552,196.483 344.552,196.649 343.5,196.5 Z"/></g>
<g><path style="opacity:0.016" fill="#000000" d="M 197.5,196.5 C 197.833,196.5 198.167,196.5 198.5,196.5C 198.315,197.17 197.981,197.17 197.5,196.5 Z"/></g>
<g><path style="opacity:0.016" fill="#000000" d="M 297.5,196.5 C 297.833,196.5 298.167,196.5 298.5,196.5C 298.315,197.17 297.981,197.17 297.5,196.5 Z"/></g>
<g><path style="opacity:0.016" fill="#000100" d="M 196.5,197.5 C 196.833,197.5 197.167,197.5 197.5,197.5C 197.315,198.17 196.981,198.17 196.5,197.5 Z"/></g>
<g><path style="opacity:0.012" fill="#000000" d="M 296.5,197.5 C 296.833,197.5 297.167,197.5 297.5,197.5C 297.315,198.17 296.981,198.17 296.5,197.5 Z"/></g>
<g><path style="opacity:0.016" fill="#000100" d="M 195.5,198.5 C 195.833,198.5 196.167,198.5 196.5,198.5C 196.315,199.17 195.981,199.17 195.5,198.5 Z"/></g>
<g><path style="opacity:0.008" fill="#010101" d="M 207.5,198.5 C 208.167,198.5 208.5,198.833 208.5,199.5C 207.503,200.713 206.503,200.546 205.5,199C 206.094,198.536 206.761,198.369 207.5,198.5 Z"/></g>
<g><path style="opacity:0.008" fill="#000000" d="M 294.5,198.5 C 295.167,198.5 295.833,198.5 296.5,198.5C 296.027,199.906 295.027,200.573 293.5,200.5C 293.5,200.167 293.5,199.833 293.5,199.5C 294.167,199.5 294.5,199.167 294.5,198.5 Z"/></g>
<g><path style="opacity:0.016" fill="#000000" d="M 194.5,199.5 C 194.833,199.5 195.167,199.5 195.5,199.5C 195.315,200.17 194.981,200.17 194.5,199.5 Z"/></g>
<g><path style="opacity:0.016" fill="#000000" d="M 193.5,200.5 C 193.833,200.5 194.167,200.5 194.5,200.5C 194.315,201.17 193.981,201.17 193.5,200.5 Z"/></g>
<g><path style="opacity:0.016" fill="#000000" d="M 292.5,200.5 C 292.833,200.5 293.167,200.5 293.5,200.5C 293.315,201.17 292.981,201.17 292.5,200.5 Z"/></g>
<g><path style="opacity:0.02" fill="#000000" d="M 192.5,201.5 C 192.833,201.5 193.167,201.5 193.5,201.5C 193.315,202.17 192.981,202.17 192.5,201.5 Z"/></g>
<g><path style="opacity:0.008" fill="#000000" d="M 290.5,202.5 C 290.5,202.167 290.5,201.833 290.5,201.5C 291.167,201.5 291.833,201.5 292.5,201.5C 292.158,202.338 291.492,202.672 290.5,202.5 Z"/></g>
<g><path style="opacity:0.02" fill="#000000" d="M 191.5,202.5 C 191.833,202.5 192.167,202.5 192.5,202.5C 192.315,203.17 191.981,203.17 191.5,202.5 Z"/></g>
<g><path style="opacity:0.016" fill="#000100" d="M 289.5,202.5 C 289.833,202.5 290.167,202.5 290.5,202.5C 290.315,203.17 289.981,203.17 289.5,202.5 Z"/></g>
<g><path style="opacity:0.02" fill="#000100" d="M 190.5,203.5 C 190.833,203.5 191.167,203.5 191.5,203.5C 191.315,204.17 190.981,204.17 190.5,203.5 Z"/></g>
<g><path style="opacity:0.008" fill="#000000" d="M 287.5,204.5 C 287.5,204.167 287.5,203.833 287.5,203.5C 288.167,203.5 288.833,203.5 289.5,203.5C 289.158,204.338 288.492,204.672 287.5,204.5 Z"/></g>
<g><path style="opacity:0.02" fill="#000100" d="M 189.5,204.5 C 189.833,204.5 190.167,204.5 190.5,204.5C 190.315,205.17 189.981,205.17 189.5,204.5 Z"/></g>
<g><path style="opacity:0.008" fill="#000000" d="M 285.5,205.5 C 285.5,205.167 285.5,204.833 285.5,204.5C 286.167,204.5 286.833,204.5 287.5,204.5C 287.158,205.338 286.492,205.672 285.5,205.5 Z"/></g>
<g><path style="opacity:0.02" fill="#000100" d="M 188.5,205.5 C 188.833,205.5 189.167,205.5 189.5,205.5C 189.315,206.17 188.981,206.17 188.5,205.5 Z"/></g>
<g><path style="opacity:0.008" fill="#020302" d="M 218.5,205.5 C 218.5,205.833 218.5,206.167 218.5,206.5C 215.833,206.167 215.833,205.833 218.5,205.5 Z"/></g>
<g><path style="opacity:0.008" fill="#000000" d="M 283.5,206.5 C 283.5,206.167 283.5,205.833 283.5,205.5C 284.167,205.5 284.833,205.5 285.5,205.5C 285.158,206.338 284.492,206.672 283.5,206.5 Z"/></g>
<g><path style="opacity:0.02" fill="#000100" d="M 187.5,206.5 C 187.833,206.5 188.167,206.5 188.5,206.5C 188.315,207.17 187.981,207.17 187.5,206.5 Z"/></g>
<g><path style="opacity:0.012" fill="#000100" d="M 218.5,206.5 C 219.833,207.167 219.833,207.167 218.5,206.5 Z"/></g>
<g><path style="opacity:0.012" fill="#000000" d="M 282.5,206.5 C 282.833,206.5 283.167,206.5 283.5,206.5C 283.315,207.17 282.981,207.17 282.5,206.5 Z"/></g>
<g><path style="opacity:0.02" fill="#000100" d="M 186.5,207.5 C 186.833,207.5 187.167,207.5 187.5,207.5C 187.315,208.17 186.981,208.17 186.5,207.5 Z"/></g>
<g><path style="opacity:0.01" fill="#000000" d="M 279.5,208.5 C 279.5,208.167 279.5,207.833 279.5,207.5C 282.167,207.833 282.167,208.167 279.5,208.5 Z"/></g>
<g><path style="opacity:0.02" fill="#000100" d="M 185.5,208.5 C 185.833,208.5 186.167,208.5 186.5,208.5C 186.315,209.17 185.981,209.17 185.5,208.5 Z"/></g>
<g><path style="opacity:0.01" fill="#000000" d="M 277.5,209.5 C 277.5,209.167 277.5,208.833 277.5,208.5C 278.167,208.5 278.833,208.5 279.5,208.5C 279.158,209.338 278.492,209.672 277.5,209.5 Z"/></g>
<g><path style="opacity:0.02" fill="#000000" d="M 184.5,209.5 C 184.833,209.5 185.167,209.5 185.5,209.5C 185.315,210.17 184.981,210.17 184.5,209.5 Z"/></g>
<g><path style="opacity:0.007" fill="#000000" d="M 274.5,210.5 C 274.5,210.167 274.5,209.833 274.5,209.5C 275.5,209.5 276.5,209.5 277.5,209.5C 276.791,210.404 275.791,210.737 274.5,210.5 Z"/></g>
<g><path style="opacity:0.02" fill="#000000" d="M 183.5,210.5 C 183.833,210.5 184.167,210.5 184.5,210.5C 184.315,211.17 183.981,211.17 183.5,210.5 Z"/></g>
<g><path style="opacity:0.008" fill="#000000" d="M 271.5,211.5 C 271.5,211.167 271.5,210.833 271.5,210.5C 272.5,210.5 273.5,210.5 274.5,210.5C 273.791,211.404 272.791,211.737 271.5,211.5 Z"/></g>
<g><path style="opacity:0.02" fill="#000000" d="M 182.5,211.5 C 182.833,211.5 183.167,211.5 183.5,211.5C 183.315,212.17 182.981,212.17 182.5,211.5 Z"/></g>
<g><path style="opacity:0.009" fill="#000000" d="M 268.5,211.5 C 269.5,211.5 270.5,211.5 271.5,211.5C 270.5,212.833 269.5,212.833 268.5,211.5 Z"/></g>
<g><path style="opacity:0.02" fill="#000100" d="M 181.5,212.5 C 181.833,212.5 182.167,212.5 182.5,212.5C 182.315,213.17 181.981,213.17 181.5,212.5 Z"/></g>
<g><path style="opacity:0.02" fill="#000100" d="M 180.5,213.5 C 180.833,213.5 181.167,213.5 181.5,213.5C 181.315,214.17 180.981,214.17 180.5,213.5 Z"/></g>
<g><path style="opacity:0.02" fill="#000100" d="M 179.5,214.5 C 179.833,214.5 180.167,214.5 180.5,214.5C 180.315,215.17 179.981,215.17 179.5,214.5 Z"/></g>
<g><path style="opacity:0.02" fill="#000000" d="M 178.5,215.5 C 178.833,215.5 179.167,215.5 179.5,215.5C 179.315,216.17 178.981,216.17 178.5,215.5 Z"/></g>
<g><path style="opacity:0.02" fill="#000000" d="M 177.5,216.5 C 177.833,216.5 178.167,216.5 178.5,216.5C 178.315,217.17 177.981,217.17 177.5,216.5 Z"/></g>
<g><path style="opacity:0.02" fill="#000100" d="M 176.5,217.5 C 176.833,217.5 177.167,217.5 177.5,217.5C 177.315,218.17 176.981,218.17 176.5,217.5 Z"/></g>
<g><path style="opacity:0.02" fill="#000100" d="M 175.5,218.5 C 175.833,218.5 176.167,218.5 176.5,218.5C 176.315,219.17 175.981,219.17 175.5,218.5 Z"/></g>
<g><path style="opacity:0.008" fill="#000000" d="M 195.5,219.5 C 199.981,218.352 204.648,218.185 209.5,219C 204.845,219.499 200.179,219.666 195.5,219.5 Z"/></g>
<g><path style="opacity:0.007" fill="#000000" d="M 227.5,219.5 C 223.818,219.665 220.152,219.499 216.5,219C 220.358,218.19 224.024,218.357 227.5,219.5 Z"/></g>
<g><path style="opacity:0.01" fill="#000000" d="M 278.5,219.5 C 286.99,218.343 295.657,218.176 304.5,219C 295.84,219.5 287.173,219.666 278.5,219.5 Z"/></g>
<g><path style="opacity:0.02" fill="#000100" d="M 174.5,219.5 C 174.833,219.5 175.167,219.5 175.5,219.5C 175.315,220.17 174.981,220.17 174.5,219.5 Z"/></g>
<g><path style="opacity:0.004" fill="#000100" d="M 227.5,219.5 C 228.167,219.5 228.5,219.833 228.5,220.5C 228.167,220.167 227.833,219.833 227.5,219.5 Z"/></g>
<g><path style="opacity:0.02" fill="#000000" d="M 173.5,220.5 C 173.833,220.5 174.167,220.5 174.5,220.5C 174.315,221.17 173.981,221.17 173.5,220.5 Z"/></g>
<g><path style="opacity:0.663" fill="#000000" d="M 211.5,240.5 C 211.709,241.922 212.209,243.255 213,244.5C 213.483,243.552 213.649,242.552 213.5,241.5C 215.739,236.784 217.405,231.784 218.5,226.5C 219.404,225.791 219.737,224.791 219.5,223.5C 217.654,223.778 216.32,223.111 215.5,221.5C 219.445,220.509 223.445,220.176 227.5,220.5C 226.526,222.48 225.193,224.147 223.5,225.5C 222.662,225.842 222.328,226.508 222.5,227.5C 221.662,227.842 221.328,228.508 221.5,229.5C 220.596,230.209 220.263,231.209 220.5,232.5C 218.399,235.797 217.065,239.463 216.5,243.5C 215.069,244.78 214.402,246.447 214.5,248.5C 213.596,249.209 213.263,250.209 213.5,251.5C 212.533,252.806 211.199,253.473 209.5,253.5C 209.737,252.209 209.404,251.209 208.5,250.5C 207.935,246.463 206.601,242.797 204.5,239.5C 203.266,234.117 201.266,229.117 198.5,224.5C 196.958,223.859 195.624,222.859 194.5,221.5C 199.456,220.506 204.456,220.173 209.5,220.5C 209.5,221.5 209.5,222.5 209.5,223.5C 208.5,223.5 207.5,223.5 206.5,223.5C 206.78,229.664 208.446,235.33 211.5,240.5 Z M 211.5,240.5 C 212.167,240.833 212.833,241.167 213.5,241.5C 213.649,242.552 213.483,243.552 213,244.5C 212.209,243.255 211.709,241.922 211.5,240.5 Z"/></g>
<g><path style="opacity:0.006" fill="#000000" d="M 228.5,220.5 C 229.525,220.897 229.692,221.563 229,222.5C 228.536,221.906 228.369,221.239 228.5,220.5 Z"/></g>
<g><path style="opacity:0.652" fill="#000000" d="M 305.5,223.5 C 305.795,225.735 305.461,227.735 304.5,229.5C 304.167,228.5 303.5,227.833 302.5,227.5C 300.017,224.359 296.684,222.692 292.5,222.5C 291.584,222.543 290.917,222.876 290.5,223.5C 289.5,223.5 288.5,223.5 287.5,223.5C 287.5,227.167 287.5,230.833 287.5,234.5C 289.415,234.784 291.081,234.451 292.5,233.5C 294.176,232.817 294.843,231.483 294.5,229.5C 295.5,229.5 296.5,229.5 297.5,229.5C 297.073,233.824 296.739,238.158 296.5,242.5C 295.022,241.552 294.022,240.219 293.5,238.5C 292.791,237.596 291.791,237.263 290.5,237.5C 289.791,236.596 288.791,236.263 287.5,236.5C 287.182,241.032 287.515,245.366 288.5,249.5C 289.398,250.158 290.398,250.824 291.5,251.5C 286.833,252.833 282.167,252.833 277.5,251.5C 278.689,250.571 280.022,250.238 281.5,250.5C 281.5,241.5 281.5,232.5 281.5,223.5C 279.712,223.785 278.045,223.452 276.5,222.5C 276.709,221.914 277.043,221.414 277.5,221C 286.494,220.5 295.494,220.334 304.5,220.5C 304.263,221.791 304.596,222.791 305.5,223.5 Z M 290.5,223.5 C 290.5,223.833 290.5,224.167 290.5,224.5C 288.612,226.988 287.945,229.988 288.5,233.5C 289.833,233.5 291.167,233.5 292.5,233.5C 291.081,234.451 289.415,234.784 287.5,234.5C 287.5,230.833 287.5,227.167 287.5,223.5C 288.5,223.5 289.5,223.5 290.5,223.5 Z"/></g>
<g><path style="opacity:0.01" fill="#000000" d="M 306.5,223.5 C 306.167,223.5 305.833,223.5 305.5,223.5C 305.833,219.5 306.167,219.5 306.5,223.5 Z"/></g>
<g><path style="opacity:0.02" fill="#000000" d="M 172.5,221.5 C 172.833,221.5 173.167,221.5 173.5,221.5C 173.315,222.17 172.981,222.17 172.5,221.5 Z"/></g>
<g><path style="opacity:0.008" fill="#000000" d="M 192.5,221.5 C 193.833,222.167 193.833,222.167 192.5,221.5 Z"/></g>
<g><path style="opacity:0.004" fill="#000000" d="M 210.5,221.5 C 211.833,222.167 211.833,222.167 210.5,221.5 Z"/></g>
<g><path style="opacity:0.008" fill="#000000" d="M 213.5,221.5 C 214.833,222.167 214.833,222.167 213.5,221.5 Z"/></g>
<g><path style="opacity:0.004" fill="#000100" d="M 274.5,221.5 C 275.833,222.167 275.833,222.167 274.5,221.5 Z"/></g>
<g><path style="opacity:0.02" fill="#000000" d="M 171.5,222.5 C 171.833,222.5 172.167,222.5 172.5,222.5C 172.315,223.17 171.981,223.17 171.5,222.5 Z"/></g>
<g><path style="opacity:0.02" fill="#000000" d="M 170.5,223.5 C 170.833,223.5 171.167,223.5 171.5,223.5C 171.315,224.17 170.981,224.17 170.5,223.5 Z"/></g>
<g><path style="opacity:0.009" fill="#000000" d="M 306.5,223.5 C 307.613,224.946 307.78,226.613 307,228.5C 306.506,226.866 306.34,225.199 306.5,223.5 Z"/></g>
<g><path style="opacity:0.02" fill="#000000" d="M 169.5,224.5 C 169.833,224.5 170.167,224.5 170.5,224.5C 170.315,225.17 169.981,225.17 169.5,224.5 Z"/></g>
<g><path style="opacity:0.011" fill="#000000" d="M 198.5,224.5 C 198.304,226.646 197.304,226.812 195.5,225C 196.448,224.517 197.448,224.351 198.5,224.5 Z"/></g>
<g><path style="opacity:0.01" fill="#000000" d="M 218.5,226.5 C 217.711,226.217 217.044,225.717 216.5,225C 217.816,224.472 218.483,224.972 218.5,226.5 Z"/></g>
<g><path style="opacity:0.012" fill="#000000" d="M 224.5,225.5 C 224.897,224.475 225.563,224.308 226.5,225C 225.906,225.464 225.239,225.631 224.5,225.5 Z"/></g>
<g><path style="opacity:0.007" fill="#000000" d="M 277.5,225.5 C 278.209,224.596 279.209,224.263 280.5,224.5C 280.831,232.86 280.498,241.193 279.5,249.5C 279.113,245.608 279.113,241.442 279.5,237C 279.49,232.771 278.823,228.938 277.5,225.5 Z"/></g>
<g><path style="opacity:0.013" fill="#000000" d="M 290.5,224.5 C 289.612,227.054 289.279,229.721 289.5,232.5C 290.5,232.5 291.5,232.5 292.5,232.5C 292.5,232.833 292.5,233.167 292.5,233.5C 291.167,233.5 289.833,233.5 288.5,233.5C 287.945,229.988 288.612,226.988 290.5,224.5 Z"/></g>
<g><path style="opacity:0.008" fill="#000000" d="M 338.5,225.5 C 337.833,224.167 337.833,224.167 338.5,225.5 Z"/></g>
<g><path style="opacity:0.004" fill="#000000" d="M 162.5,225.5 C 163.833,226.167 163.833,226.167 162.5,225.5 Z"/></g>
<g><path style="opacity:0.02" fill="#000100" d="M 168.5,225.5 C 168.833,225.5 169.167,225.5 169.5,225.5C 169.315,226.17 168.981,226.17 168.5,225.5 Z"/></g>
<g><path style="opacity:0.012" fill="#000000" d="M 223.5,225.5 C 223.833,225.5 224.167,225.5 224.5,225.5C 224.672,226.492 224.338,227.158 223.5,227.5C 223.5,226.833 223.5,226.167 223.5,225.5 Z"/></g>
<g><path style="opacity:0.004" fill="#000000" d="M 338.5,225.5 C 339.833,226.167 339.833,226.167 338.5,225.5 Z"/></g>
<g><path style="opacity:0.012" fill="#000100" d="M 167.5,226.5 C 167.833,226.5 168.167,226.5 168.5,226.5C 168.315,227.17 167.981,227.17 167.5,226.5 Z"/></g>
<g><path style="opacity:0.008" fill="#000100" d="M 166.5,227.5 C 166.833,227.5 167.167,227.5 167.5,227.5C 167.315,228.17 166.981,228.17 166.5,227.5 Z"/></g>
<g><path style="opacity:0.012" fill="#000000" d="M 222.5,227.5 C 222.833,227.5 223.167,227.5 223.5,227.5C 223.672,228.492 223.338,229.158 222.5,229.5C 222.5,228.833 222.5,228.167 222.5,227.5 Z"/></g>
<g><path style="opacity:0.008" fill="#000100" d="M 295.5,227.5 C 296.833,228.167 296.833,228.167 295.5,227.5 Z"/></g>
<g><path style="opacity:0.016" fill="#000100" d="M 302.5,227.5 C 301.833,228.167 301.833,228.167 302.5,227.5 Z"/></g>
<g><path style="opacity:0.008" fill="#000000" d="M 335.5,227.5 C 335.5,227.833 335.5,228.167 335.5,228.5C 334.83,228.019 334.83,227.685 335.5,227.5 Z"/></g>
<g><path style="opacity:0.004" fill="#000000" d="M 166.5,228.5 C 165.833,229.167 165.833,229.167 166.5,228.5 Z"/></g>
<g><path style="opacity:0.004" fill="#000000" d="M 335.5,228.5 C 336.833,229.167 336.833,229.167 335.5,228.5 Z"/></g>
<g><path style="opacity:0.008" fill="#000000" d="M 221.5,229.5 C 221.833,229.5 222.167,229.5 222.5,229.5C 222.737,230.791 222.404,231.791 221.5,232.5C 221.5,231.5 221.5,230.5 221.5,229.5 Z"/></g>
<g><path style="opacity:0.009" fill="#000000" d="M 292.5,232.5 C 292.351,231.448 292.517,230.448 293,229.5C 293.74,230.749 293.573,231.749 292.5,232.5 Z"/></g>
<g><path style="opacity:0.004" fill="#000000" d="M 298.5,229.5 C 299.598,230.601 299.765,231.934 299,233.5C 298.51,232.207 298.343,230.873 298.5,229.5 Z"/></g>
<g><path style="opacity:0.004" fill="#000000" d="M 304.5,229.5 C 304.5,229.833 304.5,230.167 304.5,230.5C 303.83,230.019 303.83,229.685 304.5,229.5 Z"/></g>
<g><path style="opacity:0.004" fill="#000100" d="M 304.5,230.5 C 305.833,231.167 305.833,231.167 304.5,230.5 Z"/></g>
<g><path style="opacity:0.009" fill="#000000" d="M 220.5,232.5 C 220.833,232.5 221.167,232.5 221.5,232.5C 221.167,236.5 220.833,236.5 220.5,232.5 Z"/></g>
<g><path style="opacity:0.004" fill="#010201" d="M 297.5,236.5 C 298.573,237.251 298.74,238.251 298,239.5C 297.517,238.552 297.351,237.552 297.5,236.5 Z"/></g>
<g><path style="opacity:0.008" fill="#000000" d="M 213.5,241.5 C 212.833,241.167 212.167,240.833 211.5,240.5C 212.268,236.861 212.934,237.194 213.5,241.5 Z"/></g>
<g><path style="opacity:0.011" fill="#000000" d="M 290.5,237.5 C 290.5,237.833 290.5,238.167 290.5,238.5C 289.84,239.964 289.507,241.631 289.5,243.5C 289.613,245.641 290.28,247.475 291.5,249C 290.552,249.483 289.552,249.649 288.5,249.5C 287.911,245.029 288.577,241.029 290.5,237.5 Z"/></g>
<g><path style="opacity:0.01" fill="#000000" d="M 290.5,238.5 C 291.5,238.5 292.5,238.5 293.5,238.5C 293.657,239.873 293.49,241.207 293,242.5C 292.52,240.867 291.687,239.534 290.5,238.5 Z"/></g>
<g><path style="opacity:0.012" fill="#000000" d="M 204.5,239.5 C 204.631,240.239 204.464,240.906 204,241.5C 203.308,240.563 203.475,239.897 204.5,239.5 Z"/></g>
<g><path style="opacity:0.004" fill="#000000" d="M 297.5,242.5 C 297.369,241.761 297.536,241.094 298,240.5C 298.692,241.437 298.525,242.103 297.5,242.5 Z"/></g>
<g><path style="opacity:0.004" fill="#000000" d="M 296.5,242.5 C 296.833,242.5 297.167,242.5 297.5,242.5C 297.315,243.17 296.981,243.17 296.5,242.5 Z"/></g>
<g><path style="opacity:0.012" fill="#000100" d="M 216.5,243.5 C 217.525,243.897 217.692,244.563 217,245.5C 216.536,244.906 216.369,244.239 216.5,243.5 Z"/></g>
<g><path style="opacity:0.006" fill="#000000" d="M 296.5,243.5 C 296.103,244.525 295.437,244.692 294.5,244C 295.094,243.536 295.761,243.369 296.5,243.5 Z"/></g>
<g><path style="opacity:0.012" fill="#000000" d="M 215.5,248.5 C 215.369,247.761 215.536,247.094 216,246.5C 216.692,247.437 216.525,248.103 215.5,248.5 Z"/></g>
<g><path style="opacity:0.008" fill="#000000" d="M 214.5,248.5 C 214.833,248.5 215.167,248.5 215.5,248.5C 215.737,249.791 215.404,250.791 214.5,251.5C 214.5,250.5 214.5,249.5 214.5,248.5 Z"/></g>
<g><path style="opacity:0.012" fill="#000000" d="M 208.5,250.5 C 208.631,251.239 208.464,251.906 208,252.5C 207.308,251.563 207.475,250.897 208.5,250.5 Z"/></g>
<g><path style="opacity:0.012" fill="#000000" d="M 213.5,251.5 C 213.833,251.5 214.167,251.5 214.5,251.5C 214.315,252.17 213.981,252.17 213.5,251.5 Z"/></g>
<g><path style="opacity:0.004" fill="#000000" d="M 275.5,251.5 C 276.833,252.167 276.833,252.167 275.5,251.5 Z"/></g>
<g><path style="opacity:0.004" fill="#000000" d="M 292.5,251.5 C 293.833,252.167 293.833,252.167 292.5,251.5 Z"/></g>
<g><path style="opacity:0.01" fill="#000000" d="M 278.5,254.5 C 281.976,253.357 285.642,253.19 289.5,254C 285.848,254.499 282.182,254.665 278.5,254.5 Z"/></g>
<g><path style="opacity:0.004" fill="#000000" d="M 210.5,255.5 C 210.897,254.475 211.563,254.308 212.5,255C 211.906,255.464 211.239,255.631 210.5,255.5 Z"/></g>
<g><path style="opacity:0.008" fill="#000000" d="M 250.5,263.5 C 251.833,264.167 251.833,264.167 250.5,263.5 Z"/></g>
</svg>
