<?xml version="1.0" encoding="UTF-8"?>
<!DOCTYPE svg PUBLIC "-//W3C//DTD SVG 1.1//EN" "http://www.w3.org/Graphics/SVG/1.1/DTD/svg11.dtd">
<svg xmlns="http://www.w3.org/2000/svg" version="1.1" width="200px" height="200px" style="shape-rendering:geometricPrecision; text-rendering:geometricPrecision; image-rendering:optimizeQuality; fill-rule:evenodd; clip-rule:evenodd" xmlns:xlink="http://www.w3.org/1999/xlink">
<g><path style="opacity:1" fill="#fdfdfd" d="M -0.5,-0.5 C 47.1667,-0.5 94.8333,-0.5 142.5,-0.5C 136.406,1.31235 129.906,2.31235 123,2.5C 108.521,1.55886 94.0205,1.22553 79.5,1.5C 79.5,2.83333 79.5,4.16667 79.5,5.5C 101.354,4.4209 122.354,3.9209 142.5,4C 145.187,2.95137 147.52,1.45137 149.5,-0.5C 166.167,-0.5 182.833,-0.5 199.5,-0.5C 199.5,29.1667 199.5,58.8333 199.5,88.5C 196.942,86.4498 194.442,84.1165 192,81.5C 190.098,77.2608 187.765,73.2608 185,69.5C 184.329,68.7476 183.496,68.4142 182.5,68.5C 180.92,65.3408 179.92,62.0075 179.5,58.5C 177.5,58.5 175.5,58.5 173.5,58.5C 173.578,54.6264 172.911,50.9598 171.5,47.5C 172.839,44.3118 173.339,40.9784 173,37.5C 172.586,37.0426 172.086,36.7093 171.5,36.5C 170.194,37.9122 169.36,39.5789 169,41.5C 167.076,39.9913 165.909,37.9913 165.5,35.5C 166.698,35.0604 167.865,34.727 169,34.5C 169.854,32.3927 169.188,31.0593 167,30.5C 166.055,30.9054 165.388,31.572 165,32.5C 164.837,30.324 164.004,28.4907 162.5,27C 163.517,25.9505 163.684,24.7839 163,23.5C 161.599,25.1922 159.766,25.8588 157.5,25.5C 155.252,22.672 153.252,19.672 151.5,16.5C 150.766,15.2921 150.433,13.9587 150.5,12.5C 140.5,12.5 130.5,12.5 120.5,12.5C 120.389,11.8826 120.056,11.3826 119.5,11C 102.153,10.7775 84.8192,10.2775 67.5,9.5C 60.8316,10.2274 54.1649,10.894 47.5,11.5C 47.5,12.8333 47.5,14.1667 47.5,15.5C 47.5,15.8333 47.5,16.1667 47.5,16.5C 46.5116,17.795 45.5116,19.1283 44.5,20.5C 41.0056,22.8538 38.8389,26.1872 38,30.5C 35.259,32.0674 34.0923,34.4007 34.5,37.5C 28.4967,39.4602 25.6633,43.4602 26,49.5C 24.3924,53.0403 22.0591,56.0403 19,58.5C 18.433,61.1677 17.933,63.8344 17.5,66.5C 16.1667,69.1667 14.8333,71.8333 13.5,74.5C 12.3121,73.3157 11.1455,73.3157 10,74.5C 8.49256,78.8445 6.99256,83.1778 5.5,87.5C 2.65198,89.1052 0.651981,91.4385 -0.5,94.5C -0.5,62.8333 -0.5,31.1667 -0.5,-0.5 Z"/></g>
<g><path style="opacity:1" fill="#fdfef6" d="M 142.5,-0.5 C 144.833,-0.5 147.167,-0.5 149.5,-0.5C 147.52,1.45137 145.187,2.95137 142.5,4C 122.354,3.9209 101.354,4.4209 79.5,5.5C 79.5,4.16667 79.5,2.83333 79.5,1.5C 94.0205,1.22553 108.521,1.55886 123,2.5C 129.906,2.31235 136.406,1.31235 142.5,-0.5 Z"/></g>
<g><path style="opacity:1" fill="#fdeefc" d="M 120.5,12.5 C 117.5,12.5 114.5,12.5 111.5,12.5C 90.1401,11.8447 69.1401,12.5113 48.5,14.5C 48.5,14.8333 48.5,15.1667 48.5,15.5C 48.1667,15.5 47.8333,15.5 47.5,15.5C 47.5,14.1667 47.5,12.8333 47.5,11.5C 54.1649,10.894 60.8316,10.2274 67.5,9.5C 84.8192,10.2775 102.153,10.7775 119.5,11C 120.056,11.3826 120.389,11.8826 120.5,12.5 Z"/></g>
<g><path style="opacity:1" fill="#7f538d" d="M 111.5,12.5 C 111.5,12.8333 111.5,13.1667 111.5,13.5C 100.833,13.5 90.1667,13.5 79.5,13.5C 69.3194,13.1726 59.3194,13.506 49.5,14.5C 49.1667,14.5 48.8333,14.5 48.5,14.5C 69.1401,12.5113 90.1401,11.8447 111.5,12.5 Z"/></g>
<g><path style="opacity:1" fill="#914492" d="M 49.5,14.5 C 59.3194,13.506 69.3194,13.1726 79.5,13.5C 79.5,14.1667 79.5,14.8333 79.5,15.5C 76.8333,15.5 74.1667,15.5 71.5,15.5C 68.1667,15.5 64.8333,15.5 61.5,15.5C 57.7016,14.5166 53.7016,14.1832 49.5,14.5 Z"/></g>
<g><path style="opacity:1" fill="#b43392" d="M 48.5,14.5 C 48.8333,14.5 49.1667,14.5 49.5,14.5C 53.7016,14.1832 57.7016,14.5166 61.5,15.5C 60.1667,15.5 58.8333,15.5 57.5,15.5C 57.6666,31.5035 57.4999,47.5035 57,63.5C 56.5,64 56,64.5 55.5,65C 57.6544,66.3199 59.1544,68.1532 60,70.5C 60.6708,69.7476 61.5041,69.4142 62.5,69.5C 62.5,70.1667 62.5,70.8333 62.5,71.5C 60.5891,71.5743 59.4224,72.5743 59,74.5C 58.6827,72.6992 58.016,72.3659 57,73.5C 56.4954,75.5183 55.9954,77.5183 55.5,79.5C 53.0876,79.244 51.4209,80.244 50.5,82.5C 49.5,82.1667 48.8333,81.5 48.5,80.5C 50.6502,78.0775 50.9835,75.4109 49.5,72.5C 50.6937,69.5426 52.3603,66.876 54.5,64.5C 54.0039,50.1455 53.0039,35.8122 51.5,21.5C 52.0463,19.8653 52.3796,18.1986 52.5,16.5C 50.901,16.7678 49.5676,16.4345 48.5,15.5C 48.5,15.1667 48.5,14.8333 48.5,14.5 Z"/></g>
<g><path style="opacity:1" fill="#ad3699" d="M 61.5,15.5 C 64.0981,28.1961 64.7648,40.8628 63.5,53.5C 64.5,53.5 65.5,53.5 66.5,53.5C 66.5,55.5 66.5,57.5 66.5,59.5C 66.6567,60.8734 66.49,62.2068 66,63.5C 64.5576,65.3911 63.3909,67.3911 62.5,69.5C 61.5041,69.4142 60.6708,69.7476 60,70.5C 59.1544,68.1532 57.6544,66.3199 55.5,65C 56,64.5 56.5,64 57,63.5C 57.4999,47.5035 57.6666,31.5035 57.5,15.5C 58.8333,15.5 60.1667,15.5 61.5,15.5 Z"/></g>
<g><path style="opacity:1" fill="#8a42b3" d="M 79.5,13.5 C 90.1667,13.5 100.833,13.5 111.5,13.5C 111.5,13.8333 111.5,14.1667 111.5,14.5C 104.437,14.2122 97.4369,14.7122 90.5,16C 90.0425,21.9868 89.0425,27.8202 87.5,33.5C 84.4669,33.1315 81.8002,33.7982 79.5,35.5C 80.9385,31.5516 81.6051,27.385 81.5,23C 81.4752,20.0706 80.8086,17.5706 79.5,15.5C 79.5,14.8333 79.5,14.1667 79.5,13.5 Z"/></g>
<g><path style="opacity:1" fill="#6752d1" d="M 111.5,15.5 C 113.792,15.2436 115.959,15.5769 118,16.5C 118.783,50.1807 118.617,83.8474 117.5,117.5C 116.695,120.478 116.362,123.478 116.5,126.5C 113.205,121.466 112.872,116.133 115.5,110.5C 116.687,84.4985 116.687,58.4985 115.5,32.5C 112.5,31.1667 109.5,31.1667 106.5,32.5C 105.542,32.0472 104.708,31.3805 104,30.5C 103.333,25.8333 103.333,21.1667 104,16.5C 106.381,15.565 108.881,15.2317 111.5,15.5 Z"/></g>
<g><path style="opacity:1" fill="#993da7" d="M 71.5,15.5 C 74.1667,15.5 76.8333,15.5 79.5,15.5C 80.8086,17.5706 81.4752,20.0706 81.5,23C 81.6051,27.385 80.9385,31.5516 79.5,35.5C 79.6602,37.1992 79.4935,38.8659 79,40.5C 75.8448,42.8196 73.6782,45.8196 72.5,49.5C 72.5654,49.0618 72.3988,48.7284 72,48.5C 71.3333,50.5 70,51.8333 68,52.5C 67.7638,50.236 67.2638,48.0693 66.5,46C 70.4769,41.9292 71.1435,37.4292 68.5,32.5C 68.86,26.5929 69.86,20.9262 71.5,15.5 Z"/></g>
<g><path style="opacity:1" fill="#7b48c0" d="M 111.5,14.5 C 111.5,14.8333 111.5,15.1667 111.5,15.5C 108.881,15.2317 106.381,15.565 104,16.5C 103.333,21.1667 103.333,25.8333 104,30.5C 104.708,31.3805 105.542,32.0472 106.5,32.5C 106.5,32.8333 106.5,33.1667 106.5,33.5C 100.167,33.5 93.8333,33.5 87.5,33.5C 89.0425,27.8202 90.0425,21.9868 90.5,16C 97.4369,14.7122 104.437,14.2122 111.5,14.5 Z"/></g>
<g><path style="opacity:1" fill="#4673d0" d="M 127.5,14.5 C 127.5,14.1667 127.5,13.8333 127.5,13.5C 131.215,13.423 134.881,13.7564 138.5,14.5C 139.814,26.6096 140.48,38.943 140.5,51.5C 140.167,63.5 139.833,75.5 139.5,87.5C 138.354,88.1449 137.354,88.9783 136.5,90C 137.82,93.6013 137.82,97.1013 136.5,100.5C 135.915,93.6927 135.581,86.8594 135.5,80C 137.272,64.3243 137.772,48.491 137,32.5C 135.714,27.0079 135.047,21.3413 135,15.5C 132.619,14.565 130.119,14.2317 127.5,14.5 Z"/></g>
<g><path style="opacity:1" fill="#3f79d1" d="M 138.5,14.5 C 140.621,14.3253 142.621,14.6586 144.5,15.5C 144.611,16.1174 144.944,16.6174 145.5,17C 142.945,21.1102 142.945,25.2769 145.5,29.5C 144.255,35.3902 143.588,41.3902 143.5,47.5C 143.927,54.3312 143.927,60.9979 143.5,67.5C 143.183,70.5719 143.516,73.5719 144.5,76.5C 145.086,76.2907 145.586,75.9574 146,75.5C 146.495,73.5273 146.662,71.5273 146.5,69.5C 147.833,69.5 149.167,69.5 150.5,69.5C 150.579,72.2706 150.079,74.9373 149,77.5C 147.556,79.1554 145.722,79.822 143.5,79.5C 143.704,81.6854 144.37,83.6854 145.5,85.5C 145.315,87.1958 144.481,88.5291 143,89.5C 142.506,91.1341 142.34,92.8008 142.5,94.5C 141.178,94.33 140.011,94.6634 139,95.5C 138.667,97.5 138.333,99.5 138,101.5C 137.617,102.056 137.117,102.389 136.5,102.5C 136.5,101.833 136.5,101.167 136.5,100.5C 137.82,97.1013 137.82,93.6013 136.5,90C 137.354,88.9783 138.354,88.1449 139.5,87.5C 139.833,75.5 140.167,63.5 140.5,51.5C 140.48,38.943 139.814,26.6096 138.5,14.5 Z"/></g>
<g><path style="opacity:1" fill="#507baf" d="M 111.5,13.5 C 111.5,13.1667 111.5,12.8333 111.5,12.5C 114.5,12.5 117.5,12.5 120.5,12.5C 130.5,12.5 140.5,12.5 150.5,12.5C 150.433,13.9587 150.766,15.2921 151.5,16.5C 151.674,18.861 152.007,21.1944 152.5,23.5C 152.167,23.5 151.833,23.5 151.5,23.5C 151.9,18.3604 149.567,15.6937 144.5,15.5C 142.621,14.6586 140.621,14.3253 138.5,14.5C 134.881,13.7564 131.215,13.423 127.5,13.5C 122.167,13.5 116.833,13.5 111.5,13.5 Z"/></g>
<g><path style="opacity:1" fill="#fcd6f1" d="M 44.5,20.5 C 42.3781,23.9566 40.7115,27.6233 39.5,31.5C 37.6736,33.1475 36.3403,35.1475 35.5,37.5C 35.1667,37.5 34.8333,37.5 34.5,37.5C 34.0923,34.4007 35.259,32.0674 38,30.5C 38.8389,26.1872 41.0056,22.8538 44.5,20.5 Z"/></g>
<g><path style="opacity:1" fill="#ae4b81" d="M 47.5,16.5 C 47.6602,18.1992 47.4935,19.8659 47,21.5C 44.7891,25.1959 42.2891,28.5292 39.5,31.5C 40.7115,27.6233 42.3781,23.9566 44.5,20.5C 45.5116,19.1283 46.5116,17.795 47.5,16.5 Z"/></g>
<g><path style="opacity:1" fill="#bd308b" d="M 47.5,15.5 C 47.8333,15.5 48.1667,15.5 48.5,15.5C 49.5676,16.4345 50.901,16.7678 52.5,16.5C 52.3796,18.1986 52.0463,19.8653 51.5,21.5C 53.0039,35.8122 54.0039,50.1455 54.5,64.5C 52.3603,66.876 50.6937,69.5426 49.5,72.5C 50.9835,75.4109 50.6502,78.0775 48.5,80.5C 48.8333,81.5 49.5,82.1667 50.5,82.5C 51.4209,80.244 53.0876,79.244 55.5,79.5C 53.5116,85.4846 50.5116,90.818 46.5,95.5C 45.5,95.5 44.5,95.5 43.5,95.5C 43.5,84.8333 43.5,74.1667 43.5,63.5C 44.8221,63.67 45.9887,63.3366 47,62.5C 47.5012,52.477 47.8345,42.477 48,32.5C 46.6667,31.8333 45.3333,31.1667 44,30.5C 43.2904,31.9733 42.1238,32.6399 40.5,32.5C 40.5,33.8333 40.5,35.1667 40.5,36.5C 38.7085,36.366 37.0418,36.6993 35.5,37.5C 36.3403,35.1475 37.6736,33.1475 39.5,31.5C 42.2891,28.5292 44.7891,25.1959 47,21.5C 47.4935,19.8659 47.6602,18.1992 47.5,16.5C 47.5,16.1667 47.5,15.8333 47.5,15.5 Z"/></g>
<g><path style="opacity:1" fill="#595fd4" d="M 121.5,15.5 C 123.167,15.5 124.833,15.5 126.5,15.5C 126.932,43.4857 126.932,71.4857 126.5,99.5C 125.987,103.769 126.987,107.603 129.5,111C 128.583,113.972 127.583,116.806 126.5,119.5C 126.838,116.843 126.171,114.51 124.5,112.5C 123.914,112.709 123.414,113.043 123,113.5C 122.759,116.289 122.092,118.956 121,121.5C 120.586,121.957 120.086,122.291 119.5,122.5C 118.289,119.124 118.456,115.791 120,112.5C 120.414,112.043 120.914,111.709 121.5,111.5C 122.474,70.0822 122.474,38.0822 121.5,15.5 Z"/></g>
<g><path style="opacity:1" fill="#4f6cd1" d="M 127.5,14.5 C 130.119,14.2317 132.619,14.565 135,15.5C 135.047,21.3413 135.714,27.0079 137,32.5C 137.772,48.491 137.272,64.3243 135.5,80C 135.581,86.8594 135.915,93.6927 136.5,100.5C 136.5,101.167 136.5,101.833 136.5,102.5C 135.492,104.339 133.992,105.672 132,106.5C 131.295,110.989 130.128,115.322 128.5,119.5C 124.819,125.536 121.152,131.536 117.5,137.5C 117.343,136.127 117.51,134.793 118,133.5C 120.889,129.944 122.889,125.944 124,121.5C 124.708,120.619 125.542,119.953 126.5,119.5C 127.583,116.806 128.583,113.972 129.5,111C 126.987,107.603 125.987,103.769 126.5,99.5C 129.327,97.1646 130.493,94.1646 130,90.5C 129.683,92.3008 129.016,92.6341 128,91.5C 127.501,87.5138 127.334,83.5138 127.5,79.5C 129.144,79.7135 130.644,79.3802 132,78.5C 132.5,57.5026 132.667,36.5026 132.5,15.5C 130.585,15.7845 128.919,15.4511 127.5,14.5 Z"/></g>
<g><path style="opacity:1" fill="#3980d0" d="M 144.5,15.5 C 149.567,15.6937 151.9,18.3604 151.5,23.5C 151.5,24.8333 151.5,26.1667 151.5,27.5C 146.803,27.007 145.637,28.6737 148,32.5C 148.667,42.5 148.667,52.5 148,62.5C 147.106,64.7669 145.606,66.4336 143.5,67.5C 143.927,60.9979 143.927,54.3312 143.5,47.5C 143.588,41.3902 144.255,35.3902 145.5,29.5C 142.945,25.2769 142.945,21.1102 145.5,17C 144.944,16.6174 144.611,16.1174 144.5,15.5 Z"/></g>
<g><path style="opacity:1" fill="#2992cb" d="M 153.5,25.5 C 156.226,28.5963 158.726,31.9296 161,35.5C 162.642,39.9553 164.475,44.2886 166.5,48.5C 165.221,54.3915 162.388,59.3915 158,63.5C 157.506,65.1341 157.34,66.8008 157.5,68.5C 157.167,69.1667 156.833,69.8333 156.5,70.5C 154.427,71.2995 152.76,72.6329 151.5,74.5C 151.93,70.7518 153.264,67.4184 155.5,64.5C 154.167,53.1667 154.167,41.8333 155.5,30.5C 154.813,28.8228 154.146,27.1561 153.5,25.5 Z"/></g>
<g><path style="opacity:1" fill="#6752c9" d="M 117.5,117.5 C 117.616,120.86 117.949,124.193 118.5,127.5C 117.325,127.281 116.325,127.614 115.5,128.5C 113.87,131.276 113.203,134.276 113.5,137.5C 114.833,137.5 116.167,137.5 117.5,137.5C 117.5,137.833 117.5,138.167 117.5,138.5C 115.248,138.916 113.748,140.249 113,142.5C 112.833,106.664 112.333,70.9977 111.5,35.5C 110.448,33.744 108.781,33.0773 106.5,33.5C 106.5,33.1667 106.5,32.8333 106.5,32.5C 109.5,31.1667 112.5,31.1667 115.5,32.5C 116.687,58.4985 116.687,84.4985 115.5,110.5C 112.872,116.133 113.205,121.466 116.5,126.5C 116.362,123.478 116.695,120.478 117.5,117.5 Z"/></g>
<g><path style="opacity:1" fill="#3287ce" d="M 151.5,23.5 C 151.833,23.5 152.167,23.5 152.5,23.5C 152.833,24.1667 153.167,24.8333 153.5,25.5C 154.146,27.1561 154.813,28.8228 155.5,30.5C 154.167,41.8333 154.167,53.1667 155.5,64.5C 153.264,67.4184 151.93,70.7518 151.5,74.5C 150.258,78.6553 148.258,82.322 145.5,85.5C 144.37,83.6854 143.704,81.6854 143.5,79.5C 145.722,79.822 147.556,79.1554 149,77.5C 150.079,74.9373 150.579,72.2706 150.5,69.5C 149.167,69.5 147.833,69.5 146.5,69.5C 146.662,71.5273 146.495,73.5273 146,75.5C 145.586,75.9574 145.086,76.2907 144.5,76.5C 143.516,73.5719 143.183,70.5719 143.5,67.5C 145.606,66.4336 147.106,64.7669 148,62.5C 148.667,52.5 148.667,42.5 148,32.5C 145.637,28.6737 146.803,27.007 151.5,27.5C 151.5,26.1667 151.5,24.8333 151.5,23.5 Z"/></g>
<g><path style="opacity:1" fill="#4797b5" d="M 151.5,16.5 C 153.252,19.672 155.252,22.672 157.5,25.5C 161.093,33.1842 165.093,40.6842 169.5,48C 166.118,55.2749 162.118,62.1082 157.5,68.5C 157.34,66.8008 157.506,65.1341 158,63.5C 162.388,59.3915 165.221,54.3915 166.5,48.5C 164.475,44.2886 162.642,39.9553 161,35.5C 158.726,31.9296 156.226,28.5963 153.5,25.5C 153.167,24.8333 152.833,24.1667 152.5,23.5C 152.007,21.1944 151.674,18.861 151.5,16.5 Z"/></g>
<g><path style="opacity:1" fill="#884d9b" d="M 87.5,33.5 C 93.8333,33.5 100.167,33.5 106.5,33.5C 108.781,33.0773 110.448,33.744 111.5,35.5C 101.985,35.1731 92.6517,35.5064 83.5,36.5C 80.7417,39.678 78.7417,43.3447 77.5,47.5C 75.0002,50.4937 73.0002,53.827 71.5,57.5C 68.4415,61.9042 65.7748,66.5709 63.5,71.5C 63.1667,71.5 62.8333,71.5 62.5,71.5C 62.5,70.8333 62.5,70.1667 62.5,69.5C 63.3909,67.3911 64.5576,65.3911 66,63.5C 66.49,62.2068 66.6567,60.8734 66.5,59.5C 69.7858,57.022 71.7858,53.6886 72.5,49.5C 73.6782,45.8196 75.8448,42.8196 79,40.5C 79.4935,38.8659 79.6602,37.1992 79.5,35.5C 81.8002,33.7982 84.4669,33.1315 87.5,33.5 Z"/></g>
<g><path style="opacity:1" fill="#fafbfb" d="M 110.5,143.5 C 110.201,145.604 110.534,147.604 111.5,149.5C 112.919,148.995 113.585,147.995 113.5,146.5C 114.833,143.833 116.167,141.167 117.5,138.5C 117.5,138.167 117.5,137.833 117.5,137.5C 121.152,131.536 124.819,125.536 128.5,119.5C 133.386,111.406 138.052,103.073 142.5,94.5C 144.644,91.619 146.644,88.619 148.5,85.5C 149.397,84.4019 150.23,84.4019 151,85.5C 152.001,82.8268 153.501,80.4935 155.5,78.5C 156.634,75.9302 157.468,73.2635 158,70.5C 160.527,69.2744 162.694,67.6077 164.5,65.5C 166.064,66.186 167.731,66.0194 169.5,65C 169.167,64.6667 168.833,64.3333 168.5,64C 169.646,63.3551 170.646,62.5217 171.5,61.5C 171.833,61.8333 172.167,62.1667 172.5,62.5C 170.332,65.4979 169.332,68.8313 169.5,72.5C 169.5,72.8333 169.5,73.1667 169.5,73.5C 168.833,73.5 168.5,73.8333 168.5,74.5C 167.178,74.33 166.011,74.6634 165,75.5C 162.582,81.192 159.582,86.5253 156,91.5C 155.338,93.8127 154.838,96.146 154.5,98.5C 152.421,102.993 150.088,107.326 147.5,111.5C 144.501,116.83 141.501,122.163 138.5,127.5C 137.5,129.5 136.5,131.5 135.5,133.5C 134.599,134.29 133.932,135.29 133.5,136.5C 129.065,142.367 125.399,148.7 122.5,155.5C 121.18,157.463 119.846,159.463 118.5,161.5C 110.167,161.5 101.833,161.5 93.5,161.5C 92.8456,143.069 92.1789,124.735 91.5,106.5C 91.1667,106.5 90.8333,106.5 90.5,106.5C 90.5,106.167 90.5,105.833 90.5,105.5C 92.6348,105.147 93.9681,105.98 94.5,108C 93.1875,125.145 93.1875,142.311 94.5,159.5C 98.4425,160.6 102.442,160.767 106.5,160C 103.242,159.788 100.076,159.288 97,158.5C 96.5,155 96,151.5 95.5,148C 95.4537,146.272 95.9537,144.772 97,143.5C 97.6667,111.5 97.6667,79.5 97,47.5C 96.4169,45.9984 95.5836,44.6651 94.5,43.5C 93.2801,43.8869 92.6135,44.7202 92.5,46C 93.4014,48.8711 94.4014,51.7044 95.5,54.5C 94.2606,56.3115 93.5939,58.3115 93.5,60.5C 95.1056,65.4687 96.1056,70.6353 96.5,76C 96.3917,77.6811 95.7251,78.8478 94.5,79.5C 92.2598,71.1756 91.9264,62.6756 93.5,54C 93.1918,52.5405 92.5251,51.3739 91.5,50.5C 90.8333,49.1667 90.1667,49.1667 89.5,50.5C 89.0679,51.7095 88.4013,52.7095 87.5,53.5C 85.7578,55.5583 83.5911,57.2249 81,58.5C 79.3364,60.7856 79.1697,63.1189 80.5,65.5C 78.5633,66.5903 76.73,67.9236 75,69.5C 73.4301,72.8146 71.2634,75.6479 68.5,78C 69.7073,79.3002 70.3739,80.8002 70.5,82.5C 69.325,82.281 68.325,82.6143 67.5,83.5C 66.6518,85.4086 66.3184,87.4086 66.5,89.5C 66.5,89.8333 66.5,90.1667 66.5,90.5C 64.2407,91.344 63.2407,93.0107 63.5,95.5C 61.2776,95.178 59.4443,95.8446 58,97.5C 57.5209,100.624 56.3543,103.457 54.5,106C 52.597,106.774 50.9304,106.44 49.5,105C 51.9822,99.8151 53.3155,94.3151 53.5,88.5C 53.5,87.8333 53.8333,87.5 54.5,87.5C 56.1003,86.748 57.6003,85.748 59,84.5C 60.8093,80.2377 62.3093,75.9044 63.5,71.5C 65.4258,70.7577 67.2591,69.7577 69,68.5C 69.4709,65.5291 70.6375,62.8624 72.5,60.5C 71.8728,59.5832 71.5394,58.5832 71.5,57.5C 75.5226,55.4656 77.5226,52.1322 77.5,47.5C 78.9308,46.5542 80.2642,45.3875 81.5,44C 80.6598,42.3335 81.1598,42.1669 83,43.5C 83.7914,42.255 84.2914,40.9217 84.5,39.5C 85.3991,38.5285 86.5657,37.8618 88,37.5C 94.3876,38.7567 100.721,38.7567 107,37.5C 108.987,39.8822 109.487,42.3822 108.5,45C 109.149,77.9837 109.816,110.817 110.5,143.5 Z"/></g>
<g><path style="opacity:1" fill="#f7def9" d="M 83.5,36.5 C 83.8333,36.5 84.1667,36.5 84.5,36.5C 84.5,37.5 84.5,38.5 84.5,39.5C 84.2914,40.9217 83.7914,42.255 83,43.5C 81.1598,42.1669 80.6598,42.3335 81.5,44C 80.2642,45.3875 78.9308,46.5542 77.5,47.5C 78.7417,43.3447 80.7417,39.678 83.5,36.5 Z"/></g>
<g><path style="opacity:1" fill="#faf5fe" d="M 84.5,36.5 C 93.1667,36.5 101.833,36.5 110.5,36.5C 110.5,72.1667 110.5,107.833 110.5,143.5C 109.816,110.817 109.149,77.9837 108.5,45C 109.487,42.3822 108.987,39.8822 107,37.5C 100.721,38.7567 94.3876,38.7567 88,37.5C 86.5657,37.8618 85.3991,38.5285 84.5,39.5C 84.5,38.5 84.5,37.5 84.5,36.5 Z"/></g>
<g><path style="opacity:1" fill="#fce7f7" d="M 34.5,37.5 C 29.2295,47.4281 23.5629,57.0948 17.5,66.5C 17.933,63.8344 18.433,61.1677 19,58.5C 22.0591,56.0403 24.3924,53.0403 26,49.5C 25.6633,43.4602 28.4967,39.4602 34.5,37.5 Z"/></g>
<g><path style="opacity:1" fill="#fdfef5" d="M 90.5,105.5 C 92.2324,104 93.8991,102.333 95.5,100.5C 94.3176,96.7867 93.651,92.9534 93.5,89C 93.5018,85.6482 93.8351,82.4815 94.5,79.5C 95.7251,78.8478 96.3917,77.6811 96.5,76C 96.1056,70.6353 95.1056,65.4687 93.5,60.5C 93.5939,58.3115 94.2606,56.3115 95.5,54.5C 94.4014,51.7044 93.4014,48.8711 92.5,46C 92.6135,44.7202 93.2801,43.8869 94.5,43.5C 95.5836,44.6651 96.4169,45.9984 97,47.5C 97.6667,79.5 97.6667,111.5 97,143.5C 95.9537,144.772 95.4537,146.272 95.5,148C 96,151.5 96.5,155 97,158.5C 100.076,159.288 103.242,159.788 106.5,160C 102.442,160.767 98.4425,160.6 94.5,159.5C 93.1875,142.311 93.1875,125.145 94.5,108C 93.9681,105.98 92.6348,105.147 90.5,105.5 Z"/></g>
<g><path style="opacity:1" fill="#6a57b3" d="M 111.5,35.5 C 112.333,70.9977 112.833,106.664 113,142.5C 113.748,140.249 115.248,138.916 117.5,138.5C 116.167,141.167 114.833,143.833 113.5,146.5C 112.883,146.611 112.383,146.944 112,147.5C 111.5,110.168 111.333,72.8348 111.5,35.5 Z"/></g>
<g><path style="opacity:1" fill="#c5bae9" d="M 83.5,36.5 C 92.6517,35.5064 101.985,35.1731 111.5,35.5C 111.333,72.8348 111.5,110.168 112,147.5C 112.383,146.944 112.883,146.611 113.5,146.5C 113.585,147.995 112.919,148.995 111.5,149.5C 110.534,147.604 110.201,145.604 110.5,143.5C 110.5,107.833 110.5,72.1667 110.5,36.5C 101.833,36.5 93.1667,36.5 84.5,36.5C 84.1667,36.5 83.8333,36.5 83.5,36.5 Z"/></g>
<g><path style="opacity:1" fill="#a23a9d" d="M 61.5,15.5 C 64.8333,15.5 68.1667,15.5 71.5,15.5C 69.86,20.9262 68.86,26.5929 68.5,32.5C 71.1435,37.4292 70.4769,41.9292 66.5,46C 67.2638,48.0693 67.7638,50.236 68,52.5C 70,51.8333 71.3333,50.5 72,48.5C 72.3988,48.7284 72.5654,49.0618 72.5,49.5C 71.7858,53.6886 69.7858,57.022 66.5,59.5C 66.5,57.5 66.5,55.5 66.5,53.5C 65.5,53.5 64.5,53.5 63.5,53.5C 64.7648,40.8628 64.0981,28.1961 61.5,15.5 Z"/></g>
<g><path style="opacity:1" fill="#eccdef" d="M 77.5,47.5 C 77.5226,52.1322 75.5226,55.4656 71.5,57.5C 73.0002,53.827 75.0002,50.4937 77.5,47.5 Z"/></g>
<g><path style="opacity:1" fill="#e8fafa" d="M 182.5,68.5 C 180.442,66.0734 178.609,63.4068 177,60.5C 174.585,64.6208 172.085,68.6208 169.5,72.5C 169.332,68.8313 170.332,65.4979 172.5,62.5C 172.167,62.1667 171.833,61.8333 171.5,61.5C 170.646,62.5217 169.646,63.3551 168.5,64C 168.833,64.3333 169.167,64.6667 169.5,65C 167.731,66.0194 166.064,66.186 164.5,65.5C 162.694,67.6077 160.527,69.2744 158,70.5C 157.468,73.2635 156.634,75.9302 155.5,78.5C 153.501,80.4935 152.001,82.8268 151,85.5C 150.23,84.4019 149.397,84.4019 148.5,85.5C 151.917,80.9314 154.583,75.9314 156.5,70.5C 156.833,69.8333 157.167,69.1667 157.5,68.5C 162.118,62.1082 166.118,55.2749 169.5,48C 165.093,40.6842 161.093,33.1842 157.5,25.5C 159.766,25.8588 161.599,25.1922 163,23.5C 163.684,24.7839 163.517,25.9505 162.5,27C 164.004,28.4907 164.837,30.324 165,32.5C 165.388,31.572 166.055,30.9054 167,30.5C 169.188,31.0593 169.854,32.3927 169,34.5C 167.865,34.727 166.698,35.0604 165.5,35.5C 165.909,37.9913 167.076,39.9913 169,41.5C 169.36,39.5789 170.194,37.9122 171.5,36.5C 172.086,36.7093 172.586,37.0426 173,37.5C 173.339,40.9784 172.839,44.3118 171.5,47.5C 172.911,50.9598 173.578,54.6264 173.5,58.5C 175.5,58.5 177.5,58.5 179.5,58.5C 179.92,62.0075 180.92,65.3408 182.5,68.5 Z"/></g>
<g><path style="opacity:1" fill="#d0b1e9" d="M 89.5,50.5 C 90.1667,49.1667 90.8333,49.1667 91.5,50.5C 91.8299,67.6749 91.4966,84.6749 90.5,101.5C 90.8299,84.3251 90.4966,67.3251 89.5,50.5 Z"/></g>
<g><path style="opacity:1" fill="#f9e6fc" d="M 87.5,53.5 C 85.5,57.5 83.5,61.5 81.5,65.5C 81.1667,65.5 80.8333,65.5 80.5,65.5C 79.1697,63.1189 79.3364,60.7856 81,58.5C 83.5911,57.2249 85.7578,55.5583 87.5,53.5 Z"/></g>
<g><path style="opacity:1" fill="#7e509d" d="M 89.5,50.5 C 90.4966,67.3251 90.8299,84.3251 90.5,101.5C 83.1667,101.5 75.8333,101.5 68.5,101.5C 71.9619,100.518 75.6286,100.185 79.5,100.5C 82.8333,100.5 86.1667,100.5 89.5,100.5C 89.8326,86.4841 89.4992,72.4841 88.5,58.5C 86.3879,61.0602 84.0546,63.3936 81.5,65.5C 83.5,61.5 85.5,57.5 87.5,53.5C 88.4013,52.7095 89.0679,51.7095 89.5,50.5 Z"/></g>
<g><path style="opacity:1" fill="#f9e1f9" d="M 71.5,57.5 C 71.5394,58.5832 71.8728,59.5832 72.5,60.5C 70.6375,62.8624 69.4709,65.5291 69,68.5C 67.2591,69.7577 65.4258,70.7577 63.5,71.5C 65.7748,66.5709 68.4415,61.9042 71.5,57.5 Z"/></g>
<g><path style="opacity:1" fill="#c72b85" d="M 46.5,95.5 C 45.1447,98.2106 43.8114,100.877 42.5,103.5C 42.6041,98.0579 41.1041,97.3912 38,101.5C 36.5197,99.3369 36.5197,97.3369 38,95.5C 38.5206,79.8266 38.354,64.1599 37.5,48.5C 36.325,48.719 35.325,48.3857 34.5,47.5C 35.903,42.2796 37.0697,42.2796 38,47.5C 38.6667,46.1667 39.3333,46.1667 40,47.5C 41.9631,44.6475 41.6298,41.9808 39,39.5C 37.9887,38.6634 36.8221,38.33 35.5,38.5C 35.5,38.1667 35.5,37.8333 35.5,37.5C 37.0418,36.6993 38.7085,36.366 40.5,36.5C 40.5,35.1667 40.5,33.8333 40.5,32.5C 42.1238,32.6399 43.2904,31.9733 44,30.5C 45.3333,31.1667 46.6667,31.8333 48,32.5C 47.8345,42.477 47.5012,52.477 47,62.5C 45.9887,63.3366 44.8221,63.67 43.5,63.5C 43.5,74.1667 43.5,84.8333 43.5,95.5C 44.5,95.5 45.5,95.5 46.5,95.5 Z"/></g>
<g><path style="opacity:1" fill="#5367d3" d="M 111.5,14.5 C 111.5,14.1667 111.5,13.8333 111.5,13.5C 116.833,13.5 122.167,13.5 127.5,13.5C 127.5,13.8333 127.5,14.1667 127.5,14.5C 128.919,15.4511 130.585,15.7845 132.5,15.5C 132.667,36.5026 132.5,57.5026 132,78.5C 130.644,79.3802 129.144,79.7135 127.5,79.5C 127.334,83.5138 127.501,87.5138 128,91.5C 129.016,92.6341 129.683,92.3008 130,90.5C 130.493,94.1646 129.327,97.1646 126.5,99.5C 126.932,71.4857 126.932,43.4857 126.5,15.5C 124.833,15.5 123.167,15.5 121.5,15.5C 118.214,14.7929 114.881,14.4595 111.5,14.5 Z"/></g>
<g><path style="opacity:1" fill="#f9e9f9" d="M 91.5,50.5 C 92.5251,51.3739 93.1918,52.5405 93.5,54C 91.9264,62.6756 92.2598,71.1756 94.5,79.5C 93.8351,82.4815 93.5018,85.6482 93.5,89C 93.651,92.9534 94.3176,96.7867 95.5,100.5C 93.8991,102.333 92.2324,104 90.5,105.5C 82.16,105.666 73.8267,105.5 65.5,105C 66.2524,104.329 66.5858,103.496 66.5,102.5C 66.5,102.167 66.5,101.833 66.5,101.5C 67.1667,101.5 67.8333,101.5 68.5,101.5C 75.8333,101.5 83.1667,101.5 90.5,101.5C 91.4966,84.6749 91.8299,67.6749 91.5,50.5 Z"/></g>
<g><path style="opacity:1" fill="#f9e8fa" d="M 80.5,65.5 C 76.7544,74.1111 72.0878,82.1111 66.5,89.5C 66.3184,87.4086 66.6518,85.4086 67.5,83.5C 68.325,82.6143 69.325,82.281 70.5,82.5C 70.3739,80.8002 69.7073,79.3002 68.5,78C 71.2634,75.6479 73.4301,72.8146 75,69.5C 76.73,67.9236 78.5633,66.5903 80.5,65.5 Z"/></g>
<g><path style="opacity:1" fill="#c03e7d" d="M 34.5,37.5 C 34.8333,37.5 35.1667,37.5 35.5,37.5C 35.5,37.8333 35.5,38.1667 35.5,38.5C 33.9707,42.2214 32.6373,46.0547 31.5,50C 32.6941,52.8466 32.6941,55.6799 31.5,58.5C 30.5713,57.3112 30.238,55.9778 30.5,54.5C 29.448,54.3505 28.448,54.5172 27.5,55C 26.8102,57.696 25.3102,59.8626 23,61.5C 21.8468,64.7111 21.1802,68.0445 21,71.5C 17.6175,74.0608 14.4509,76.7275 11.5,79.5C 11.8925,77.7162 12.5592,76.0495 13.5,74.5C 14.8333,71.8333 16.1667,69.1667 17.5,66.5C 23.5629,57.0948 29.2295,47.4281 34.5,37.5 Z"/></g>
<g><path style="opacity:1" fill="#cc2b7f" d="M 35.5,38.5 C 36.8221,38.33 37.9887,38.6634 39,39.5C 41.6298,41.9808 41.9631,44.6475 40,47.5C 39.3333,46.1667 38.6667,46.1667 38,47.5C 37.0697,42.2796 35.903,42.2796 34.5,47.5C 35.325,48.3857 36.325,48.719 37.5,48.5C 38.354,64.1599 38.5206,79.8266 38,95.5C 36.5197,97.3369 36.5197,99.3369 38,101.5C 41.1041,97.3912 42.6041,98.0579 42.5,103.5C 41.5596,105.572 40.0596,107.239 38,108.5C 37.5034,110.81 37.3367,113.143 37.5,115.5C 37.5,115.833 37.5,116.167 37.5,116.5C 36.0937,116.973 35.427,117.973 35.5,119.5C 33.659,121.849 32.3257,124.515 31.5,127.5C 31.1667,127.5 30.8333,127.5 30.5,127.5C 29.5,127.5 28.5,127.5 27.5,127.5C 27.8804,130.792 26.5471,133.125 23.5,134.5C 20.3346,130.449 17.8346,126.116 16,121.5C 12.911,118.28 10.0776,114.946 7.5,111.5C 6.86252,107.745 5.36252,104.411 3,101.5C 2.69872,98.4929 2.86539,95.4929 3.5,92.5C 4.4408,90.9505 5.10746,89.2838 5.5,87.5C 7.02359,84.4421 9.02359,81.7755 11.5,79.5C 14.4509,76.7275 17.6175,74.0608 21,71.5C 21.1802,68.0445 21.8468,64.7111 23,61.5C 25.3102,59.8626 26.8102,57.696 27.5,55C 28.448,54.5172 29.448,54.3505 30.5,54.5C 30.238,55.9778 30.5713,57.3112 31.5,58.5C 32.6941,55.6799 32.6941,52.8466 31.5,50C 32.6373,46.0547 33.9707,42.2214 35.5,38.5 Z"/></g>
<g><path style="opacity:1" fill="#924b9c" d="M 80.5,65.5 C 80.8333,65.5 81.1667,65.5 81.5,65.5C 82.1031,70.6186 81.4364,75.2853 79.5,79.5C 79.719,78.325 79.3857,77.325 78.5,76.5C 76.15,79.1126 74.3166,82.1126 73,85.5C 72,86.1667 71,86.8333 70,87.5C 67.5008,92.1565 65.3341,96.8232 63.5,101.5C 64.5,101.5 65.5,101.5 66.5,101.5C 66.5,101.833 66.5,102.167 66.5,102.5C 65.0937,102.973 64.427,103.973 64.5,105.5C 63.596,104.791 63.2627,103.791 63.5,102.5C 62.5,102.5 61.5,102.5 60.5,102.5C 61.2271,100.046 62.2271,97.7128 63.5,95.5C 64.8897,94.1007 65.8897,92.4341 66.5,90.5C 66.5,90.1667 66.5,89.8333 66.5,89.5C 72.0878,82.1111 76.7544,74.1111 80.5,65.5 Z"/></g>
<g><path style="opacity:1" fill="#35a8be" d="M 182.5,68.5 C 187.943,78.3988 193.61,88.0655 199.5,97.5C 199.5,98.5 199.5,99.5 199.5,100.5C 198.833,100.833 198.167,101.167 197.5,101.5C 195.833,101.5 194.167,101.5 192.5,101.5C 194.178,97.8508 193.678,94.5175 191,91.5C 190.505,89.5273 190.338,87.5273 190.5,85.5C 187.67,85.3059 185.004,84.6392 182.5,83.5C 182.5,82.1667 182.5,80.8333 182.5,79.5C 181.5,79.5 180.5,79.5 179.5,79.5C 179.888,77.3153 180.888,75.482 182.5,74C 179.948,71.2611 177.948,68.0945 176.5,64.5C 174.347,67.1396 173.013,70.1396 172.5,73.5C 171.5,73.5 170.5,73.5 169.5,73.5C 169.5,73.1667 169.5,72.8333 169.5,72.5C 172.085,68.6208 174.585,64.6208 177,60.5C 178.609,63.4068 180.442,66.0734 182.5,68.5 Z"/></g>
<g><path style="opacity:1" fill="#fde3f6" d="M 13.5,74.5 C 12.5592,76.0495 11.8925,77.7162 11.5,79.5C 9.02359,81.7755 7.02359,84.4421 5.5,87.5C 6.99256,83.1778 8.49256,78.8445 10,74.5C 11.1455,73.3157 12.3121,73.3157 13.5,74.5 Z"/></g>
<g><path style="opacity:1" fill="#8c42b1" d="M 79.5,100.5 C 79.8212,98.9519 80.8212,98.2852 82.5,98.5C 82.5,97.5 82.5,96.5 82.5,95.5C 81.5,95.5 80.5,95.5 79.5,95.5C 79.083,91.9322 78.4164,88.4322 77.5,85C 77.6667,83.5 77.8333,82 78,80.5C 78.3826,79.944 78.8826,79.6107 79.5,79.5C 81.4364,75.2853 82.1031,70.6186 81.5,65.5C 84.0546,63.3936 86.3879,61.0602 88.5,58.5C 89.4992,72.4841 89.8326,86.4841 89.5,100.5C 86.1667,100.5 82.8333,100.5 79.5,100.5 Z"/></g>
<g><path style="opacity:1" fill="#14a9cc" d="M 197.5,101.5 C 197.267,103.062 196.6,104.395 195.5,105.5C 193.856,105.286 192.356,105.62 191,106.5C 190.627,108.698 190.127,110.865 189.5,113C 186.714,115.679 184.714,118.846 183.5,122.5C 182.167,122.833 180.833,123.167 179.5,123.5C 178.684,121.713 177.684,120.046 176.5,118.5C 175.306,121.32 175.306,124.153 176.5,127C 174.8,130.232 172.966,133.399 171,136.5C 170.503,138.81 170.337,141.143 170.5,143.5C 169.275,142.848 168.608,141.681 168.5,140C 169.247,135.919 170.913,132.252 173.5,129C 172.968,126.98 171.635,126.147 169.5,126.5C 169.275,113.128 169.275,99.7945 169.5,86.5C 169.635,84.192 168.969,82.192 167.5,80.5C 166.702,80.9569 166.369,81.6236 166.5,82.5C 163.195,86.1374 161.862,90.4708 162.5,95.5C 160.833,95.5 159.167,95.5 157.5,95.5C 160.735,88.2676 164.401,81.2676 168.5,74.5C 168.5,73.8333 168.833,73.5 169.5,73.5C 170.5,73.5 171.5,73.5 172.5,73.5C 173.013,70.1396 174.347,67.1396 176.5,64.5C 177.948,68.0945 179.948,71.2611 182.5,74C 180.888,75.482 179.888,77.3153 179.5,79.5C 180.5,79.5 181.5,79.5 182.5,79.5C 182.5,80.8333 182.5,82.1667 182.5,83.5C 185.004,84.6392 187.67,85.3059 190.5,85.5C 190.338,87.5273 190.505,89.5273 191,91.5C 193.678,94.5175 194.178,97.8508 192.5,101.5C 194.167,101.5 195.833,101.5 197.5,101.5 Z"/></g>
<g><path style="opacity:1" fill="#f5dbf3" d="M 62.5,71.5 C 62.8333,71.5 63.1667,71.5 63.5,71.5C 62.3093,75.9044 60.8093,80.2377 59,84.5C 57.6003,85.748 56.1003,86.748 54.5,87.5C 56.7622,81.9216 59.4288,76.5882 62.5,71.5 Z"/></g>
<g><path style="opacity:1" fill="#d9fafe" d="M 168.5,74.5 C 164.401,81.2676 160.735,88.2676 157.5,95.5C 156.272,96.3065 155.272,97.3065 154.5,98.5C 154.838,96.146 155.338,93.8127 156,91.5C 159.582,86.5253 162.582,81.192 165,75.5C 166.011,74.6634 167.178,74.33 168.5,74.5 Z"/></g>
<g><path style="opacity:1" fill="#5488b5" d="M 156.5,70.5 C 154.583,75.9314 151.917,80.9314 148.5,85.5C 146.644,88.619 144.644,91.619 142.5,94.5C 142.34,92.8008 142.506,91.1341 143,89.5C 144.481,88.5291 145.315,87.1958 145.5,85.5C 148.258,82.322 150.258,78.6553 151.5,74.5C 152.76,72.6329 154.427,71.2995 156.5,70.5 Z"/></g>
<g><path style="opacity:1" fill="#d9f9fb" d="M 182.5,68.5 C 183.496,68.4142 184.329,68.7476 185,69.5C 187.765,73.2608 190.098,77.2608 192,81.5C 194.442,84.1165 196.942,86.4498 199.5,88.5C 199.5,91.5 199.5,94.5 199.5,97.5C 193.61,88.0655 187.943,78.3988 182.5,68.5 Z"/></g>
<g><path style="opacity:1" fill="#9c3ca7" d="M 79.5,79.5 C 78.8826,79.6107 78.3826,79.944 78,80.5C 77.8333,82 77.6667,83.5 77.5,85C 78.4164,88.4322 79.083,91.9322 79.5,95.5C 80.5,95.5 81.5,95.5 82.5,95.5C 82.5,96.5 82.5,97.5 82.5,98.5C 80.8212,98.2852 79.8212,98.9519 79.5,100.5C 75.6286,100.185 71.9619,100.518 68.5,101.5C 67.8333,101.5 67.1667,101.5 66.5,101.5C 65.5,101.5 64.5,101.5 63.5,101.5C 65.3341,96.8232 67.5008,92.1565 70,87.5C 71,86.8333 72,86.1667 73,85.5C 74.3166,82.1126 76.15,79.1126 78.5,76.5C 79.3857,77.325 79.719,78.325 79.5,79.5 Z"/></g>
<g><path style="opacity:1" fill="#e7c2e4" d="M 66.5,90.5 C 65.8897,92.4341 64.8897,94.1007 63.5,95.5C 63.2407,93.0107 64.2407,91.344 66.5,90.5 Z"/></g>
<g><path style="opacity:1" fill="#1e9acf" d="M 166.5,82.5 C 166.177,97.1678 166.177,112.168 166.5,127.5C 167.5,127.5 168.5,127.5 169.5,127.5C 169.622,130.257 168.455,132.257 166,133.5C 165.667,136.5 165.333,139.5 165,142.5C 161.667,144.167 161.667,145.833 165,147.5C 165.49,148.793 165.657,150.127 165.5,151.5C 165.611,152.117 165.944,152.617 166.5,153C 164.635,155.194 162.968,157.36 161.5,159.5C 160.988,156.653 159.988,153.986 158.5,151.5C 158.556,148.889 159.556,146.722 161.5,145C 160.639,140.41 159.972,135.743 159.5,131C 159.454,129.272 159.954,127.772 161,126.5C 161.5,116.506 161.666,106.506 161.5,96.5C 159.901,96.7678 158.568,96.4345 157.5,95.5C 159.167,95.5 160.833,95.5 162.5,95.5C 161.862,90.4708 163.195,86.1374 166.5,82.5 Z"/></g>
<g><path style="opacity:1" fill="#19a1cf" d="M 170.5,143.5 C 170.5,145.167 170.5,146.833 170.5,148.5C 170.5,148.833 170.5,149.167 170.5,149.5C 168.716,149.893 167.05,150.559 165.5,151.5C 165.657,150.127 165.49,148.793 165,147.5C 161.667,145.833 161.667,144.167 165,142.5C 165.333,139.5 165.667,136.5 166,133.5C 168.455,132.257 169.622,130.257 169.5,127.5C 168.5,127.5 167.5,127.5 166.5,127.5C 166.177,112.168 166.177,97.1678 166.5,82.5C 166.369,81.6236 166.702,80.9569 167.5,80.5C 168.969,82.192 169.635,84.192 169.5,86.5C 169.275,99.7945 169.275,113.128 169.5,126.5C 171.635,126.147 172.968,126.98 173.5,129C 170.913,132.252 169.247,135.919 168.5,140C 168.608,141.681 169.275,142.848 170.5,143.5 Z"/></g>
<g><path style="opacity:1" fill="#5d7bb9" d="M 142.5,94.5 C 138.052,103.073 133.386,111.406 128.5,119.5C 130.128,115.322 131.295,110.989 132,106.5C 133.992,105.672 135.492,104.339 136.5,102.5C 137.117,102.389 137.617,102.056 138,101.5C 138.333,99.5 138.667,97.5 139,95.5C 140.011,94.6634 141.178,94.33 142.5,94.5 Z"/></g>
<g><path style="opacity:1" fill="#b24980" d="M 3.5,92.5 C 2.86539,95.4929 2.69872,98.4929 3,101.5C 5.36252,104.411 6.86252,107.745 7.5,111.5C 5.92635,110.016 4.59302,108.349 3.5,106.5C 2.28976,104.448 1.28976,102.282 0.5,100C 0.838572,97.1333 1.83857,94.6333 3.5,92.5 Z"/></g>
<g><path style="opacity:1" fill="#ae4082" d="M 62.5,71.5 C 59.4288,76.5882 56.7622,81.9216 54.5,87.5C 53.8333,87.5 53.5,87.8333 53.5,88.5C 51.9291,90.6351 50.5957,92.9684 49.5,95.5C 46.7051,98.6549 44.7051,102.322 43.5,106.5C 41.2519,109.328 39.2519,112.328 37.5,115.5C 37.3367,113.143 37.5034,110.81 38,108.5C 40.0596,107.239 41.5596,105.572 42.5,103.5C 43.8114,100.877 45.1447,98.2106 46.5,95.5C 50.5116,90.818 53.5116,85.4846 55.5,79.5C 55.9954,77.5183 56.4954,75.5183 57,73.5C 58.016,72.3659 58.6827,72.6992 59,74.5C 59.4224,72.5743 60.5891,71.5743 62.5,71.5 Z"/></g>
<g><path style="opacity:1" fill="#e5b6db" d="M 49.5,95.5 C 48.2949,99.6785 46.2949,103.345 43.5,106.5C 44.7051,102.322 46.7051,98.6549 49.5,95.5 Z"/></g>
<g><path style="opacity:1" fill="#f6caeb" d="M 5.5,87.5 C 5.10746,89.2838 4.4408,90.9505 3.5,92.5C 1.83857,94.6333 0.838572,97.1333 0.5,100C 1.28976,102.282 2.28976,104.448 3.5,106.5C 2.16667,105.833 0.833333,105.167 -0.5,104.5C -0.5,101.167 -0.5,97.8333 -0.5,94.5C 0.651981,91.4385 2.65198,89.1052 5.5,87.5 Z"/></g>
<g><path style="opacity:1" fill="#dfb6e6" d="M 66.5,102.5 C 66.5858,103.496 66.2524,104.329 65.5,105C 73.8267,105.5 82.16,105.666 90.5,105.5C 90.5,105.833 90.5,106.167 90.5,106.5C 82.5,106.5 74.5,106.5 66.5,106.5C 65.5084,106.672 64.8417,106.338 64.5,105.5C 64.427,103.973 65.0937,102.973 66.5,102.5 Z"/></g>
<g><path style="opacity:1" fill="#fcf1fc" d="M 53.5,88.5 C 53.3155,94.3151 51.9822,99.8151 49.5,105C 50.9304,106.44 52.597,106.774 54.5,106C 56.3543,103.457 57.5209,100.624 58,97.5C 59.4443,95.8446 61.2776,95.178 63.5,95.5C 62.2271,97.7128 61.2271,100.046 60.5,102.5C 59.5416,102.953 58.7083,103.619 58,104.5C 56.0627,108.714 53.896,112.714 51.5,116.5C 49.347,118.794 47.6803,121.46 46.5,124.5C 45.1001,125.1 44.1001,126.1 43.5,127.5C 43.7394,125.533 43.4061,123.699 42.5,122C 43.9047,120.731 45.5714,120.231 47.5,120.5C 47.9153,118.253 48.5819,116.086 49.5,114C 49.1661,111.825 48.1661,109.992 46.5,108.5C 46.6425,110.382 46.1425,112.382 45,114.5C 43.3829,115.851 42.2162,117.518 41.5,119.5C 40.8333,119.167 40.1667,118.833 39.5,118.5C 37.7844,119.549 36.4511,120.882 35.5,122.5C 35.5,121.5 35.5,120.5 35.5,119.5C 36.9063,119.027 37.573,118.027 37.5,116.5C 38.1174,116.611 38.6174,116.944 39,117.5C 41.1814,114.125 42.6814,110.458 43.5,106.5C 46.2949,103.345 48.2949,99.6785 49.5,95.5C 50.5957,92.9684 51.9291,90.6351 53.5,88.5 Z"/></g>
<g><path style="opacity:1" fill="#9f3ba3" d="M 66.5,107.5 C 68.8333,107.5 71.1667,107.5 73.5,107.5C 73.9817,108.416 74.315,109.416 74.5,110.5C 73.2111,121.403 72.5445,132.403 72.5,143.5C 72.6667,153.833 72.8333,164.167 73,174.5C 74.839,176.711 74.6724,178.877 72.5,181C 70.6079,181.973 68.6079,182.64 66.5,183C 70.8206,183.499 75.1539,183.666 79.5,183.5C 79.5,183.833 79.5,184.167 79.5,184.5C 72.5,184.5 65.5,184.5 58.5,184.5C 58.5,184.167 58.5,183.833 58.5,183.5C 58.8333,183.5 59.1667,183.5 59.5,183.5C 60.675,183.719 61.675,183.386 62.5,182.5C 61.5,181.667 60.5,180.833 59.5,180C 62.3682,178.617 65.3682,177.784 68.5,177.5C 68.6666,155.831 68.5,134.164 68,112.5C 66.7453,111.789 65.5786,110.956 64.5,110C 65.756,109.583 66.4226,108.75 66.5,107.5 Z"/></g>
<g><path style="opacity:1" fill="#963eaa" d="M 73.5,107.5 C 75.5,107.5 77.5,107.5 79.5,107.5C 80.5676,108.434 81.901,108.768 83.5,108.5C 83.5,109.833 83.5,111.167 83.5,112.5C 82.1667,112.5 80.8333,112.5 79.5,112.5C 79.5,128.167 79.5,143.833 79.5,159.5C 80.552,159.351 81.552,159.517 82.5,160C 83.7383,160.69 83.7383,161.19 82.5,161.5C 79.9236,161.722 79.0902,163.055 80,165.5C 82.4732,166.033 84.3065,167.366 85.5,169.5C 85.3918,170.442 85.0585,171.275 84.5,172C 80.3617,171.782 79.0284,173.448 80.5,177C 82.5,177.333 84.5,177.667 86.5,178C 84.0438,179.711 81.3771,181.044 78.5,182C 79.056,182.383 79.3893,182.883 79.5,183.5C 75.1539,183.666 70.8206,183.499 66.5,183C 68.6079,182.64 70.6079,181.973 72.5,181C 74.6724,178.877 74.839,176.711 73,174.5C 72.8333,164.167 72.6667,153.833 72.5,143.5C 72.5445,132.403 73.2111,121.403 74.5,110.5C 74.315,109.416 73.9817,108.416 73.5,107.5 Z"/></g>
<g><path style="opacity:1" fill="#7a4e9a" d="M 66.5,107.5 C 66.5,107.167 66.5,106.833 66.5,106.5C 74.5,106.5 82.5,106.5 90.5,106.5C 90.5,125.167 90.5,143.833 90.5,162.5C 89.0047,162.585 88.0047,161.919 87.5,160.5C 89.4678,143.002 90.1345,125.336 89.5,107.5C 86.1667,107.5 82.8333,107.5 79.5,107.5C 77.5,107.5 75.5,107.5 73.5,107.5C 71.1667,107.5 68.8333,107.5 66.5,107.5 Z"/></g>
<g><path style="opacity:1" fill="#feeefe" d="M 91.5,106.5 C 92.1789,124.735 92.8456,143.069 93.5,161.5C 91.5131,143.53 90.8465,125.197 91.5,106.5 Z"/></g>
<g><path style="opacity:1" fill="#8c42ae" d="M 79.5,107.5 C 82.8333,107.5 86.1667,107.5 89.5,107.5C 90.1345,125.336 89.4678,143.002 87.5,160.5C 88.0047,161.919 89.0047,162.585 90.5,162.5C 91.9187,163.451 93.5853,163.784 95.5,163.5C 94.0813,164.451 92.4147,164.784 90.5,164.5C 87.8369,163.248 85.1702,162.248 82.5,161.5C 83.7383,161.19 83.7383,160.69 82.5,160C 81.552,159.517 80.552,159.351 79.5,159.5C 79.5,143.833 79.5,128.167 79.5,112.5C 80.8333,112.5 82.1667,112.5 83.5,112.5C 83.5,111.167 83.5,109.833 83.5,108.5C 81.901,108.768 80.5676,108.434 79.5,107.5 Z"/></g>
<g><path style="opacity:1" fill="#cdb1e9" d="M 90.5,106.5 C 90.8333,106.5 91.1667,106.5 91.5,106.5C 90.8465,125.197 91.5131,143.53 93.5,161.5C 101.833,161.5 110.167,161.5 118.5,161.5C 109.348,162.494 100.015,162.827 90.5,162.5C 90.5,143.833 90.5,125.167 90.5,106.5 Z"/></g>
<g><path style="opacity:1" fill="#e6fbfb" d="M 199.5,100.5 C 199.5,106.833 199.5,113.167 199.5,119.5C 198.778,119.082 198.278,118.416 198,117.5C 195.925,119.648 193.592,119.982 191,118.5C 189.574,120.766 187.74,122.432 185.5,123.5C 188.821,117.527 192.155,111.527 195.5,105.5C 196.6,104.395 197.267,103.062 197.5,101.5C 198.167,101.167 198.833,100.833 199.5,100.5 Z"/></g>
<g><path style="opacity:1" fill="#fdfdfd" d="M -0.5,108.5 C 4.21865,109.403 6.71865,112.403 7,117.5C 9.88712,119.752 11.2205,122.752 11,126.5C 12.3877,126.214 13.8877,126.548 15.5,127.5C 16.1667,127.5 16.5,127.833 16.5,128.5C 15.8941,131.916 16.8941,134.582 19.5,136.5C 20.2811,137.729 20.7811,139.062 21,140.5C 21.7247,141.059 22.5581,141.392 23.5,141.5C 25.9125,139.611 28.2459,137.444 30.5,135C 30.2155,133.044 30.2155,130.877 30.5,128.5C 30.5,128.167 30.5,127.833 30.5,127.5C 30.8333,127.5 31.1667,127.5 31.5,127.5C 33.5311,126.461 34.8645,124.795 35.5,122.5C 36.4511,120.882 37.7844,119.549 39.5,118.5C 40.1667,118.833 40.8333,119.167 41.5,119.5C 42.2162,117.518 43.3829,115.851 45,114.5C 46.1425,112.382 46.6425,110.382 46.5,108.5C 48.1661,109.992 49.1661,111.825 49.5,114C 48.5819,116.086 47.9153,118.253 47.5,120.5C 45.5714,120.231 43.9047,120.731 42.5,122C 43.4061,123.699 43.7394,125.533 43.5,127.5C 41.3565,130.122 40.0231,133.122 39.5,136.5C 39.1667,137.167 38.8333,137.833 38.5,138.5C 34.864,139.743 33.1973,142.41 33.5,146.5C 32.5041,146.414 31.6708,146.748 31,147.5C 30.3333,150.167 30.3333,152.833 31,155.5C 31.7083,156.381 32.5416,157.047 33.5,157.5C 33.3184,159.591 33.6518,161.591 34.5,163.5C 36.6315,166.819 38.9648,169.819 41.5,172.5C 41.4174,178.337 43.7507,182.671 48.5,185.5C 74.8333,185.5 101.167,185.5 127.5,185.5C 135.167,185.5 142.833,185.5 150.5,185.5C 150.402,183.447 151.069,181.78 152.5,180.5C 153.496,180.414 154.329,180.748 155,181.5C 155,180.167 155,178.833 155,177.5C 157.087,176.166 158.587,174.333 159.5,172C 160.448,171.517 161.448,171.351 162.5,171.5C 163.505,168.279 164.339,164.946 165,161.5C 168.514,157.225 171.847,152.892 175,148.5C 175.333,146.833 175.667,145.167 176,143.5C 177.011,142.663 178.178,142.33 179.5,142.5C 178.524,137.775 180.024,134.108 184,131.5C 184.822,128.883 185.322,126.216 185.5,123.5C 187.74,122.432 189.574,120.766 191,118.5C 193.592,119.982 195.925,119.648 198,117.5C 198.278,118.416 198.778,119.082 199.5,119.5C 199.5,146.167 199.5,172.833 199.5,199.5C 132.833,199.5 66.1667,199.5 -0.5,199.5C -0.5,169.167 -0.5,138.833 -0.5,108.5 Z"/></g>
<g><path style="opacity:1" fill="#f8d7ef" d="M 43.5,106.5 C 42.6814,110.458 41.1814,114.125 39,117.5C 38.6174,116.944 38.1174,116.611 37.5,116.5C 37.5,116.167 37.5,115.833 37.5,115.5C 39.2519,112.328 41.2519,109.328 43.5,106.5 Z"/></g>
<g><path style="opacity:1" fill="#dd9bc6" d="M 37.5,116.5 C 37.573,118.027 36.9063,119.027 35.5,119.5C 35.427,117.973 36.0937,116.973 37.5,116.5 Z"/></g>
<g><path style="opacity:1" fill="#fbe4f6" d="M -0.5,104.5 C 0.833333,105.167 2.16667,105.833 3.5,106.5C 4.59302,108.349 5.92635,110.016 7.5,111.5C 9.7277,117.059 12.3944,122.392 15.5,127.5C 13.8877,126.548 12.3877,126.214 11,126.5C 11.2205,122.752 9.88712,119.752 7,117.5C 6.71865,112.403 4.21865,109.403 -0.5,108.5C -0.5,107.167 -0.5,105.833 -0.5,104.5 Z"/></g>
<g><path style="opacity:1" fill="#ab379a" d="M 60.5,102.5 C 61.5,102.5 62.5,102.5 63.5,102.5C 63.2627,103.791 63.596,104.791 64.5,105.5C 64.8417,106.338 65.5084,106.672 66.5,106.5C 66.5,106.833 66.5,107.167 66.5,107.5C 66.4226,108.75 65.756,109.583 64.5,110C 65.5786,110.956 66.7453,111.789 68,112.5C 68.5,134.164 68.6666,155.831 68.5,177.5C 65.3682,177.784 62.3682,178.617 59.5,180C 60.5,180.833 61.5,181.667 62.5,182.5C 61.675,183.386 60.675,183.719 59.5,183.5C 58.2347,182.521 56.9014,181.521 55.5,180.5C 57.6797,178.91 60.013,177.576 62.5,176.5C 61.2643,175.643 59.931,174.977 58.5,174.5C 57.9948,161.346 56.9948,148.346 55.5,135.5C 56.0148,131.897 56.0148,128.397 55.5,125C 57.4927,122.579 57.826,120.079 56.5,117.5C 55.0813,116.549 53.4147,116.216 51.5,116.5C 53.896,112.714 56.0627,108.714 58,104.5C 58.7083,103.619 59.5416,102.953 60.5,102.5 Z"/></g>
<g><path style="opacity:1" fill="#5f58d3" d="M 111.5,15.5 C 111.5,15.1667 111.5,14.8333 111.5,14.5C 114.881,14.4595 118.214,14.7929 121.5,15.5C 122.474,38.0822 122.474,70.0822 121.5,111.5C 120.914,111.709 120.414,112.043 120,112.5C 118.456,115.791 118.289,119.124 119.5,122.5C 120.086,122.291 120.586,121.957 121,121.5C 122.092,118.956 122.759,116.289 123,113.5C 123.414,113.043 123.914,112.709 124.5,112.5C 126.171,114.51 126.838,116.843 126.5,119.5C 125.542,119.953 124.708,120.619 124,121.5C 122.889,125.944 120.889,129.944 118,133.5C 117.51,134.793 117.343,136.127 117.5,137.5C 116.167,137.5 114.833,137.5 113.5,137.5C 113.203,134.276 113.87,131.276 115.5,128.5C 116.325,127.614 117.325,127.281 118.5,127.5C 117.949,124.193 117.616,120.86 117.5,117.5C 118.617,83.8474 118.783,50.1807 118,16.5C 115.959,15.5769 113.792,15.2436 111.5,15.5 Z"/></g>
<g><path style="opacity:1" fill="#2e8acf" d="M 149.5,111.5 C 150.75,111.577 151.583,112.244 152,113.5C 152.579,117.566 153.746,121.4 155.5,125C 154.388,136.144 154.221,147.31 155,158.5C 156.158,158.998 156.991,159.831 157.5,161C 156.751,163.497 156.084,165.997 155.5,168.5C 153.623,172.599 151.623,176.599 149.5,180.5C 150.096,175.107 151.762,170.107 154.5,165.5C 153.995,164.081 152.995,163.415 151.5,163.5C 149.682,165.078 148.682,164.578 148.5,162C 149.721,156.093 150.388,150.093 150.5,144C 150.409,138.056 149.742,132.223 148.5,126.5C 148.808,123.25 148.975,119.917 149,116.5C 150.628,115.038 150.795,113.372 149.5,111.5 Z"/></g>
<g><path style="opacity:1" fill="#25a8c0" d="M 195.5,105.5 C 192.155,111.527 188.821,117.527 185.5,123.5C 180.248,131.668 175.248,140.001 170.5,148.5C 170.5,146.833 170.5,145.167 170.5,143.5C 170.337,141.143 170.503,138.81 171,136.5C 172.966,133.399 174.8,130.232 176.5,127C 175.306,124.153 175.306,121.32 176.5,118.5C 177.684,120.046 178.684,121.713 179.5,123.5C 180.833,123.167 182.167,122.833 183.5,122.5C 184.714,118.846 186.714,115.679 189.5,113C 190.127,110.865 190.627,108.698 191,106.5C 192.356,105.62 193.856,105.286 195.5,105.5 Z"/></g>
<g><path style="opacity:1" fill="#3d7dce" d="M 151.5,163.5 C 152.995,163.415 153.995,164.081 154.5,165.5C 151.762,170.107 150.096,175.107 149.5,180.5C 147.603,181.65 145.603,182.65 143.5,183.5C 141.167,182.167 138.833,180.833 136.5,179.5C 138.833,179.5 141.167,179.5 143.5,179.5C 142.902,174.187 142.569,168.854 142.5,163.5C 143.5,163.5 144.5,163.5 145.5,163.5C 144.214,158.637 142.547,153.971 140.5,149.5C 140.231,146.447 141.064,143.78 143,141.5C 143.667,138.833 143.667,136.167 143,133.5C 142.02,135.059 141.187,136.726 140.5,138.5C 139.039,136.53 137.373,134.863 135.5,133.5C 136.5,131.5 137.5,129.5 138.5,127.5C 139.833,127.5 141.167,127.5 142.5,127.5C 141.848,123.44 143.515,121.44 147.5,121.5C 147.667,134.171 147.5,146.838 147,159.5C 146.371,163.052 145.538,166.552 144.5,170C 144.833,170.833 145.167,171.667 145.5,172.5C 147.085,170.294 148.585,167.961 150,165.5C 150.333,165.833 150.667,166.167 151,166.5C 151.483,165.552 151.649,164.552 151.5,163.5 Z"/></g>
<g><path style="opacity:1" fill="#f8d6eb" d="M 35.5,119.5 C 35.5,120.5 35.5,121.5 35.5,122.5C 34.8645,124.795 33.5311,126.461 31.5,127.5C 32.3257,124.515 33.659,121.849 35.5,119.5 Z"/></g>
<g><path style="opacity:1" fill="#bb318b" d="M 51.5,116.5 C 53.4147,116.216 55.0813,116.549 56.5,117.5C 55.0337,118.347 54.2004,119.68 54,121.5C 52.7979,126.264 51.9646,131.097 51.5,136C 53.3137,148.992 53.9804,162.159 53.5,175.5C 55.288,175.215 56.9547,175.548 58.5,176.5C 56.5,177.167 54.5,177.833 52.5,178.5C 51.7542,179.736 51.4208,181.07 51.5,182.5C 53.8056,182.993 56.139,183.326 58.5,183.5C 58.5,183.833 58.5,184.167 58.5,184.5C 54.5128,184.99 50.8462,184.324 47.5,182.5C 47.5,182.167 47.5,181.833 47.5,181.5C 46.4133,177.043 45.08,172.71 43.5,168.5C 44.4778,168.189 45.1445,167.522 45.5,166.5C 44.5589,164.228 43.2255,162.228 41.5,160.5C 45.5766,159.193 47.5766,156.36 47.5,152C 47.1265,148.421 45.7931,145.254 43.5,142.5C 46.9761,139.418 47.9761,135.752 46.5,131.5C 48.4259,126.634 50.0926,121.634 51.5,116.5 Z"/></g>
<g><path style="opacity:1" fill="#b73292" d="M 56.5,117.5 C 57.826,120.079 57.4927,122.579 55.5,125C 56.0148,128.397 56.0148,131.897 55.5,135.5C 56.9948,148.346 57.9948,161.346 58.5,174.5C 59.931,174.977 61.2643,175.643 62.5,176.5C 60.013,177.576 57.6797,178.91 55.5,180.5C 56.9014,181.521 58.2347,182.521 59.5,183.5C 59.1667,183.5 58.8333,183.5 58.5,183.5C 56.139,183.326 53.8056,182.993 51.5,182.5C 51.4208,181.07 51.7542,179.736 52.5,178.5C 54.5,177.833 56.5,177.167 58.5,176.5C 56.9547,175.548 55.288,175.215 53.5,175.5C 53.9804,162.159 53.3137,148.992 51.5,136C 51.9646,131.097 52.7979,126.264 54,121.5C 54.2004,119.68 55.0337,118.347 56.5,117.5 Z"/></g>
<g><path style="opacity:1" fill="#2b92cc" d="M 157.5,95.5 C 158.568,96.4345 159.901,96.7678 161.5,96.5C 161.666,106.506 161.5,116.506 161,126.5C 159.954,127.772 159.454,129.272 159.5,131C 159.972,135.743 160.639,140.41 161.5,145C 159.556,146.722 158.556,148.889 158.5,151.5C 159.988,153.986 160.988,156.653 161.5,159.5C 159.62,161.926 158.287,164.592 157.5,167.5C 156.833,167.833 156.167,168.167 155.5,168.5C 156.084,165.997 156.751,163.497 157.5,161C 156.991,159.831 156.158,158.998 155,158.5C 154.221,147.31 154.388,136.144 155.5,125C 153.746,121.4 152.579,117.566 152,113.5C 151.583,112.244 150.75,111.577 149.5,111.5C 148.833,111.5 148.167,111.5 147.5,111.5C 150.088,107.326 152.421,102.993 154.5,98.5C 155.272,97.3065 156.272,96.3065 157.5,95.5 Z"/></g>
<g><path style="opacity:1" fill="#3b83cc" d="M 147.5,111.5 C 148.167,111.5 148.833,111.5 149.5,111.5C 150.795,113.372 150.628,115.038 149,116.5C 148.975,119.917 148.808,123.25 148.5,126.5C 149.742,132.223 150.409,138.056 150.5,144C 150.388,150.093 149.721,156.093 148.5,162C 148.682,164.578 149.682,165.078 151.5,163.5C 151.649,164.552 151.483,165.552 151,166.5C 150.667,166.167 150.333,165.833 150,165.5C 148.585,167.961 147.085,170.294 145.5,172.5C 145.167,171.667 144.833,170.833 144.5,170C 145.538,166.552 146.371,163.052 147,159.5C 147.5,146.838 147.667,134.171 147.5,121.5C 143.515,121.44 141.848,123.44 142.5,127.5C 141.167,127.5 139.833,127.5 138.5,127.5C 141.501,122.163 144.501,116.83 147.5,111.5 Z"/></g>
<g><path style="opacity:1" fill="#f8d1f0" d="M 46.5,124.5 C 44.8384,127.83 43.1717,131.164 41.5,134.5C 40.8333,135.167 40.1667,135.833 39.5,136.5C 40.0231,133.122 41.3565,130.122 43.5,127.5C 44.1001,126.1 45.1001,125.1 46.5,124.5 Z"/></g>
<g><path style="opacity:1" fill="#ad4f8b" d="M 51.5,116.5 C 50.0926,121.634 48.4259,126.634 46.5,131.5C 44.9991,132.752 43.3325,133.752 41.5,134.5C 43.1717,131.164 44.8384,127.83 46.5,124.5C 47.6803,121.46 49.347,118.794 51.5,116.5 Z"/></g>
<g><path style="opacity:1" fill="#b63f7c" d="M 7.5,111.5 C 10.0776,114.946 12.911,118.28 16,121.5C 17.8346,126.116 20.3346,130.449 23.5,134.5C 26.5471,133.125 27.8804,130.792 27.5,127.5C 28.5,127.5 29.5,127.5 30.5,127.5C 30.5,127.833 30.5,128.167 30.5,128.5C 28.5832,131.331 26.9166,134.331 25.5,137.5C 24.1667,138.833 22.8333,138.833 21.5,137.5C 20.0834,134.331 18.4168,131.331 16.5,128.5C 16.5,127.833 16.1667,127.5 15.5,127.5C 12.3944,122.392 9.7277,117.059 7.5,111.5 Z"/></g>
<g><path style="opacity:1" fill="#fce2f5" d="M 16.5,128.5 C 18.4168,131.331 20.0834,134.331 21.5,137.5C 22.8333,141.5 24.1667,141.5 25.5,137.5C 26.9166,134.331 28.5832,131.331 30.5,128.5C 30.2155,130.877 30.2155,133.044 30.5,135C 28.2459,137.444 25.9125,139.611 23.5,141.5C 22.5581,141.392 21.7247,141.059 21,140.5C 20.7811,139.062 20.2811,137.729 19.5,136.5C 16.8941,134.582 15.8941,131.916 16.5,128.5 Z"/></g>
<g><path style="opacity:1" fill="#dba0bc" d="M 21.5,137.5 C 22.8333,138.833 24.1667,138.833 25.5,137.5C 24.1667,141.5 22.8333,141.5 21.5,137.5 Z"/></g>
<g><path style="opacity:1" fill="#4574d0" d="M 135.5,133.5 C 137.373,134.863 139.039,136.53 140.5,138.5C 141.187,136.726 142.02,135.059 143,133.5C 143.667,136.167 143.667,138.833 143,141.5C 141.064,143.78 140.231,146.447 140.5,149.5C 142.547,153.971 144.214,158.637 145.5,163.5C 144.5,163.5 143.5,163.5 142.5,163.5C 142.569,168.854 142.902,174.187 143.5,179.5C 141.167,179.5 138.833,179.5 136.5,179.5C 136.804,178.85 137.137,178.183 137.5,177.5C 135.971,171.644 134.971,165.644 134.5,159.5C 133.692,159.192 133.025,158.692 132.5,158C 134.333,157.5 135.5,156.333 136,154.5C 136.824,151.118 136.657,147.784 135.5,144.5C 133.704,146.9 131.37,148.567 128.5,149.5C 131.173,145.647 132.84,141.314 133.5,136.5C 133.932,135.29 134.599,134.29 135.5,133.5 Z"/></g>
<g><path style="opacity:1" fill="#fddbf3" d="M 38.5,138.5 C 37.8333,140.167 37.1667,141.833 36.5,143.5C 35.2719,144.306 34.2719,145.306 33.5,146.5C 33.1973,142.41 34.864,139.743 38.5,138.5 Z"/></g>
<g><path style="opacity:1" fill="#c62d85" d="M 46.5,131.5 C 47.9761,135.752 46.9761,139.418 43.5,142.5C 45.7931,145.254 47.1265,148.421 47.5,152C 47.5766,156.36 45.5766,159.193 41.5,160.5C 43.2255,162.228 44.5589,164.228 45.5,166.5C 45.1445,167.522 44.4778,168.189 43.5,168.5C 41.122,166.448 38.7887,164.448 36.5,162.5C 36.113,158.945 35.113,155.612 33.5,152.5C 34.3083,149.408 35.3083,146.408 36.5,143.5C 37.1667,141.833 37.8333,140.167 38.5,138.5C 38.8333,137.833 39.1667,137.167 39.5,136.5C 40.1667,135.833 40.8333,135.167 41.5,134.5C 43.3325,133.752 44.9991,132.752 46.5,131.5 Z"/></g>
<g><path style="opacity:1" fill="#6578bd" d="M 133.5,136.5 C 132.84,141.314 131.173,145.647 128.5,149.5C 127.761,149.369 127.094,149.536 126.5,150C 125.968,152.463 124.634,154.297 122.5,155.5C 125.399,148.7 129.065,142.367 133.5,136.5 Z"/></g>
<g><path style="opacity:1" fill="#efd0e3" d="M 33.5,146.5 C 30.8449,150.199 30.8449,153.866 33.5,157.5C 32.5416,157.047 31.7083,156.381 31,155.5C 30.3333,152.833 30.3333,150.167 31,147.5C 31.6708,146.748 32.5041,146.414 33.5,146.5 Z"/></g>
<g><path style="opacity:1" fill="#5267d3" d="M 128.5,179.5 C 129.141,178.518 129.807,177.518 130.5,176.5C 128.034,175.877 125.701,175.043 123.5,174C 124.766,173.691 125.933,173.191 127,172.5C 127.937,168.084 128.103,163.751 127.5,159.5C 128.376,159.631 129.043,159.298 129.5,158.5C 125.005,153.806 126.005,150.806 132.5,149.5C 133.167,149.833 133.833,150.167 134.5,150.5C 133.262,152.698 131.928,154.865 130.5,157C 131.721,163.563 133.054,170.063 134.5,176.5C 132.936,178.251 130.936,179.251 128.5,179.5 Z"/></g>
<g><path style="opacity:1" fill="#b0477c" d="M 36.5,143.5 C 35.3083,146.408 34.3083,149.408 33.5,152.5C 35.113,155.612 36.113,158.945 36.5,162.5C 35.3127,160.928 34.3127,159.261 33.5,157.5C 30.8449,153.866 30.8449,150.199 33.5,146.5C 34.2719,145.306 35.2719,144.306 36.5,143.5 Z"/></g>
<g><path style="opacity:1" fill="#4e6dd1" d="M 136.5,179.5 C 138.833,180.833 141.167,182.167 143.5,183.5C 138.36,184.488 133.026,184.821 127.5,184.5C 127.5,184.167 127.5,183.833 127.5,183.5C 127.5,182.833 127.5,182.167 127.5,181.5C 127.328,180.508 127.662,179.842 128.5,179.5C 130.936,179.251 132.936,178.251 134.5,176.5C 133.054,170.063 131.721,163.563 130.5,157C 131.928,154.865 133.262,152.698 134.5,150.5C 133.833,150.167 133.167,149.833 132.5,149.5C 126.005,150.806 125.005,153.806 129.5,158.5C 129.043,159.298 128.376,159.631 127.5,159.5C 125.955,158.77 125.122,157.437 125,155.5C 124.292,156.381 123.458,157.047 122.5,157.5C 122.5,156.833 122.5,156.167 122.5,155.5C 124.634,154.297 125.968,152.463 126.5,150C 127.094,149.536 127.761,149.369 128.5,149.5C 131.37,148.567 133.704,146.9 135.5,144.5C 136.657,147.784 136.824,151.118 136,154.5C 135.5,156.333 134.333,157.5 132.5,158C 133.025,158.692 133.692,159.192 134.5,159.5C 134.971,165.644 135.971,171.644 137.5,177.5C 137.137,178.183 136.804,178.85 136.5,179.5 Z"/></g>
<g><path style="opacity:1" fill="#499cbe" d="M 170.5,149.5 C 166.56,156.767 162.226,163.767 157.5,170.5C 157.5,169.5 157.5,168.5 157.5,167.5C 158.287,164.592 159.62,161.926 161.5,159.5C 162.968,157.36 164.635,155.194 166.5,153C 165.944,152.617 165.611,152.117 165.5,151.5C 167.05,150.559 168.716,149.893 170.5,149.5 Z"/></g>
<g><path style="opacity:1" fill="#6d5caf" d="M 122.5,155.5 C 122.5,156.167 122.5,156.833 122.5,157.5C 122.739,159.467 122.406,161.301 121.5,163C 118.183,163.498 114.85,163.665 111.5,163.5C 106.167,163.5 100.833,163.5 95.5,163.5C 93.5853,163.784 91.9187,163.451 90.5,162.5C 100.015,162.827 109.348,162.494 118.5,161.5C 119.846,159.463 121.18,157.463 122.5,155.5 Z"/></g>
<g><path style="opacity:1" fill="#595fd3" d="M 127.5,159.5 C 128.103,163.751 127.937,168.084 127,172.5C 125.933,173.191 124.766,173.691 123.5,174C 125.701,175.043 128.034,175.877 130.5,176.5C 129.807,177.518 129.141,178.518 128.5,179.5C 127.662,179.842 127.328,180.508 127.5,181.5C 125.25,181.819 123.25,181.319 121.5,180C 129.36,178.203 129.027,177.036 120.5,176.5C 120.11,172.861 121.11,169.695 123.5,167C 120.893,164.895 117.893,164.062 114.5,164.5C 113.209,164.737 112.209,164.404 111.5,163.5C 114.85,163.665 118.183,163.498 121.5,163C 122.406,161.301 122.739,159.467 122.5,157.5C 123.458,157.047 124.292,156.381 125,155.5C 125.122,157.437 125.955,158.77 127.5,159.5 Z"/></g>
<g><path style="opacity:1" fill="#784ac2" d="M 95.5,163.5 C 100.833,163.5 106.167,163.5 111.5,163.5C 112.209,164.404 113.209,164.737 114.5,164.5C 113.791,165.404 112.791,165.737 111.5,165.5C 111.5,166.833 111.5,168.167 111.5,169.5C 109.076,169.192 106.743,169.526 104.5,170.5C 105.429,172.322 104.762,173.655 102.5,174.5C 102.709,175.086 103.043,175.586 103.5,176C 99.6391,177.343 99.6391,178.843 103.5,180.5C 100.833,181.167 98.1667,181.833 95.5,182.5C 100.792,183.495 106.125,183.828 111.5,183.5C 116.833,183.5 122.167,183.5 127.5,183.5C 127.5,183.833 127.5,184.167 127.5,184.5C 111.5,184.5 95.5,184.5 79.5,184.5C 79.5,184.167 79.5,183.833 79.5,183.5C 81.5273,183.662 83.5273,183.495 85.5,183C 85.1667,182.667 84.8333,182.333 84.5,182C 86.8884,181.697 89.0551,180.863 91,179.5C 91.4962,177.965 91.3295,176.465 90.5,175C 91.697,173.48 93.197,172.313 95,171.5C 95.7975,169.741 95.6309,168.074 94.5,166.5C 92.9745,166.006 91.6412,165.339 90.5,164.5C 92.4147,164.784 94.0813,164.451 95.5,163.5 Z"/></g>
<g><path style="opacity:1" fill="#fbd8f4" d="M 33.5,157.5 C 34.3127,159.261 35.3127,160.928 36.5,162.5C 38.1961,165.85 39.8627,169.183 41.5,172.5C 38.9648,169.819 36.6315,166.819 34.5,163.5C 33.6518,161.591 33.3184,159.591 33.5,157.5 Z"/></g>
<g><path style="opacity:1" fill="#6355d1" d="M 114.5,164.5 C 117.893,164.062 120.893,164.895 123.5,167C 121.11,169.695 120.11,172.861 120.5,176.5C 129.027,177.036 129.36,178.203 121.5,180C 123.25,181.319 125.25,181.819 127.5,181.5C 127.5,182.167 127.5,182.833 127.5,183.5C 122.167,183.5 116.833,183.5 111.5,183.5C 111.5,181.833 111.5,180.167 111.5,178.5C 114.109,178.17 115.776,176.67 116.5,174C 113.885,173.388 112.219,171.888 111.5,169.5C 111.5,168.167 111.5,166.833 111.5,165.5C 112.791,165.737 113.791,165.404 114.5,164.5 Z"/></g>
<g><path style="opacity:1" fill="#dff9fb" d="M 185.5,123.5 C 185.322,126.216 184.822,128.883 184,131.5C 180.024,134.108 178.524,137.775 179.5,142.5C 178.178,142.33 177.011,142.663 176,143.5C 175.667,145.167 175.333,146.833 175,148.5C 171.847,152.892 168.514,157.225 165,161.5C 164.339,164.946 163.505,168.279 162.5,171.5C 161.448,171.351 160.448,171.517 159.5,172C 158.587,174.333 157.087,176.166 155,177.5C 155,178.833 155,180.167 155,181.5C 154.329,180.748 153.496,180.414 152.5,180.5C 154.162,177.17 155.828,173.836 157.5,170.5C 162.226,163.767 166.56,156.767 170.5,149.5C 170.5,149.167 170.5,148.833 170.5,148.5C 175.248,140.001 180.248,131.668 185.5,123.5 Z"/></g>
<g><path style="opacity:1" fill="#6e4dcf" d="M 111.5,169.5 C 112.219,171.888 113.885,173.388 116.5,174C 115.776,176.67 114.109,178.17 111.5,178.5C 111.5,180.167 111.5,181.833 111.5,183.5C 106.125,183.828 100.792,183.495 95.5,182.5C 98.1667,181.833 100.833,181.167 103.5,180.5C 99.6391,178.843 99.6391,177.343 103.5,176C 103.043,175.586 102.709,175.086 102.5,174.5C 104.762,173.655 105.429,172.322 104.5,170.5C 106.743,169.526 109.076,169.192 111.5,169.5 Z"/></g>
<g><path style="opacity:1" fill="#8b41b8" d="M 82.5,161.5 C 85.1702,162.248 87.8369,163.248 90.5,164.5C 91.6412,165.339 92.9745,166.006 94.5,166.5C 95.6309,168.074 95.7975,169.741 95,171.5C 93.197,172.313 91.697,173.48 90.5,175C 91.3295,176.465 91.4962,177.965 91,179.5C 89.0551,180.863 86.8884,181.697 84.5,182C 84.8333,182.333 85.1667,182.667 85.5,183C 83.5273,183.495 81.5273,183.662 79.5,183.5C 79.3893,182.883 79.056,182.383 78.5,182C 81.3771,181.044 84.0438,179.711 86.5,178C 84.5,177.667 82.5,177.333 80.5,177C 79.0284,173.448 80.3617,171.782 84.5,172C 85.0585,171.275 85.3918,170.442 85.5,169.5C 84.3065,167.366 82.4732,166.033 80,165.5C 79.0902,163.055 79.9236,161.722 82.5,161.5 Z"/></g>
<g><path style="opacity:1" fill="#fae0f7" d="M 41.5,172.5 C 43.7481,175.328 45.7481,178.328 47.5,181.5C 47.5,181.833 47.5,182.167 47.5,182.5C 47.5569,183.609 47.8902,184.609 48.5,185.5C 43.7507,182.671 41.4174,178.337 41.5,172.5 Z"/></g>
<g><path style="opacity:1" fill="#ac4c86" d="M 36.5,162.5 C 38.7887,164.448 41.122,166.448 43.5,168.5C 45.08,172.71 46.4133,177.043 47.5,181.5C 45.7481,178.328 43.7481,175.328 41.5,172.5C 39.8627,169.183 38.1961,165.85 36.5,162.5 Z"/></g>
<g><path style="opacity:1" fill="#4e85b2" d="M 157.5,167.5 C 157.5,168.5 157.5,169.5 157.5,170.5C 155.828,173.836 154.162,177.17 152.5,180.5C 151.069,181.78 150.402,183.447 150.5,185.5C 142.833,185.5 135.167,185.5 127.5,185.5C 127.5,185.167 127.5,184.833 127.5,184.5C 133.026,184.821 138.36,184.488 143.5,183.5C 145.603,182.65 147.603,181.65 149.5,180.5C 151.623,176.599 153.623,172.599 155.5,168.5C 156.167,168.167 156.833,167.833 157.5,167.5 Z"/></g>
<g><path style="opacity:1" fill="#815394" d="M 47.5,182.5 C 50.8462,184.324 54.5128,184.99 58.5,184.5C 65.5,184.5 72.5,184.5 79.5,184.5C 95.5,184.5 111.5,184.5 127.5,184.5C 127.5,184.833 127.5,185.167 127.5,185.5C 101.167,185.5 74.8333,185.5 48.5,185.5C 47.8902,184.609 47.5569,183.609 47.5,182.5 Z"/></g>
</svg>
