<?xml version="1.0" encoding="UTF-8"?>
<!DOCTYPE svg PUBLIC "-//W3C//DTD SVG 1.1//EN" "http://www.w3.org/Graphics/SVG/1.1/DTD/svg11.dtd">
<svg xmlns="http://www.w3.org/2000/svg" version="1.1" width="432px" height="182px" style="shape-rendering:geometricPrecision; text-rendering:geometricPrecision; image-rendering:optimizeQuality; fill-rule:evenodd; clip-rule:evenodd" xmlns:xlink="http://www.w3.org/1999/xlink">
<g><path style="opacity:0.895" fill="#0da194" d="M 111.5,-0.5 C 114.833,-0.5 118.167,-0.5 121.5,-0.5C 124.961,1.47542 127.127,4.47542 128,8.5C 130.266,28.7636 125.933,47.4302 115,64.5C 114.198,68.8627 116.032,70.696 120.5,70C 126.91,63.5757 131.743,56.0757 135,47.5C 136.117,45.8757 137.617,44.8757 139.5,44.5C 155.58,47.8698 160.413,57.2032 154,72.5C 148.074,78.4003 141.074,80.067 133,77.5C 131.495,75.7017 131.328,73.8684 132.5,72C 136.562,71.1142 140.562,70.4476 144.5,70C 150.267,63.3333 149.267,57.8333 141.5,53.5C 137.535,62.2923 132.202,70.1257 125.5,77C 118.631,79.8537 112.631,78.6871 107.5,73.5C 102.32,78.0583 96.3197,79.5583 89.5,78C 85.5095,76.0096 83.0095,72.8429 82,68.5C 81.5007,63.5111 81.3341,58.5111 81.5,53.5C 78.8333,53.5 76.1667,53.5 73.5,53.5C 73.1329,62.1108 70.1329,69.6108 64.5,76C 52.1317,81.3873 45.6317,77.2206 45,63.5C 40.8258,70.5165 36.1591,77.1831 31,83.5C 30.6667,93.8333 30.3333,104.167 30,114.5C 29.7572,119.806 28.4238,124.806 26,129.5C 20.185,135.073 13.685,135.906 6.5,132C 1.67299,123.879 1.17299,115.379 5,106.5C 9.88449,97.619 15.5512,89.2856 22,81.5C 22.6667,79.8333 22.6667,78.1667 22,76.5C 11.8009,80.826 4.30087,78.1594 -0.5,68.5C -0.5,64.1667 -0.5,59.8333 -0.5,55.5C 4.44737,45.6276 12.114,42.6276 22.5,46.5C 25.041,43.8997 27.541,43.8997 30,46.5C 30.3333,54.5 30.6667,62.5 31,70.5C 36.6246,62.0851 42.1246,53.5851 47.5,45C 50.2175,43.967 52.0508,44.8003 53,47.5C 53.3333,54.5 53.6667,61.5 54,68.5C 56,71.1667 58,71.1667 60,68.5C 63.5845,61.1527 66.0845,53.486 67.5,45.5C 68.9385,44.9366 70.4385,44.6032 72,44.5C 77.1522,45.1377 82.3189,45.6377 87.5,46C 88.1258,46.7504 88.6258,47.5838 89,48.5C 89.1815,54.8969 89.8482,61.2303 91,67.5C 94.196,71.1868 97.696,71.3534 101.5,68C 102.894,67.044 103.561,65.7106 103.5,64C 100.257,47.9175 99.7567,31.7508 102,15.5C 102.899,8.68535 106.065,3.35202 111.5,-0.5 Z M 114.5,7.5 C 116.39,7.2965 117.89,7.96317 119,9.5C 121.955,25.7709 119.288,41.1042 111,55.5C 107.755,41.5464 107.755,27.5464 111,13.5C 111.926,11.3083 113.093,9.30826 114.5,7.5 Z M 13.5,52.5 C 22.1681,53.8324 25.0014,58.8324 22,67.5C 16.5586,71.9258 11.8919,71.2591 8,65.5C 6.57082,59.7001 8.40415,55.3668 13.5,52.5 Z M 21.5,94.5 C 22.1599,95.964 22.4932,97.6307 22.5,99.5C 22.0801,107.569 21.2468,115.569 20,123.5C 17.7175,127.041 15.0509,127.374 12,124.5C 10.6815,121.594 10.3482,118.594 11,115.5C 13.4537,107.926 16.9537,100.926 21.5,94.5 Z"/></g>
<g><path style="opacity:0.89" fill="#0da194" d="M 248.5,-0.5 C 252.167,-0.5 255.833,-0.5 259.5,-0.5C 265.149,4.91978 266.982,11.5864 265,19.5C 262.078,29.6705 256.411,38.0038 248,44.5C 247.333,45.5 247.333,46.5 248,47.5C 254.83,42.6926 260.497,43.6926 265,50.5C 265.594,56.1753 266.26,61.842 267,67.5C 269.589,71.3101 272.422,71.4768 275.5,68C 273.227,59.8158 275.227,52.8158 281.5,47C 296.855,41.6814 304.355,47.1814 304,63.5C 300.44,77.8625 291.94,81.8625 278.5,75.5C 274.608,78.3255 270.275,79.1588 265.5,78C 263,76.8333 261.167,75 260,72.5C 258.213,66.6391 257.213,60.6391 257,54.5C 256.311,53.6433 255.478,52.9767 254.5,52.5C 252.201,53.6351 250.034,54.9684 248,56.5C 247.798,63.5496 247.298,70.5496 246.5,77.5C 244.579,78.641 242.579,78.8077 240.5,78C 239.68,68.5774 239.18,59.0774 239,49.5C 236.413,51.1958 233.579,52.1958 230.5,52.5C 230.912,61.4303 228.246,69.2636 222.5,76C 215.432,80.2289 209.599,79.0623 205,72.5C 199.874,78.9964 193.708,80.163 186.5,76C 182.463,70.183 180.296,63.683 180,56.5C 177.411,60.5552 173.911,61.8885 169.5,60.5C 168.515,58.9017 168.349,57.235 169,55.5C 172.91,50.2441 177.91,46.5775 184,44.5C 184.873,44.7355 185.707,45.0688 186.5,45.5C 188,52.4499 189.5,59.4499 191,66.5C 194.946,71.9803 197.946,71.3136 200,64.5C 201.124,58.8973 201.79,53.2306 202,47.5C 205.212,43.347 207.878,43.6803 210,48.5C 210.121,55.2464 210.788,61.913 212,68.5C 213.133,70.2112 214.633,70.7112 216.5,70C 218.652,67.5311 220.152,64.6978 221,61.5C 221.87,56.1132 222.87,50.7798 224,45.5C 229.378,45.0407 234.378,43.3741 239,40.5C 239.204,30.4631 239.871,20.4631 241,10.5C 242.043,5.72067 244.543,2.054 248.5,-0.5 Z M 251.5,7.5 C 253.144,7.28649 254.644,7.61983 256,8.5C 257.952,17.6552 255.618,25.6552 249,32.5C 248.333,26.1667 248.333,19.8333 249,13.5C 249.573,11.3594 250.406,9.35943 251.5,7.5 Z M 288.5,52.5 C 293.234,53.3972 295.567,56.2306 295.5,61C 295.908,66.0392 293.741,69.2058 289,70.5C 284.869,69.5271 282.702,66.8604 282.5,62.5C 283.005,58.1386 285.005,54.8053 288.5,52.5 Z"/></g>
<g><path style="opacity:0.964" fill="#0da194" d="M 314.5,-0.5 C 319.833,-0.5 325.167,-0.5 330.5,-0.5C 330.5,60.1667 330.5,120.833 330.5,181.5C 301.167,181.5 271.833,181.5 242.5,181.5C 242.5,151.167 242.5,120.833 242.5,90.5C 266.5,90.5 290.5,90.5 314.5,90.5C 314.5,60.1667 314.5,29.8333 314.5,-0.5 Z M 257.5,105.5 C 276.5,105.5 295.5,105.5 314.5,105.5C 314.5,125.5 314.5,145.5 314.5,165.5C 295.5,165.5 276.5,165.5 257.5,165.5C 257.5,145.5 257.5,125.5 257.5,105.5 Z"/></g>
<g><path style="opacity:0.844" fill="#0da194" d="M 46.5,26.5 C 53.2399,25.7266 55.7399,28.3932 54,34.5C 49.1478,38.4955 45.6478,37.4955 43.5,31.5C 44.2599,29.6396 45.2599,27.973 46.5,26.5 Z"/></g>
<g><path style="opacity:0.956" fill="#0da194" d="M 122.5,181.5 C 96.8333,181.5 71.1667,181.5 45.5,181.5C 45.5,151.167 45.5,120.833 45.5,90.5C 71.1667,90.5 96.8333,90.5 122.5,90.5C 122.5,95.5 122.5,100.5 122.5,105.5C 102.167,105.5 81.8333,105.5 61.5,105.5C 61.5,125.5 61.5,145.5 61.5,165.5C 81.8333,165.5 102.167,165.5 122.5,165.5C 122.5,170.833 122.5,176.167 122.5,181.5 Z"/></g>
<g><path style="opacity:0.957" fill="#0da194" d="M 226.5,181.5 C 196.833,181.5 167.167,181.5 137.5,181.5C 137.5,151.167 137.5,120.833 137.5,90.5C 167.167,90.5 196.833,90.5 226.5,90.5C 226.5,120.833 226.5,151.167 226.5,181.5 Z M 153.5,105.5 C 172.5,105.5 191.5,105.5 210.5,105.5C 210.5,125.5 210.5,145.5 210.5,165.5C 191.5,165.5 172.5,165.5 153.5,165.5C 153.5,145.5 153.5,125.5 153.5,105.5 Z"/></g>
<g><path style="opacity:0.956" fill="#0da194" d="M 431.5,90.5 C 431.5,107.5 431.5,124.5 431.5,141.5C 408.5,141.5 385.5,141.5 362.5,141.5C 362.5,149.5 362.5,157.5 362.5,165.5C 385.5,165.5 408.5,165.5 431.5,165.5C 431.5,170.833 431.5,176.167 431.5,181.5C 403.167,181.5 374.833,181.5 346.5,181.5C 346.5,151.167 346.5,120.833 346.5,90.5C 374.833,90.5 403.167,90.5 431.5,90.5 Z M 362.5,105.5 C 380.167,105.5 397.833,105.5 415.5,105.5C 415.5,112.167 415.5,118.833 415.5,125.5C 397.833,125.5 380.167,125.5 362.5,125.5C 362.5,118.833 362.5,112.167 362.5,105.5 Z"/></g>
</svg>
