<?xml version="1.0" encoding="UTF-8"?>
<svg version="1.1" xmlns="http://www.w3.org/2000/svg" width="512" height="512">
<path d="M0 0 C0.69722168 0.33902344 1.39444336 0.67804687 2.11279297 1.02734375 C44.4566321 21.88882461 75.74582645 58.87352339 91.11572266 103.29052734 C105.77059973 148.19384755 102.17784514 196.88942367 81 239 C80.46375 239.99386719 79.9275 240.98773438 79.375 242.01171875 C78.6634375 243.33623047 78.6634375 243.33623047 77.9375 244.6875 C77.51339844 245.43386719 77.08929688 246.18023437 76.65234375 246.94921875 C75.77509159 248.97656853 75.77509159 248.97656853 76.68851185 250.84368706 C78.28486773 253.46837173 80.14970678 255.38582349 82.33146667 257.55178833 C83.69613068 258.9140731 83.69613068 258.9140731 85.08836365 260.30387878 C86.09943767 261.30309015 87.11059464 262.30221758 88.12182617 263.30126953 C89.18509261 264.35905909 90.24789653 265.41731375 91.31027222 266.47599792 C93.59868098 268.75469705 95.89011043 271.03029925 98.18385887 273.3036232 C101.81698751 276.90489589 105.44190929 280.51435344 109.06550598 284.12521362 C118.07176304 293.09740063 127.08719053 302.06035814 136.10766602 311.01824951 C143.11018406 317.97219838 150.10941625 324.92937761 157.09812909 331.89720428 C160.69257622 335.48018652 164.29383132 339.05613237 167.90049112 342.6268189 C170.15417619 344.86117126 172.40145045 347.10188939 174.64707565 349.34433937 C175.68157682 350.37485593 176.71863175 351.40281695 177.75855827 352.42785835 C189.66689872 364.17200273 198.27011113 375.30943521 198.5 392.5625 C198.3438941 405.29989754 193.32639295 415.29020905 184.875 424.6875 C176.02363544 433.10804593 163.92997072 436.58042592 151.95703125 436.3125 C136.11959045 434.63879424 125.26326486 425.87296777 114.49169922 414.94580078 C113.37779828 413.83076923 112.26301121 412.71662232 111.14741516 411.60328674 C108.14528204 408.60229334 105.15557541 405.58919826 102.16807318 402.57364893 C99.03497644 399.415414 95.89041979 396.26863014 92.74710083 393.12057495 C86.80718746 387.16826814 80.87753772 381.20584617 74.95157635 375.23965251 C68.20006425 368.44330932 61.43708397 361.65842693 54.67315269 354.87444711 C40.76937241 340.92894484 26.87993829 326.96922971 13 313 C9.05924863 314.26210224 5.5043042 315.70498723 1.85375977 317.66479492 C-37.72131804 338.78595697 -85.9136042 340.92446555 -128.52734375 328.7265625 C-136.98122365 326.14892442 -145.03087838 322.80439849 -153 319 C-153.72380859 318.65598145 -154.44761719 318.31196289 -155.19335938 317.95751953 C-172.77626549 309.45541547 -187.83656175 298.18017503 -201.60546875 284.390625 C-202.98636221 283.01198422 -204.38223987 281.64735289 -205.81640625 280.32421875 C-227.44417211 260.05121227 -242.38027739 229.61097263 -249 201 C-249.29197266 199.76032471 -249.29197266 199.76032471 -249.58984375 198.49560547 C-258.58538374 158.52277703 -252.87346989 116.63761581 -235 80 C-234.68305176 79.34161133 -234.36610352 78.68322266 -234.03955078 78.00488281 C-222.1858176 53.65833494 -203.47278083 33.18727109 -182 17 C-181.154375 16.35933594 -180.30875 15.71867187 -179.4375 15.05859375 C-128.10949043 -22.31027808 -56.80020661 -27.73866427 0 0 Z M-172 33 C-172.85335937 33.65097656 -173.70671875 34.30195312 -174.5859375 34.97265625 C-208.19128824 61.33462494 -228.95510859 99.12163329 -234.625 141.3605957 C-235.25470946 147.47197526 -235.34004455 153.54786061 -235.3125 159.6875 C-235.30758545 160.99750977 -235.3026709 162.30751953 -235.29760742 163.65722656 C-235.17303864 174.02901516 -234.3202517 183.89411723 -232 194 C-231.83902832 194.72477539 -231.67805664 195.44955078 -231.51220703 196.19628906 C-225.05978993 224.34891009 -210.76740304 249.11801702 -191 270 C-189.78763672 271.30904297 -189.78763672 271.30904297 -188.55078125 272.64453125 C-164.02138681 298.27389854 -130.70562104 312.86773133 -96 318 C-95.13503906 318.13277344 -94.27007812 318.26554687 -93.37890625 318.40234375 C-54.84800855 323.2771367 -12.89550872 311.63664041 17.875 288 C23.47318275 283.58163469 28.82063197 278.90054397 34 274 C34.82113281 273.23171875 35.64226562 272.4634375 36.48828125 271.671875 C63.49320948 245.63290843 81.40331938 206.49932972 82.203125 168.88671875 C82.76681578 122.10652283 68.83348844 81.87409043 36.14697266 47.74658203 C23.9385211 35.3140681 10.428925 25.99632224 -5 18 C-5.60779297 17.68047363 -6.21558594 17.36094727 -6.84179688 17.03173828 C-22.20978083 9.05156638 -38.93666858 4.59238822 -56 2 C-56.82757813 1.86851563 -57.65515625 1.73703125 -58.5078125 1.6015625 C-97.75574707 -3.45827575 -141.05671341 8.42739006 -172 33 Z M64 265 C62.8682696 266.37357964 61.77144355 267.77590477 60.6875 269.1875 C51.21903222 281.11574766 40.74550271 292.50299819 28 301 C29.3584202 304.04332765 30.88463024 306.12309151 33.2578125 308.453125 C33.88300781 309.071875 34.50820313 309.690625 35.15234375 310.328125 C35.80332031 310.96234375 36.45429688 311.5965625 37.125 312.25 C37.78371094 312.8996875 38.44242187 313.549375 39.12109375 314.21875 C40.74296643 315.81711727 42.3693281 317.41061897 44 319 C47.09179136 317.6238464 49.19638753 316.04841555 51.57519531 313.65185547 C52.25559875 312.97130096 52.9360022 312.29074646 53.63702393 311.58956909 C54.36008728 310.85618317 55.08315063 310.12279724 55.828125 309.3671875 C56.57713074 308.61535187 57.32613647 307.86351624 58.09783936 307.08889771 C60.4866302 304.68892099 62.86836897 302.28207991 65.25 299.875 C66.86933169 298.24563648 68.48911802 296.61672466 70.109375 294.98828125 C74.07820505 290.99741194 78.04126899 287.00088585 82 283 C81.06275268 281.89672892 80.12407426 280.79467351 79.18481445 279.69311523 C78.66224564 279.07927475 78.13967682 278.46543427 77.60127258 277.83299255 C75.23990599 275.12991287 72.73495848 272.58899174 70.1875 270.0625 C69.69830078 269.56943359 69.20910156 269.07636719 68.70507812 268.56835938 C66.6990402 266.09095022 66.6990402 266.09095022 64 265 Z M92.51304626 296.36669922 C91.87573074 297.00623535 91.23841522 297.64577148 90.58178711 298.3046875 C89.86111557 299.02543457 89.14044403 299.74618164 88.39793396 300.48876953 C87.61563919 301.27622559 86.83334442 302.06368164 86.02734375 302.875 C85.22970108 303.67405762 84.43205841 304.47311523 83.61024475 305.29638672 C81.0503193 307.8619326 78.49388307 310.43092482 75.9375 313 C74.20791014 314.73460222 72.47809544 316.46898028 70.74804688 318.203125 C66.49608057 322.46614741 62.24697781 326.73200817 58 331 C59.35219171 334.01234159 60.86245945 336.11623138 63.18582153 338.45324707 C63.84172775 339.11768326 64.49763397 339.78211945 65.17341614 340.46669006 C65.89236557 341.18473312 66.611315 341.90277618 67.35205078 342.64257812 C68.11002457 343.40726913 68.86799835 344.17196014 69.64894104 344.95982361 C72.15908348 347.48898024 74.67672048 350.0105093 77.1953125 352.53125 C78.9446376 354.28700155 80.69381153 356.04290373 82.44284058 357.7989502 C86.11294741 361.48103903 89.78717276 365.15896234 93.46386719 368.83447266 C98.16877228 373.53804609 102.85863251 378.25631671 107.54561043 382.97776031 C111.15564506 386.61006515 114.77476701 390.23320993 118.39648056 393.85386658 C120.12919558 395.58893813 121.85867666 397.32724561 123.58481216 399.06886292 C126.00431191 401.50801955 128.43623239 403.93410401 130.87158203 406.35742188 C131.57838608 407.07546494 132.28519012 407.793508 133.01341248 408.53330994 C139.23675012 414.67905322 145.50897853 418.54694654 154.421875 419.09375 C162.53642103 418.7986756 169.16781702 415.54867409 175 410 C180.69218317 402.80987389 181.768057 395.94786405 181 387 C178.70802566 373.3727178 161.26252095 361.11625378 151.96875 351.8359375 C150.32476452 350.19127748 148.68092743 348.54646912 147.03723145 346.90151978 C143.61303026 343.47585239 140.18704681 340.05198038 136.75976562 336.62939453 C132.35671693 332.23208324 127.95822758 327.83024283 123.56102753 323.42708397 C120.17780495 320.04026114 116.79222086 316.65580709 113.40589905 313.27208328 C111.78156542 311.64841832 110.15797866 310.02400584 108.53514099 308.39884567 C106.28038674 306.14156937 104.02248273 303.88749326 101.76367188 301.63427734 C101.0894519 300.95803314 100.41523193 300.28178894 99.72058105 299.58505249 C96.46252832 295.22881604 96.46252832 295.22881604 92.51304626 296.36669922 Z " fill="#2B8AFF" transform="translate(283,46)"/>
<path d="M0 0 C0.69706055 0.16628906 1.39412109 0.33257812 2.11230469 0.50390625 C30.14922865 7.44564808 56.75472478 23.41061164 75 46 C76.04800781 47.29164062 76.04800781 47.29164062 77.1171875 48.609375 C100.43058478 78.45697705 110.30668545 115.52166289 106.05493164 153.02172852 C101.52423945 187.55861084 83.36596101 221.2139051 56 243 C25.06267058 266.3976359 -11.40097454 276.92664931 -50.171875 272.50390625 C-77.52742085 268.6210327 -102.22280365 257.1291223 -123 239 C-123.72703125 238.39414062 -124.4540625 237.78828125 -125.203125 237.1640625 C-129.96596896 233.14654909 -134.10459751 228.86152414 -138 224 C-138.40089844 223.50032715 -138.80179688 223.0006543 -139.21484375 222.48583984 C-158.11143211 198.63380342 -168.72829877 170.44134825 -170 140 C-170.04125 139.13632813 -170.0825 138.27265625 -170.125 137.3828125 C-171.04068292 99.72535262 -155.65050797 64.53216803 -130.26953125 37.23046875 C-126.11179547 33.14429469 -121.6212675 29.54490534 -117 26 C-116.14792969 25.33226563 -115.29585937 24.66453125 -114.41796875 23.9765625 C-82.30385276 -0.38587032 -39.29203192 -9.47335179 0 0 Z M-64 18 C-64.6717627 18.17660156 -65.34352539 18.35320312 -66.03564453 18.53515625 C-95.88113298 26.66047199 -121.72666591 48.44333675 -137 75 C-146.50659513 92.02388263 -152.03238672 110.4965448 -153 130 C-153.04125 130.75925781 -153.0825 131.51851563 -153.125 132.30078125 C-154.01226806 165.29606235 -140.39720937 195.53463585 -118.36328125 219.53125 C-96.51532177 242.35424238 -66.49422563 255.56411316 -34.90917969 256.40429688 C-22.51663798 256.53201631 -10.96183312 255.2132298 1 252 C1.6717627 251.82339844 2.34352539 251.64679688 3.03564453 251.46484375 C32.88113298 243.33952801 58.72666591 221.55666325 74 195 C90.17904593 166.02746302 94.16585244 133.42194499 85.375 101.5 C82.64177079 92.06639122 78.89043116 83.50223864 74 75 C73.4225 73.99582031 72.845 72.99164063 72.25 71.95703125 C54.49756767 42.82167356 26.74220022 24.0686704 -6.03515625 15.96875 C-25.12363703 11.72298797 -45.22666421 12.95704033 -64 18 Z " fill="#2097FF" transform="translate(238,71)"/>
</svg>
