<?xml version="1.0" encoding="UTF-8"?>
<!DOCTYPE svg PUBLIC "-//W3C//DTD SVG 1.1//EN" "http://www.w3.org/Graphics/SVG/1.1/DTD/svg11.dtd">
<svg xmlns="http://www.w3.org/2000/svg" version="1.1" width="200px" height="200px" style="shape-rendering:geometricPrecision; text-rendering:geometricPrecision; image-rendering:optimizeQuality; fill-rule:evenodd; clip-rule:evenodd" xmlns:xlink="http://www.w3.org/1999/xlink">
<g><path style="opacity:1" fill="#fefefe" d="M -0.5,-0.5 C 66.1667,-0.5 132.833,-0.5 199.5,-0.5C 199.5,66.1667 199.5,132.833 199.5,199.5C 132.833,199.5 66.1667,199.5 -0.5,199.5C -0.5,132.833 -0.5,66.1667 -0.5,-0.5 Z"/></g>
<g><path style="opacity:1" fill="#353535" d="M 119.5,57.5 C 119.134,58.6946 118.301,59.3613 117,59.5C 114.442,57.8534 113.608,58.1867 114.5,60.5C 111.854,59.5134 109.188,58.5134 106.5,57.5C 106.167,58.1667 105.833,58.8333 105.5,59.5C 104.15,58.0499 102.484,57.3832 100.5,57.5C 100.167,57.5 99.8333,57.5 99.5,57.5C 95.0687,56.8482 90.7353,57.5149 86.5,59.5C 84.8333,58.8333 83.1667,58.1667 81.5,57.5C 94.1615,56.2176 106.828,56.2176 119.5,57.5 Z"/></g>
<g><path style="opacity:1" fill="#c1c1c1" d="M 72.5,59.5 C 72.8417,58.6618 73.5084,58.3284 74.5,58.5C 75.2625,59.2679 76.2625,59.7679 77.5,60C 75.4049,60.5556 75.2382,61.0556 77,61.5C 79.4369,60.3458 81.9369,59.8458 84.5,60C 82.6763,60.66 81.343,61.8267 80.5,63.5C 73.8696,63.3743 67.2029,63.541 60.5,64C 65.2517,62.611 69.2517,61.111 72.5,59.5 Z"/></g>
<g><path style="opacity:1" fill="#656565" d="M 81.5,57.5 C 83.1667,58.1667 84.8333,58.8333 86.5,59.5C 84.8525,61.3264 82.8525,62.6597 80.5,63.5C 81.343,61.8267 82.6763,60.66 84.5,60C 81.9369,59.8458 79.4369,60.3458 77,61.5C 75.2382,61.0556 75.4049,60.5556 77.5,60C 76.2625,59.7679 75.2625,59.2679 74.5,58.5C 76.8056,58.0074 79.139,57.6741 81.5,57.5 Z"/></g>
<g><path style="opacity:1" fill="#e4e4e4" d="M 99.5,57.5 C 99.5,59.8333 99.5,62.1667 99.5,64.5C 96.4816,64.6646 93.4816,64.498 90.5,64C 92.9495,59.7413 92.6162,59.5747 89.5,63.5C 86.3553,64.8032 83.3553,64.8032 80.5,63.5C 82.8525,62.6597 84.8525,61.3264 86.5,59.5C 90.7353,57.5149 95.0687,56.8482 99.5,57.5 Z"/></g>
<g><path style="opacity:1" fill="#5f5f5f" d="M 99.5,57.5 C 99.8333,57.5 100.167,57.5 100.5,57.5C 100.5,59.8333 100.5,62.1667 100.5,64.5C 103.518,64.6646 106.518,64.498 109.5,64C 107.05,59.7413 107.384,59.5747 110.5,63.5C 113.106,64.6517 115.773,64.8184 118.5,64C 117.269,62.5952 115.936,61.4286 114.5,60.5C 113.608,58.1867 114.442,57.8534 117,59.5C 118.301,59.3613 119.134,58.6946 119.5,57.5C 128.836,59.2227 137.836,62.0561 146.5,66C 147.696,66.6543 147.696,67.1543 146.5,67.5C 145.583,66.8728 144.583,66.5394 143.5,66.5C 142.036,65.8401 140.369,65.5068 138.5,65.5C 136.36,65.5561 134.694,66.2227 133.5,67.5C 129.888,65.0423 126.388,65.0423 123,67.5C 119.545,66.2086 116.045,66.2086 112.5,67.5C 113.659,70.4814 114.659,73.4814 115.5,76.5C 114.833,76.5 114.167,76.5 113.5,76.5C 113.312,72.9359 112.312,69.6026 110.5,66.5C 107.232,65.513 103.898,65.1796 100.5,65.5C 100.5,69.1667 100.5,72.8333 100.5,76.5C 100.167,76.5 99.8333,76.5 99.5,76.5C 99.5,73.1667 99.5,69.8333 99.5,66.5C 95.1726,66.0157 91.1726,66.6823 87.5,68.5C 87.5,67.8333 87.5,67.1667 87.5,66.5C 82.6737,64.5049 78.5071,65.5049 75,69.5C 74.3828,68.5509 74.5494,67.7175 75.5,67C 72.8333,66.3333 70.1667,66.3333 67.5,67C 64.6693,69.0007 62.0026,71.1673 59.5,73.5C 60.5434,70.9438 62.2101,68.7772 64.5,67C 60.8333,66.6667 57.1667,66.3333 53.5,66C 59.4756,62.7305 65.8089,60.5638 72.5,59.5C 69.2517,61.111 65.2517,62.611 60.5,64C 67.2029,63.541 73.8696,63.3743 80.5,63.5C 83.3553,64.8032 86.3553,64.8032 89.5,63.5C 92.6162,59.5747 92.9495,59.7413 90.5,64C 93.4816,64.498 96.4816,64.6646 99.5,64.5C 99.5,62.1667 99.5,59.8333 99.5,57.5 Z"/></g>
<g><path style="opacity:1" fill="#c9c9c9" d="M 121.5,60.5 C 121.735,59.9033 122.235,59.5699 123,59.5C 128.28,60.5931 133.446,62.0931 138.5,64C 132.425,63.9249 126.425,63.9249 120.5,64C 116.326,60.7112 116.826,59.8779 122,61.5C 123.834,60.9644 123.667,60.6311 121.5,60.5 Z"/></g>
<g><path style="opacity:1" fill="#d6d6d6" d="M 100.5,57.5 C 102.484,57.3832 104.15,58.0499 105.5,59.5C 105.833,58.8333 106.167,58.1667 106.5,57.5C 109.188,58.5134 111.854,59.5134 114.5,60.5C 115.936,61.4286 117.269,62.5952 118.5,64C 115.773,64.8184 113.106,64.6517 110.5,63.5C 107.384,59.5747 107.05,59.7413 109.5,64C 106.518,64.498 103.518,64.6646 100.5,64.5C 100.5,62.1667 100.5,59.8333 100.5,57.5 Z"/></g>
<g><path style="opacity:1" fill="#c2c2c2" d="M 87.5,66.5 C 84.081,68.4558 80.7477,70.6225 77.5,73C 76.695,74.1127 76.0283,75.2794 75.5,76.5C 73.549,76.7733 72.049,76.1066 71,74.5C 69.1303,75.7435 66.9637,76.4101 64.5,76.5C 62.5,76.3333 60.5,76.1667 58.5,76C 59.2524,75.3292 59.5858,74.4959 59.5,73.5C 62.0026,71.1673 64.6693,69.0007 67.5,67C 70.1667,66.3333 72.8333,66.3333 75.5,67C 74.5494,67.7175 74.3828,68.5509 75,69.5C 78.5071,65.5049 82.6737,64.5049 87.5,66.5 Z"/></g>
<g><path style="opacity:1" fill="#f1f1f1" d="M 99.5,76.5 C 94.8215,76.6658 90.1548,76.4992 85.5,76C 86.5541,73.6178 87.2208,71.1178 87.5,68.5C 91.1726,66.6823 95.1726,66.0157 99.5,66.5C 99.5,69.8333 99.5,73.1667 99.5,76.5 Z"/></g>
<g><path style="opacity:1" fill="#cfcfcf" d="M 113.5,76.5 C 109.167,76.5 104.833,76.5 100.5,76.5C 100.5,72.8333 100.5,69.1667 100.5,65.5C 103.898,65.1796 107.232,65.513 110.5,66.5C 112.312,69.6026 113.312,72.9359 113.5,76.5 Z"/></g>
<g><path style="opacity:1" fill="#5b5b5b" d="M 152.5,70.5 C 151.244,70.5386 150.244,70.0386 149.5,69C 150.998,68.4153 151.998,68.9153 152.5,70.5 Z"/></g>
<g><path style="opacity:1" fill="#656565" d="M 45.5,71.5 C 46.8043,69.018 48.8043,67.8513 51.5,68C 49.6089,69.4424 47.6089,70.6091 45.5,71.5 Z"/></g>
<g><path style="opacity:1" fill="#f4f4f4" d="M 87.5,66.5 C 87.5,67.1667 87.5,67.8333 87.5,68.5C 86.0578,70.5396 85.0578,72.873 84.5,75.5C 81.5719,76.4841 78.5719,76.8174 75.5,76.5C 76.0283,75.2794 76.695,74.1127 77.5,73C 80.7477,70.6225 84.081,68.4558 87.5,66.5 Z"/></g>
<g><path style="opacity:1" fill="#c3c3c3" d="M 133.5,67.5 C 135.5,70.1667 137.833,72.5 140.5,74.5C 139.129,75.7868 137.295,76.4535 135,76.5C 128.645,76.1443 122.145,76.1443 115.5,76.5C 114.659,73.4814 113.659,70.4814 112.5,67.5C 116.045,66.2086 119.545,66.2086 123,67.5C 126.388,65.0423 129.888,65.0423 133.5,67.5 Z"/></g>
<g><path style="opacity:1" fill="#646464" d="M 152.5,70.5 C 154.404,70.7376 155.738,71.7376 156.5,73.5C 155.833,73.5 155.167,73.5 154.5,73.5C 153.833,72.5 153.167,71.5 152.5,70.5 Z"/></g>
<g><path style="opacity:1" fill="#555555" d="M 133.5,67.5 C 136.833,68.8333 139.167,71.1667 140.5,74.5C 137.833,72.5 135.5,70.1667 133.5,67.5 Z"/></g>
<g><path style="opacity:1" fill="#dbdbdb" d="M 143.5,66.5 C 135.969,66.1851 135.802,67.5184 143,70.5C 144.009,72.0249 144.509,73.6916 144.5,75.5C 147.518,75.6646 150.518,75.498 153.5,75C 154.056,74.6174 154.389,74.1174 154.5,73.5C 155.167,73.5 155.833,73.5 156.5,73.5C 157.833,73.5 158.5,74.1667 158.5,75.5C 153.35,76.6507 148.016,76.8174 142.5,76C 141.956,75.2828 141.289,74.7828 140.5,74.5C 139.167,71.1667 136.833,68.8333 133.5,67.5C 134.694,66.2227 136.36,65.5561 138.5,65.5C 140.369,65.5068 142.036,65.8401 143.5,66.5 Z"/></g>
<g><path style="opacity:1" fill="#3d3d3d" d="M 87.5,68.5 C 87.2208,71.1178 86.5541,73.6178 85.5,76C 90.1548,76.4992 94.8215,76.6658 99.5,76.5C 99.8333,76.5 100.167,76.5 100.5,76.5C 104.833,76.5 109.167,76.5 113.5,76.5C 114.167,76.5 114.833,76.5 115.5,76.5C 122.145,76.1443 128.645,76.1443 135,76.5C 137.295,76.4535 139.129,75.7868 140.5,74.5C 141.289,74.7828 141.956,75.2828 142.5,76C 148.016,76.8174 153.35,76.6507 158.5,75.5C 160.757,76.5618 161.923,78.2285 162,80.5C 161.167,79.6667 160.333,78.8333 159.5,78C 156.833,77.8333 154.167,77.6667 151.5,77.5C 148.41,77.5217 145.743,78.1883 143.5,79.5C 139.442,77.3342 135.108,77.0009 130.5,78.5C 131.52,80.4325 131.687,82.4325 131,84.5C 130.023,82.26 129.523,79.9267 129.5,77.5C 124.833,77.5 120.167,77.5 115.5,77.5C 116.497,80.3283 116.497,82.995 115.5,85.5C 114.908,82.8728 114.575,80.2062 114.5,77.5C 109.833,77.5 105.167,77.5 100.5,77.5C 100.167,82.8333 99.8333,82.8333 99.5,77.5C 98.1667,77.5 96.8333,77.5 95.5,77.5C 92.1667,77.5 88.8333,77.5 85.5,77.5C 85.067,80.1656 84.567,82.8323 84,85.5C 83.231,82.9009 83.3977,80.4009 84.5,78C 79.798,77.1717 75.1313,77.3384 70.5,78.5C 69.8195,80.8889 68.9862,83.2222 68,85.5C 67.776,82.8895 68.276,80.3895 69.5,78C 59.5,77.3333 49.5,77.3333 39.5,78C 38.9558,78.7172 38.2891,79.2172 37.5,79.5C 39.1667,75.8333 41.8333,73.1667 45.5,71.5C 44.3747,73.1288 43.0414,74.6288 41.5,76C 46.5,76.6667 51.5,76.6667 56.5,76C 57.3734,74.955 58.3734,74.1217 59.5,73.5C 59.5858,74.4959 59.2524,75.3292 58.5,76C 60.5,76.1667 62.5,76.3333 64.5,76.5C 66.9637,76.4101 69.1303,75.7435 71,74.5C 72.049,76.1066 73.549,76.7733 75.5,76.5C 78.5719,76.8174 81.5719,76.4841 84.5,75.5C 85.0578,72.873 86.0578,70.5396 87.5,68.5 Z"/></g>
<g><path style="opacity:1" fill="#cfcfcf" d="M 95.5,77.5 C 96.8333,77.5 98.1667,77.5 99.5,77.5C 99.8333,82.8333 100.167,82.8333 100.5,77.5C 105.167,77.5 109.833,77.5 114.5,77.5C 114.575,80.2062 114.908,82.8728 115.5,85.5C 114.222,85.7822 113.222,86.4489 112.5,87.5C 111.167,86.1667 109.833,86.1667 108.5,87.5C 108.083,90.1589 107.083,92.4922 105.5,94.5C 107.969,83.9599 104.302,80.6266 94.5,84.5C 93.9622,82.2362 94.2956,79.9028 95.5,77.5 Z"/></g>
<g><path style="opacity:1" fill="#737373" d="M 37.5,79.5 C 37.1231,81.258 36.4565,82.9246 35.5,84.5C 36.8498,85.9501 38.5165,86.6168 40.5,86.5C 40.762,87.9778 40.4287,89.3112 39.5,90.5C 38.6143,89.675 38.281,88.675 38.5,87.5C 36.8333,87.5 35.1667,87.5 33.5,87.5C 33.9483,84.3181 35.2816,81.6514 37.5,79.5 Z"/></g>
<g><path style="opacity:1" fill="#0e0e0e" d="M 28.5,82.5 C 29.6129,83.9464 29.7796,85.6131 29,87.5C 28.5348,86.0692 27.7014,84.9025 26.5,84C 27.4158,83.7216 28.0825,83.2216 28.5,82.5 Z"/></g>
<g><path style="opacity:1" fill="#1d1d1d" d="M 105.5,94.5 C 101.786,98.4809 97.9525,98.4809 94,94.5C 91.8772,91.015 92.0439,87.6817 94.5,84.5C 104.302,80.6266 107.969,83.9599 105.5,94.5 Z"/></g>
<g><path style="opacity:1" fill="#f0f0f0" d="M 97.5,83.5 C 100.547,82.8554 102.713,83.8554 104,86.5C 104.893,89.9162 104.393,93.0828 102.5,96C 99.4718,97.1397 97.3051,96.3064 96,93.5C 95.037,89.8513 95.537,86.518 97.5,83.5 Z"/></g>
<g><path style="opacity:1" fill="#eaeaea" d="M 143.5,79.5 C 144.725,80.937 145.725,82.6036 146.5,84.5C 147.949,85.1719 149.282,85.8386 150.5,86.5C 147.347,86.1569 145.013,86.4902 143.5,87.5C 143.001,92.7409 143.001,97.4076 143.5,101.5C 139.473,103.358 135.14,104.025 130.5,103.5C 130.665,101.173 131.331,99.0065 132.5,97C 131.944,96.6174 131.611,96.1174 131.5,95.5C 131.232,93.901 131.566,92.5676 132.5,91.5C 133.046,93.3032 133.88,94.9698 135,96.5C 135.5,95.5 136,94.5 136.5,93.5C 136.154,92.3044 135.654,92.3044 135,93.5C 134.358,91.2381 133.525,89.0715 132.5,87C 129.833,86.3333 127.167,86.3333 124.5,87C 125.056,87.3826 125.389,87.8826 125.5,88.5C 124.778,89.5511 123.778,90.2178 122.5,90.5C 121.766,89.2921 121.433,87.9587 121.5,86.5C 120.127,86.3433 118.793,86.51 117.5,87C 119.442,88.3819 120.775,90.2152 121.5,92.5C 121.714,94.1439 121.38,95.6439 120.5,97C 124.471,98.377 125.804,97.377 124.5,94C 124.758,91.9907 125.425,90.1573 126.5,88.5C 127.209,87.596 128.209,87.2627 129.5,87.5C 129.5,90.1667 129.5,92.8333 129.5,95.5C 128.232,96.787 128.565,97.787 130.5,98.5C 129.926,100.059 129.26,101.559 128.5,103C 124.179,103.499 119.846,103.666 115.5,103.5C 116.345,100.174 116.845,96.8403 117,93.5C 115.814,95.6766 113.981,96.6766 111.5,96.5C 111.19,93.2869 111.523,90.2869 112.5,87.5C 113.222,86.4489 114.222,85.7822 115.5,85.5C 116.497,82.995 116.497,80.3283 115.5,77.5C 120.167,77.5 124.833,77.5 129.5,77.5C 129.523,79.9267 130.023,82.26 131,84.5C 131.687,82.4325 131.52,80.4325 130.5,78.5C 135.108,77.0009 139.442,77.3342 143.5,79.5 Z"/></g>
<g><path style="opacity:1" fill="#343434" d="M 137.5,86.5 C 138.873,86.3433 140.207,86.51 141.5,87C 140.167,90.3333 140.167,93.6667 141.5,97C 139.833,97.6667 138.167,97.6667 136.5,97C 138.457,94.8788 138.957,92.3788 138,89.5C 137.444,91.5951 136.944,91.7618 136.5,90C 136.989,88.8615 137.322,87.6948 137.5,86.5 Z"/></g>
<g><path style="opacity:1" fill="#161616" d="M 156.5,87.5 C 155.833,90.5 155.167,93.5 154.5,96.5C 155.011,92.9703 154.344,89.8037 152.5,87C 154.743,86.2034 156.077,86.3701 156.5,87.5 Z"/></g>
<g><path style="opacity:1" fill="#242424" d="M 176.5,96.5 C 177.555,93.9272 177.722,91.2605 177,88.5C 175.644,87.6198 174.144,87.2865 172.5,87.5C 172.5,90.5 172.5,93.5 172.5,96.5C 171.833,93.5 171.167,90.5 170.5,87.5C 170.537,86.6982 171.537,86.3649 173.5,86.5C 178.999,86.5129 180.832,89.1795 179,94.5C 178.583,95.756 177.75,96.4226 176.5,96.5 Z"/></g>
<g><path style="opacity:1" fill="#f3f3f3" d="M 176.5,96.5 C 175.167,96.5 173.833,96.5 172.5,96.5C 172.5,93.5 172.5,90.5 172.5,87.5C 174.144,87.2865 175.644,87.6198 177,88.5C 177.722,91.2605 177.555,93.9272 176.5,96.5 Z"/></g>
<g><path style="opacity:1" fill="#161616" d="M 33.5,87.5 C 32.2857,90.204 32.2857,92.8707 33.5,95.5C 33.5,95.8333 33.5,96.1667 33.5,96.5C 32.0937,96.0269 31.427,95.0269 31.5,93.5C 31.5,92.1667 31.5,90.8333 31.5,89.5C 31.8333,88.5 32.5,87.8333 33.5,87.5 Z"/></g>
<g><path style="opacity:1" fill="#202020" d="M 122.5,90.5 C 123.511,92.4024 123.678,94.4024 123,96.5C 122.79,94.9419 122.29,93.6085 121.5,92.5C 120.775,90.2152 119.442,88.3819 117.5,87C 118.793,86.51 120.127,86.3433 121.5,86.5C 121.433,87.9587 121.766,89.2921 122.5,90.5 Z"/></g>
<g><path style="opacity:1" fill="#282828" d="M 132.5,91.5 C 131.974,89.7697 130.974,88.4363 129.5,87.5C 128.209,87.2627 127.209,87.596 126.5,88.5C 126.167,88.5 125.833,88.5 125.5,88.5C 125.389,87.8826 125.056,87.3826 124.5,87C 127.167,86.3333 129.833,86.3333 132.5,87C 133.525,89.0715 134.358,91.2381 135,93.5C 135.654,92.3044 136.154,92.3044 136.5,93.5C 136,94.5 135.5,95.5 135,96.5C 133.88,94.9698 133.046,93.3032 132.5,91.5 Z"/></g>
<g><path style="opacity:1" fill="#232323" d="M 150.5,86.5 C 152.594,90.7993 151.26,92.7993 146.5,92.5C 145.71,93.6085 145.21,94.9419 145,96.5C 144.819,93.3054 144.319,90.3054 143.5,87.5C 145.013,86.4902 147.347,86.1569 150.5,86.5 Z"/></g>
<g><path style="opacity:1" fill="#e4e4e4" d="M 145.5,87.5 C 146.833,87.5 148.167,87.5 149.5,87.5C 149.5,88.8333 149.5,90.1667 149.5,91.5C 148.167,91.5 146.833,91.5 145.5,91.5C 145.5,90.1667 145.5,88.8333 145.5,87.5 Z"/></g>
<g><path style="opacity:1" fill="#9c9c9c" d="M 129.5,87.5 C 130.974,88.4363 131.974,89.7697 132.5,91.5C 131.566,92.5676 131.232,93.901 131.5,95.5C 130.833,95.5 130.167,95.5 129.5,95.5C 129.5,92.8333 129.5,90.1667 129.5,87.5 Z"/></g>
<g><path style="opacity:1" fill="#171717" d="M 22.5,96.5 C 21.5041,96.4142 20.6708,96.7476 20,97.5C 19.3333,95.5 19.3333,93.5 20,91.5C 20.3661,93.4517 21.1995,95.1184 22.5,96.5 Z"/></g>
<g><path style="opacity:1" fill="#2c2c2c" d="M 31.5,89.5 C 31.5,90.8333 31.5,92.1667 31.5,93.5C 29.3973,97.3452 26.3973,98.3452 22.5,96.5C 24.1992,96.6602 25.8659,96.4935 27.5,96C 28.8333,94.6667 28.8333,93.3333 27.5,92C 24.6922,91.402 22.1922,90.2353 20,88.5C 19.2263,86.597 19.5596,84.9304 21,83.5C 21.2734,85.1012 21.7734,86.6012 22.5,88C 25.2342,88.2104 27.7342,89.0437 30,90.5C 30.3826,89.944 30.8826,89.6107 31.5,89.5 Z"/></g>
<g><path style="opacity:1" fill="#636363" d="M 36.5,99.5 C 35.5,98.5 34.5,97.5 33.5,96.5C 33.5,96.1667 33.5,95.8333 33.5,95.5C 36.212,96.9874 38.3787,96.3207 40,93.5C 40.6667,94.1667 40.6667,94.8333 40,95.5C 38.3732,96.5323 37.2066,97.8656 36.5,99.5 Z"/></g>
<g><path style="opacity:1" fill="#f2f2f2" d="M 95.5,77.5 C 94.2956,79.9028 93.9622,82.2362 94.5,84.5C 92.0439,87.6817 91.8772,91.015 94,94.5C 97.9525,98.4809 101.786,98.4809 105.5,94.5C 107.083,92.4922 108.083,90.1589 108.5,87.5C 109.818,90.5645 109.818,93.7312 108.5,97C 110.473,97.4955 112.473,97.6621 114.5,97.5C 114.5,99.5 114.5,101.5 114.5,103.5C 109.833,103.5 105.167,103.5 100.5,103.5C 100.167,96.8333 99.8333,96.8333 99.5,103.5C 92.0238,103.099 84.6904,103.099 77.5,103.5C 74.7125,103.426 72.2125,102.76 70,101.5C 68.1303,102.743 65.9637,103.41 63.5,103.5C 58.9456,104.578 56.1122,102.912 55,98.5C 54.4054,99.8989 54.5721,101.232 55.5,102.5C 50.2079,103.495 44.8746,103.828 39.5,103.5C 39.5323,101.381 38.5323,100.048 36.5,99.5C 37.2066,97.8656 38.3732,96.5323 40,95.5C 40.6667,94.8333 40.6667,94.1667 40,93.5C 38.3787,96.3207 36.212,96.9874 33.5,95.5C 32.2857,92.8707 32.2857,90.204 33.5,87.5C 35.1667,87.5 36.8333,87.5 38.5,87.5C 38.281,88.675 38.6143,89.675 39.5,90.5C 40.4287,89.3112 40.762,87.9778 40.5,86.5C 38.5165,86.6168 36.8498,85.9501 35.5,84.5C 36.4565,82.9246 37.1231,81.258 37.5,79.5C 38.2891,79.2172 38.9558,78.7172 39.5,78C 49.5,77.3333 59.5,77.3333 69.5,78C 68.276,80.3895 67.776,82.8895 68,85.5C 68.9862,83.2222 69.8195,80.8889 70.5,78.5C 75.1313,77.3384 79.798,77.1717 84.5,78C 83.3977,80.4009 83.231,82.9009 84,85.5C 84.567,82.8323 85.067,80.1656 85.5,77.5C 88.8333,77.5 92.1667,77.5 95.5,77.5 Z"/></g>
<g><path style="opacity:1" fill="#9a9a9a" d="M 51.5,87.5 C 51.1192,89.9418 51.7859,90.6085 53.5,89.5C 54.8333,90.8333 54.8333,92.1667 53.5,93.5C 52.914,93.2907 52.414,92.9574 52,92.5C 51.51,93.7932 51.3433,95.1266 51.5,96.5C 51.1667,96.5 50.8333,96.5 50.5,96.5C 50.19,93.2869 50.5233,90.2869 51.5,87.5 Z"/></g>
<g><path style="opacity:1" fill="#1e1e1e" d="M 86.5,89.5 C 87.5983,90.6009 87.765,91.9343 87,93.5C 85.4894,92.436 85.3228,91.1026 86.5,89.5 Z"/></g>
<g><path style="opacity:1" fill="#2a2a2a" d="M 74.5,85.5 C 76.1172,86.038 77.7839,86.3713 79.5,86.5C 79.7895,90.554 79.1229,91.054 77.5,88C 75.8876,87.2797 74.3876,87.4464 73,88.5C 72.5783,91.2356 72.5783,93.9023 73,96.5C 69.5399,92.2993 70.0399,88.6326 74.5,85.5 Z"/></g>
<g><path style="opacity:1" fill="#858585" d="M 66.5,96.5 C 67.0967,96.2648 67.4301,95.7648 67.5,95C 66.9444,93.9889 66.2778,93.1556 65.5,92.5C 66.807,90.7768 66.807,88.9435 65.5,87C 66.8333,86.3333 68.1667,86.3333 69.5,87C 68.8666,90.459 68.2,93.959 67.5,97.5C 66.8933,97.3764 66.56,97.0431 66.5,96.5 Z"/></g>
<g><path style="opacity:1" fill="#2f2f2f" d="M 65.5,92.5 C 66.2778,93.1556 66.9444,93.9889 67.5,95C 67.4301,95.7648 67.0967,96.2648 66.5,96.5C 64.6753,94.1969 62.8419,91.8636 61,89.5C 60.0561,92.3471 60.5561,94.8471 62.5,97C 61.1667,97.6667 59.8333,97.6667 58.5,97C 59.8333,93.6667 59.8333,90.3333 58.5,87C 59.5,86.3333 60.5,86.3333 61.5,87C 62.965,88.7742 64.2983,90.6075 65.5,92.5 Z"/></g>
<g><path style="opacity:1" fill="#212121" d="M 41.5,87.5 C 42.9464,86.3871 44.6131,86.2204 46.5,87C 45.2958,88.3528 44.6292,90.0194 44.5,92C 44.6292,93.9806 45.2958,95.6472 46.5,97C 44.8333,97.6667 43.1667,97.6667 41.5,97C 42.7042,95.6472 43.3708,93.9806 43.5,92C 43.4313,90.0145 42.7647,88.5145 41.5,87.5 Z"/></g>
<g><path style="opacity:1" fill="#161616" d="M 51.5,87.5 C 50.5233,90.2869 50.19,93.2869 50.5,96.5C 49.8333,93.5 49.1667,90.5 48.5,87.5C 50.3609,86.493 53.0275,86.1596 56.5,86.5C 56.6495,87.552 56.4828,88.552 56,89.5C 54.951,87.8934 53.451,87.2267 51.5,87.5 Z"/></g>
<g><path style="opacity:1" fill="#5c5c5c" d="M 48.5,87.5 C 49.1667,90.5 49.8333,93.5 50.5,96.5C 50.8333,96.5 51.1667,96.5 51.5,96.5C 53.3904,96.7035 54.8904,96.0368 56,94.5C 56.4828,95.448 56.6495,96.448 56.5,97.5C 53.4816,97.6646 50.4816,97.498 47.5,97C 48.4505,93.9433 48.7839,90.7766 48.5,87.5 Z"/></g>
<g><path style="opacity:1" fill="#3b3b3b" d="M 81.5,87.5 C 84.2869,86.5233 87.2869,86.19 90.5,86.5C 90.7895,90.554 90.1229,91.054 88.5,88C 87.2068,87.51 85.8734,87.3433 84.5,87.5C 84.5,90.5 84.5,93.5 84.5,96.5C 87.2385,97.0352 89.0718,96.0352 90,93.5C 90.49,94.7932 90.6567,96.1266 90.5,97.5C 88.5,97.5 86.5,97.5 84.5,97.5C 84.6495,98.552 84.4828,99.552 84,100.5C 83.6824,98.9391 82.8491,97.7724 81.5,97C 82.8184,93.7312 82.8184,90.5645 81.5,87.5 Z"/></g>
<g><path style="opacity:1" fill="#777777" d="M 125.5,88.5 C 125.833,88.5 126.167,88.5 126.5,88.5C 125.425,90.1573 124.758,91.9907 124.5,94C 125.804,97.377 124.471,98.377 120.5,97C 121.38,95.6439 121.714,94.1439 121.5,92.5C 122.29,93.6085 122.79,94.9419 123,96.5C 123.678,94.4024 123.511,92.4024 122.5,90.5C 123.778,90.2178 124.778,89.5511 125.5,88.5 Z"/></g>
<g><path style="opacity:1" fill="#777777" d="M 143.5,87.5 C 144.319,90.3054 144.819,93.3054 145,96.5C 145.21,94.9419 145.71,93.6085 146.5,92.5C 146.286,94.1439 146.62,95.6439 147.5,97C 145.807,98.2499 144.473,99.7499 143.5,101.5C 143.001,97.4076 143.001,92.7409 143.5,87.5 Z"/></g>
<g><path style="opacity:1" fill="#525252" d="M 170.5,87.5 C 171.167,90.5 171.833,93.5 172.5,96.5C 173.833,96.5 175.167,96.5 176.5,96.5C 172.689,97.6453 168.689,97.8119 164.5,97C 165.337,95.9887 165.67,94.8221 165.5,93.5C 163.856,93.2865 162.356,93.6198 161,94.5C 160.544,95.7441 161.044,96.5774 162.5,97C 158.357,97.8431 155.69,97.6764 154.5,96.5C 155.167,93.5 155.833,90.5 156.5,87.5C 156.183,90.5719 156.516,93.5719 157.5,96.5C 159.082,94.9853 160.416,93.3186 161.5,91.5C 161.383,89.5165 162.05,87.8498 163.5,86.5C 165.103,89.3734 166.436,92.3734 167.5,95.5C 168.325,96.3857 169.325,96.719 170.5,96.5C 170.5,93.5 170.5,90.5 170.5,87.5 Z"/></g>
<g><path style="opacity:1" fill="#dbdbdb" d="M 161.5,91.5 C 162.451,88.9548 163.451,88.9548 164.5,91.5C 163.386,92.7759 162.386,92.7759 161.5,91.5 Z"/></g>
<g><path style="opacity:1" fill="#8c8c8c" d="M 36.5,99.5 C 38.5323,100.048 39.5323,101.381 39.5,103.5C 39.5,103.833 39.5,104.167 39.5,104.5C 37.7497,103.341 36.7497,101.674 36.5,99.5 Z"/></g>
<g><path style="opacity:1" fill="#3d3d3d" d="M 108.5,87.5 C 109.833,86.1667 111.167,86.1667 112.5,87.5C 111.523,90.2869 111.19,93.2869 111.5,96.5C 113.981,96.6766 115.814,95.6766 117,93.5C 116.845,96.8403 116.345,100.174 115.5,103.5C 119.846,103.666 124.179,103.499 128.5,103C 129.26,101.559 129.926,100.059 130.5,98.5C 128.565,97.787 128.232,96.787 129.5,95.5C 130.167,95.5 130.833,95.5 131.5,95.5C 131.611,96.1174 131.944,96.6174 132.5,97C 131.331,99.0065 130.665,101.173 130.5,103.5C 135.14,104.025 139.473,103.358 143.5,101.5C 145.743,102.812 148.41,103.478 151.5,103.5C 154.167,103.333 156.833,103.167 159.5,103C 161.015,100.895 161.515,101.061 161,103.5C 158.894,106.118 156.394,108.118 153.5,109.5C 154.625,107.871 155.959,106.371 157.5,105C 152.5,104.333 147.5,104.333 142.5,105C 141.956,105.717 141.289,106.217 140.5,106.5C 139.129,105.213 137.295,104.547 135,104.5C 133.167,104.667 131.333,104.833 129.5,105C 128.512,107.167 127.179,109 125.5,110.5C 125.877,108.742 126.544,107.075 127.5,105.5C 118.525,104.502 109.525,104.168 100.5,104.5C 100.5,107.833 100.5,111.167 100.5,114.5C 100.5,115.167 100.5,115.833 100.5,116.5C 100.192,118.924 100.526,121.257 101.5,123.5C 102.417,122.873 103.417,122.539 104.5,122.5C 104.833,123.167 105.167,123.833 105.5,124.5C 97.8207,124.404 90.154,124.07 82.5,123.5C 82.1667,122.833 81.8333,122.167 81.5,121.5C 82.8734,121.657 84.2068,121.49 85.5,121C 84.0577,120.623 83.0577,119.79 82.5,118.5C 85.7029,119.683 88.8695,121.016 92,122.5C 92.5,122.333 93,122.167 93.5,122C 91.8588,120.871 90.8588,119.371 90.5,117.5C 92.5,119.167 94.5,120.833 96.5,122.5C 97.209,123.404 98.209,123.737 99.5,123.5C 99.5,120.5 99.5,117.5 99.5,114.5C 99.5,111.167 99.5,107.833 99.5,104.5C 95.1667,104.5 90.8333,104.5 86.5,104.5C 85.8333,104.5 85.1667,104.5 84.5,104.5C 80.1539,104.334 75.8206,104.501 71.5,105C 72.5822,106.33 73.2488,107.83 73.5,109.5C 72.0351,108.594 71.0351,107.261 70.5,105.5C 66.5411,104.34 62.5411,104.173 58.5,105C 59.2524,105.671 59.5858,106.504 59.5,107.5C 54.0063,104.56 48.0063,103.727 41.5,105C 42.7101,106.039 43.7101,107.206 44.5,108.5C 42.2512,107.92 40.5846,106.587 39.5,104.5C 39.5,104.167 39.5,103.833 39.5,103.5C 44.8746,103.828 50.2079,103.495 55.5,102.5C 54.5721,101.232 54.4054,99.8989 55,98.5C 56.1122,102.912 58.9456,104.578 63.5,103.5C 65.9637,103.41 68.1303,102.743 70,101.5C 72.2125,102.76 74.7125,103.426 77.5,103.5C 84.6904,103.099 92.0238,103.099 99.5,103.5C 99.8333,96.8333 100.167,96.8333 100.5,103.5C 105.167,103.5 109.833,103.5 114.5,103.5C 114.5,101.5 114.5,99.5 114.5,97.5C 112.473,97.6621 110.473,97.4955 108.5,97C 109.818,93.7312 109.818,90.5645 108.5,87.5 Z"/></g>
<g><path style="opacity:1" fill="#f9f9f9" d="M 73.5,109.5 C 73.7376,111.404 74.7376,112.738 76.5,113.5C 72.4251,114.938 68.4251,114.605 64.5,112.5C 63.1667,110.5 61.5,108.833 59.5,107.5C 59.5858,106.504 59.2524,105.671 58.5,105C 62.5411,104.173 66.5411,104.34 70.5,105.5C 71.0351,107.261 72.0351,108.594 73.5,109.5 Z"/></g>
<g><path style="opacity:1" fill="#fafafa" d="M 86.5,104.5 C 90.8333,104.5 95.1667,104.5 99.5,104.5C 99.5,107.833 99.5,111.167 99.5,114.5C 96.1501,114.665 92.8168,114.498 89.5,114C 87.5965,111.123 86.5965,107.956 86.5,104.5 Z"/></g>
<g><path style="opacity:1" fill="#fafafa" d="M 125.5,110.5 C 122.016,114.132 117.683,115.465 112.5,114.5C 115.193,102.753 114.526,102.586 110.5,114C 107.183,114.498 103.85,114.665 100.5,114.5C 100.5,111.167 100.5,107.833 100.5,104.5C 109.525,104.168 118.525,104.502 127.5,105.5C 126.544,107.075 125.877,108.742 125.5,110.5 Z"/></g>
<g><path style="opacity:1" fill="#f8f8f8" d="M 140.5,106.5 C 137.833,108.5 135.5,110.833 133.5,113.5C 130.221,114.492 126.888,114.659 123.5,114C 124.823,113.184 125.489,112.017 125.5,110.5C 127.179,109 128.512,107.167 129.5,105C 131.333,104.833 133.167,104.667 135,104.5C 137.295,104.547 139.129,105.213 140.5,106.5 Z"/></g>
<g><path style="opacity:1" fill="#f8f8f8" d="M 153.5,109.5 C 151.973,109.427 150.973,110.094 150.5,111.5C 144.984,114.453 139.318,115.12 133.5,113.5C 136.833,112.167 139.167,109.833 140.5,106.5C 141.289,106.217 141.956,105.717 142.5,105C 147.5,104.333 152.5,104.333 157.5,105C 155.959,106.371 154.625,107.871 153.5,109.5 Z"/></g>
<g><path style="opacity:1" fill="#ededed" d="M 84.5,104.5 C 85.2946,107.55 86.2946,110.55 87.5,113.5C 83.7897,114.758 80.123,114.758 76.5,113.5C 76.2624,111.596 75.2624,110.262 73.5,109.5C 73.2488,107.83 72.5822,106.33 71.5,105C 75.8206,104.501 80.1539,104.334 84.5,104.5 Z"/></g>
<g><path style="opacity:1" fill="#727272" d="M 59.5,107.5 C 61.5,108.833 63.1667,110.5 64.5,112.5C 61.8333,111.833 60.1667,110.167 59.5,107.5 Z"/></g>
<g><path style="opacity:1" fill="#656565" d="M 44.5,108.5 C 46.1958,108.685 47.5291,109.519 48.5,111C 46.5878,111.279 45.2544,110.446 44.5,108.5 Z"/></g>
<g><path style="opacity:1" fill="#767676" d="M 140.5,106.5 C 139.167,109.833 136.833,112.167 133.5,113.5C 135.5,110.833 137.833,108.5 140.5,106.5 Z"/></g>
<g><path style="opacity:1" fill="#646464" d="M 73.5,109.5 C 75.2624,110.262 76.2624,111.596 76.5,113.5C 74.7376,112.738 73.7376,111.404 73.5,109.5 Z"/></g>
<g><path style="opacity:1" fill="#5b5b5b" d="M 153.5,109.5 C 153.027,110.906 152.027,111.573 150.5,111.5C 150.973,110.094 151.973,109.427 153.5,109.5 Z"/></g>
<g><path style="opacity:1" fill="#717171" d="M 125.5,110.5 C 125.489,112.017 124.823,113.184 123.5,114C 126.888,114.659 130.221,114.492 133.5,113.5C 139.318,115.12 144.984,114.453 150.5,111.5C 142.046,117.102 132.712,120.769 122.5,122.5C 121.833,121.833 121.167,121.167 120.5,120.5C 121.78,119.069 123.447,118.402 125.5,118.5C 126.643,116.899 125.976,116.233 123.5,116.5C 120.852,117.463 118.186,118.463 115.5,119.5C 115.953,118.542 116.619,117.708 117.5,117C 115.167,116.333 112.833,116.333 110.5,117C 109.335,118.992 108.002,120.825 106.5,122.5C 106.842,123.338 107.508,123.672 108.5,123.5C 107.791,124.404 106.791,124.737 105.5,124.5C 105.167,123.833 104.833,123.167 104.5,122.5C 105.81,120.852 107.143,119.186 108.5,117.5C 105.914,116.52 103.247,116.187 100.5,116.5C 100.5,115.833 100.5,115.167 100.5,114.5C 103.85,114.665 107.183,114.498 110.5,114C 114.526,102.586 115.193,102.753 112.5,114.5C 117.683,115.465 122.016,114.132 125.5,110.5 Z"/></g>
<g><path style="opacity:1" fill="#7d7d7d" d="M 84.5,104.5 C 85.1667,104.5 85.8333,104.5 86.5,104.5C 86.5965,107.956 87.5965,111.123 89.5,114C 92.8168,114.498 96.1501,114.665 99.5,114.5C 99.5,117.5 99.5,120.5 99.5,123.5C 98.209,123.737 97.209,123.404 96.5,122.5C 98.3079,121.082 98.9746,119.082 98.5,116.5C 95.6146,116.194 92.9479,116.527 90.5,117.5C 87.592,116.431 84.592,116.264 81.5,117C 82.056,117.383 82.3893,117.883 82.5,118.5C 79.4363,116.657 76.1029,116.157 72.5,117C 75.5919,118.546 78.5919,120.046 81.5,121.5C 81.8333,122.167 82.1667,122.833 82.5,123.5C 71.6487,122.05 61.3153,118.883 51.5,114C 50.3044,113.346 50.3044,112.846 51.5,112.5C 55.9735,114.468 60.6402,114.968 65.5,114C 64.944,113.617 64.6107,113.117 64.5,112.5C 68.4251,114.605 72.4251,114.938 76.5,113.5C 80.123,114.758 83.7897,114.758 87.5,113.5C 86.2946,110.55 85.2946,107.55 84.5,104.5 Z"/></g>
<g><path style="opacity:1" fill="#f3f3f3" d="M 61.5,117.5 C 66.5056,115.748 71.1723,116.581 75.5,120C 70.8295,119.507 66.1629,118.674 61.5,117.5 Z"/></g>
<g><path style="opacity:1" fill="#f0f0f0" d="M 90.5,117.5 C 92.9479,116.527 95.6146,116.194 98.5,116.5C 98.9746,119.082 98.3079,121.082 96.5,122.5C 94.5,120.833 92.5,119.167 90.5,117.5 Z"/></g>
<g><path style="opacity:1" fill="#cbcbcb" d="M 115.5,119.5 C 112.574,120.698 109.574,121.698 106.5,122.5C 108.002,120.825 109.335,118.992 110.5,117C 112.833,116.333 115.167,116.333 117.5,117C 116.619,117.708 115.953,118.542 115.5,119.5 Z"/></g>
<g><path style="opacity:1" fill="#c3c3c3" d="M 125.5,118.5 C 123.447,118.402 121.78,119.069 120.5,120.5C 118.488,121.014 116.488,121.18 114.5,121C 115.056,120.617 115.389,120.117 115.5,119.5C 118.186,118.463 120.852,117.463 123.5,116.5C 125.976,116.233 126.643,116.899 125.5,118.5 Z"/></g>
<g><path style="opacity:1" fill="#cecece" d="M 82.5,118.5 C 83.0577,119.79 84.0577,120.623 85.5,121C 84.2068,121.49 82.8734,121.657 81.5,121.5C 78.5919,120.046 75.5919,118.546 72.5,117C 76.1029,116.157 79.4363,116.657 82.5,118.5 Z"/></g>
<g><path style="opacity:1" fill="#d3d3d3" d="M 125.5,118.5 C 129.31,116.69 133.31,116.19 137.5,117C 132.98,118.965 128.313,119.965 123.5,120C 124.416,119.722 125.082,119.222 125.5,118.5 Z"/></g>
<g><path style="opacity:1" fill="#d2d2d2" d="M 90.5,117.5 C 90.8588,119.371 91.8588,120.871 93.5,122C 93,122.167 92.5,122.333 92,122.5C 88.8695,121.016 85.7029,119.683 82.5,118.5C 82.3893,117.883 82.056,117.383 81.5,117C 84.592,116.264 87.592,116.431 90.5,117.5 Z"/></g>
<g><path style="opacity:1" fill="#d2d2d2" d="M 100.5,116.5 C 103.247,116.187 105.914,116.52 108.5,117.5C 107.143,119.186 105.81,120.852 104.5,122.5C 103.417,122.539 102.417,122.873 101.5,123.5C 100.526,121.257 100.192,118.924 100.5,116.5 Z"/></g>
<g><path style="opacity:1" fill="#393939" d="M 115.5,119.5 C 115.389,120.117 115.056,120.617 114.5,121C 116.488,121.18 118.488,121.014 120.5,120.5C 121.167,121.167 121.833,121.833 122.5,122.5C 117.87,123.229 113.203,123.563 108.5,123.5C 107.508,123.672 106.842,123.338 106.5,122.5C 109.574,121.698 112.574,120.698 115.5,119.5 Z"/></g>
<g><path style="opacity:1" fill="#6b6b6b" d="M 97.5,136.5 C 97.56,135.957 97.8933,135.624 98.5,135.5C 99.7376,139.311 100.404,139.311 100.5,135.5C 104.821,135.248 105.321,136.915 102,140.5C 100.605,139.185 99.6054,139.519 99,141.5C 98.8019,139.618 98.3019,137.952 97.5,136.5 Z"/></g>
<g><path style="opacity:1" fill="#898989" d="M 111.5,138.5 C 112.268,137.737 112.768,136.737 113,135.5C 113.647,140.074 115.314,140.074 118,135.5C 118.273,137.101 118.773,138.601 119.5,140C 117.218,141.297 114.885,141.797 112.5,141.5C 111.614,140.675 111.281,139.675 111.5,138.5 Z"/></g>
<g><path style="opacity:1" fill="#858585" d="M 87.5,135.5 C 90.128,136.625 90.9613,138.625 90,141.5C 89.5756,137.81 88.7423,137.643 87.5,141C 86.552,141.483 85.552,141.649 84.5,141.5C 84.2308,139.571 84.7308,137.905 86,136.5C 85.9227,137.738 86.0894,138.738 86.5,139.5C 87.4287,138.311 87.762,136.978 87.5,135.5 Z"/></g>
<g><path style="opacity:1" fill="#777777" d="M 47.5,135.5 C 48.8734,135.343 50.2068,135.51 51.5,136C 50.8333,136.333 50.1667,136.667 49.5,137C 50.1552,138.487 51.1552,139.653 52.5,140.5C 53.7112,139.726 53.7112,138.893 52.5,138C 53.5,137.333 54.5,137.333 55.5,138C 54.2888,138.893 54.2888,139.726 55.5,140.5C 56.3857,139.675 56.719,138.675 56.5,137.5C 58.7659,137.859 60.5993,137.192 62,135.5C 62.3247,137.553 61.9913,139.553 61,141.5C 60.6667,140.833 60.3333,140.167 60,139.5C 57.6288,142.827 54.6288,143.494 51,141.5C 49.5,141.167 48,140.833 46.5,140.5C 47.3094,138.929 47.6427,137.262 47.5,135.5 Z"/></g>
<g><path style="opacity:1" fill="#979797" d="M 63.5,137.5 C 65.1238,137.36 66.2904,138.027 67,139.5C 69,136.833 71,136.833 73,139.5C 75.5219,137.338 78.3553,137.005 81.5,138.5C 81.277,139.967 80.9437,141.467 80.5,143C 77.2605,143.442 75.4271,141.942 75,138.5C 74.5172,139.448 74.3505,140.448 74.5,141.5C 73.1667,141.5 71.8333,141.5 70.5,141.5C 69.8333,137.5 69.1667,137.5 68.5,141.5C 66.8008,141.66 65.1341,141.494 63.5,141C 62.8288,140.014 62.8288,138.847 63.5,137.5 Z"/></g>
<g><path style="opacity:1" fill="#7e7e7e" d="M 92.5,137.5 C 93.3764,137.369 94.0431,137.702 94.5,138.5C 93.3595,139.425 93.3595,140.259 94.5,141C 93.552,141.483 92.552,141.649 91.5,141.5C 91.4326,140.041 91.7659,138.708 92.5,137.5 Z"/></g>
<g><path style="opacity:1" fill="#7f7f7f" d="M 111.5,138.5 C 110.21,139.058 109.377,140.058 109,141.5C 108.667,140.833 108.333,140.167 108,139.5C 107.29,140.973 106.124,141.64 104.5,141.5C 104.222,139.654 104.889,138.32 106.5,137.5C 108.215,137.595 109.881,137.928 111.5,138.5 Z"/></g>
<g><path style="opacity:1" fill="#959595" d="M 126.5,135.5 C 127.239,135.369 127.906,135.536 128.5,136C 127.257,138.49 126.09,140.99 125,143.5C 124.29,142.027 123.124,141.36 121.5,141.5C 121.5,140.167 121.5,138.833 121.5,137.5C 124.328,139.401 125.994,138.734 126.5,135.5 Z"/></g>
<g><path style="opacity:1" fill="#858585" d="M 131.5,135.5 C 132.675,135.281 133.675,135.614 134.5,136.5C 133.494,137.396 133.494,138.062 134.5,138.5C 137.04,136.861 139.207,137.194 141,139.5C 143.667,136.833 146.333,136.833 149,139.5C 149.388,138.572 150.055,137.905 151,137.5C 152.235,138.615 153.402,138.615 154.5,137.5C 154.94,138.698 155.273,139.865 155.5,141C 153.406,141.445 151.906,140.612 151,138.5C 151.077,139.738 150.911,140.738 150.5,141.5C 148.622,141.377 146.789,141.377 145,141.5C 144.692,140.692 144.192,140.025 143.5,139.5C 141.796,142.431 139.629,142.097 137,138.5C 137.077,139.738 136.911,140.738 136.5,141.5C 133.002,140.421 131.335,138.421 131.5,135.5 Z"/></g>
</svg>
